<?xml version="1.0" encoding="utf-8"?>
<!-- Generator: Adobe Illustrator 16.0.0, SVG Export Plug-In . SVG Version: 6.00 Build 0)  -->
<!DOCTYPE svg PUBLIC "-//W3C//DTD SVG 1.1//EN" "http://www.w3.org/Graphics/SVG/1.1/DTD/svg11.dtd">
<svg version="1.1" id="Layer_1" xmlns:sketch="http://www.bohemiancoding.com/sketch/ns"
	 xmlns="http://www.w3.org/2000/svg" xmlns:xlink="http://www.w3.org/1999/xlink" x="0px" y="0px" width="188px" height="46.131px"
	 viewBox="0 0 188 46.131" enable-background="new 0 0 188 46.131" xml:space="preserve">
<title>bt-logo</title>
<desc>Created with Sketch.</desc>
<path id="Fill-1" fill="#FFFFFF" d="M6.154,21.635h4.379c3.381,0,5.071-1.108,5.071-3.247c0-2.101-1.806-3.246-5.34-3.246h-4.11
	V21.635L6.154,21.635z M6.154,5.975v6.035h3.841c2.881,0,4.379-1.07,4.379-3.018c0-1.986-1.536-3.018-4.417-3.018L6.154,5.975
	L6.154,5.975z M0.047,24.881v-3.246H2.62V5.975H0.047V2.728h10.294c4.725,0,7.605,2.177,7.605,5.958c0,2.482-1.459,4.01-3.303,4.736
	c2.65,0.726,4.533,2.597,4.533,5.156c0,4.048-3.15,6.302-8.297,6.302L0.047,24.881L0.047,24.881z"/>
<path id="Fill-2" fill="#FFFFFF" d="M37.846,13.347c-0.384-1.299-1.345-2.063-2.612-2.063c-2.958,0-5.762,2.177-5.762,6.149v4.202
	h5.685v3.246H22.48v-3.246h3.611v-9.778h-2.842V8.61h6.184v2.75c1.037-1.91,3.15-3.285,5.954-3.285c3.15,0,5.109,1.795,5.685,4.354
	L37.846,13.347"/>
<path id="Fill-3" fill="#FFFFFF" d="M55.132,18.311c-1.075-0.382-2.688-0.688-4.187-0.688c-2.151,0-4.226,0.688-4.226,2.636
	c0,1.451,1.306,2.139,3.111,2.139c2.497,0,5.301-1.337,5.301-3.629L55.132,18.311L55.132,18.311z M55.132,15.409v-0.917
	c0-2.292-1.844-3.247-3.841-3.247c-1.882,0-3.496,0.764-4.802,1.948l-2.228-2.406c1.537-1.414,3.726-2.712,7.03-2.712
	c4.11,0,7.298,2.178,7.298,6.302v7.258h2.382v3.246h-5.839v-1.719c-0.883,1.414-3.265,2.254-5.608,2.254
	c-3.38,0-6.3-1.719-6.3-5.118c0-4.011,3.957-5.538,7.567-5.538C52.559,14.76,54.018,15.103,55.132,15.409L55.132,15.409z"/>
<path id="Fill-4" fill="#FFFFFF" d="M71.382,0.398h3.803v4.965h-3.803V0.398z M81.484,21.635v3.246H64.967v-3.246h6.837v-9.778
	H66.58V8.61h8.604v13.024L81.484,21.635L81.484,21.635z"/>
<path id="Fill-5" fill="#FFFFFF" d="M85.557,21.635h2.497v-9.778H85.71V8.61h5.686v2.1c0.999-1.604,3.073-2.635,5.608-2.635
	c3.648,0,6.262,2.292,6.262,5.997v7.562h2.496v3.246h-8.488v-3.246h2.611v-6.646c0-2.826-1.729-3.628-3.304-3.628
	c-2.573,0-5.147,1.91-5.147,4.851v5.424h2.612v3.246h-8.489V21.635"/>
<path id="Fill-6" fill="#FFFFFF" d="M110.41,11.856h-4.264V8.61h4.264V2.728h3.381V8.61h7.951v3.246h-7.951v6.837
	c0,2.521,1.768,3.553,3.803,3.553c1.922,0,3.534-1.07,4.725-2.254l2.268,2.33c-1.498,1.604-3.803,3.094-6.99,3.094
	c-4.109,0-7.185-2.254-7.185-6.607L110.41,11.856"/>
<path id="Fill-7" fill="#FFFFFF" d="M143.023,13.347c-0.385-1.299-1.344-2.063-2.611-2.063c-2.958,0-5.762,2.177-5.762,6.149v4.202
	h5.686v3.246h-12.677v-3.246h3.61v-9.778h-2.844V8.61h6.186v2.75c1.037-1.91,3.149-3.285,5.953-3.285
	c3.149,0,5.109,1.795,5.686,4.354L143.023,13.347"/>
<path id="Fill-8" fill="#FFFFFF" d="M152.129,15.065h10.062c-0.498-2.33-2.572-3.896-4.877-3.896
	C154.702,11.169,152.705,12.773,152.129,15.065L152.129,15.065z M165.766,22.398c-1.689,1.757-4.687,3.018-8.029,3.018
	c-5.491,0-9.334-3.667-9.334-8.67c0-5.004,3.728-8.671,8.912-8.671c5.147,0,8.759,3.935,8.759,9.281v0.573h-14.099
	c0.576,2.712,2.844,4.354,5.801,4.354c2.459,0,4.57-0.992,5.725-2.253L165.766,22.398L165.766,22.398z"/>
<path id="Fill-9" fill="#FFFFFF" d="M173.141,15.065h10.064c-0.499-2.33-2.573-3.896-4.878-3.896
	C175.715,11.169,173.717,12.773,173.141,15.065L173.141,15.065z M186.777,22.398c-1.689,1.757-4.687,3.018-8.027,3.018
	c-5.493,0-9.335-3.667-9.335-8.67c0-5.004,3.726-8.671,8.912-8.671c5.147,0,8.759,3.935,8.759,9.281v0.573h-14.1
	c0.578,2.712,2.844,4.354,5.802,4.354c2.458,0,4.571-0.992,5.724-2.253L186.777,22.398L186.777,22.398z"/>
<path fill="#FFFFFF" d="M122.661,31h-4.416c-0.304,0-0.56,0.22-0.606,0.519l-1.785,11.325c-0.035,0.224,0.139,0.425,0.362,0.425
	h2.269c0.211,0,0.391-0.152,0.424-0.361l0.506-3.211c0.048-0.299,0.305-0.518,0.605-0.518h1.397c2.909,0,4.589-1.408,5.026-4.199
	c0.197-1.221,0.009-2.181-0.563-2.851C125.253,31.392,124.139,31,122.661,31z M123.171,35.138c-0.241,1.584-1.452,1.584-2.622,1.584
	h-0.667l0.468-2.959c0.028-0.18,0.183-0.312,0.363-0.312h0.307c0.795,0,1.549,0,1.938,0.452
	C123.189,34.177,123.258,34.58,123.171,35.138z"/>
<path fill="#FFFFFF" d="M91.16,31h-4.416c-0.302,0-0.559,0.22-0.606,0.519l-1.787,11.325c-0.035,0.224,0.137,0.425,0.364,0.425
	h2.109c0.302,0,0.559-0.22,0.606-0.519l0.482-3.056c0.048-0.297,0.304-0.518,0.606-0.518h1.397c2.909,0,4.588-1.406,5.026-4.197
	c0.199-1.222,0.009-2.182-0.562-2.852C93.751,31.392,92.638,31,91.16,31z M91.67,35.138c-0.242,1.584-1.452,1.584-2.624,1.584H88.38
	l0.468-2.959c0.028-0.18,0.183-0.312,0.363-0.312h0.306c0.797,0,1.55,0,1.939,0.452C91.687,34.177,91.758,34.58,91.67,35.138z"/>
<path fill="#FFFFFF" d="M104.361,35.085h-2.115c-0.182,0-0.335,0.133-0.363,0.312l-0.094,0.592l-0.146-0.215
	c-0.459-0.666-1.479-0.889-2.498-0.889c-2.336,0-4.332,1.771-4.722,4.256c-0.202,1.237,0.085,2.422,0.788,3.248
	c0.646,0.76,1.566,1.076,2.663,1.076c1.884,0,2.929-1.21,2.929-1.21l-0.095,0.588c-0.035,0.224,0.138,0.425,0.362,0.425h1.904
	c0.303,0,0.561-0.22,0.606-0.519l1.144-7.237C104.76,35.287,104.588,35.085,104.361,35.085z M101.413,39.202
	c-0.204,1.208-1.163,2.02-2.388,2.02c-0.612,0-1.104-0.197-1.42-0.57c-0.312-0.369-0.431-0.897-0.33-1.485
	c0.189-1.198,1.164-2.035,2.369-2.035c0.601,0,1.088,0.199,1.41,0.576C101.379,38.086,101.507,38.616,101.413,39.202z"/>
<path fill="#FFFFFF" d="M135.861,35.085h-2.113c-0.184,0-0.336,0.133-0.364,0.312l-0.093,0.592l-0.146-0.215
	c-0.459-0.666-1.479-0.889-2.498-0.889c-2.338,0-4.334,1.771-4.723,4.256c-0.201,1.237,0.085,2.422,0.787,3.248
	c0.646,0.76,1.566,1.076,2.664,1.076c1.883,0,2.93-1.21,2.93-1.21l-0.096,0.588c-0.036,0.224,0.137,0.425,0.363,0.425h1.904
	c0.301,0,0.56-0.22,0.605-0.519l1.145-7.237C136.262,35.287,136.089,35.085,135.861,35.085z M132.915,39.202
	c-0.203,1.208-1.163,2.02-2.388,2.02c-0.612,0-1.104-0.197-1.42-0.57c-0.313-0.369-0.431-0.897-0.332-1.485
	c0.19-1.198,1.166-2.035,2.371-2.035c0.602,0,1.088,0.199,1.41,0.576C132.881,38.086,133.008,38.616,132.915,39.202z"/>
<path fill="#FFFFFF" d="M115.626,35.085h-2.127c-0.203,0-0.394,0.102-0.508,0.27l-2.933,4.319l-1.242-4.149
	c-0.078-0.26-0.316-0.438-0.588-0.438h-2.09c-0.252,0-0.431,0.248-0.35,0.488l2.341,6.87l-2.2,3.104
	c-0.174,0.245,0,0.582,0.299,0.582h2.125c0.201,0,0.39-0.099,0.504-0.264l7.069-10.203
	C116.098,35.419,115.923,35.085,115.626,35.085z"/>
<path fill="#FFFFFF" d="M138.355,31.312l-1.812,11.532c-0.035,0.224,0.139,0.425,0.363,0.425h1.822c0.304,0,0.56-0.22,0.605-0.519
	l1.787-11.324c0.036-0.224-0.139-0.426-0.363-0.426h-2.04C138.538,31,138.384,31.133,138.355,31.312z"/>
<path opacity="0.8" fill="#FFFFFF" enable-background="new    " d="M74.277,40.956l-1.345,2.305h-0.99l5.09-8.503l2.303,8.503
	h-1.001l-0.592-2.305H74.277z M76.677,36.867l-1.905,3.25h2.744L76.677,36.867z"/>
<path fill="#FFFFFF" d="M152.229,36.937c-0.535-0.662-1.357-1.068-2.289-1.068c-1.799,0-3.5,1.562-3.777,3.338
	c-0.288,1.775,0.931,3.338,2.738,3.338c0.91,0,1.873-0.428,2.611-1.068l-0.172,1.111c-0.779,0.502-1.68,0.791-2.535,0.791
	c-2.279,0-3.916-1.852-3.553-4.141c0.363-2.312,2.557-4.205,4.867-4.205c0.9,0,1.66,0.258,2.291,0.792L152.229,36.937z"/>
<path fill="#FFFFFF" d="M152.271,40.733c0.233-1.477,1.595-2.662,3.069-2.662c1.478,0,2.45,1.187,2.216,2.662
	c-0.234,1.479-1.595,2.644-3.061,2.644C153.029,43.377,152.035,42.212,152.271,40.733z M153.127,40.724
	c-0.16,1.027,0.439,1.862,1.498,1.862s1.916-0.835,2.076-1.862c0.16-1.017-0.428-1.859-1.487-1.859S153.287,39.707,153.127,40.724z"
	/>
<path fill="#FFFFFF" d="M159.475,38.755h0.02c0.343-0.417,0.814-0.684,1.326-0.684c0.591,0,1.07,0.31,1.254,0.835
	c0.385-0.558,1.037-0.835,1.646-0.835c1.284,0,1.434,1.048,1.262,2.105l-0.479,3.061h-0.856l0.461-2.92
	c0.105-0.652,0.191-1.455-0.686-1.455c-0.982,0-1.242,0.951-1.369,1.712l-0.416,2.663h-0.857l0.451-2.854
	c0.096-0.62,0.17-1.521-0.652-1.521c-1.008,0-1.273,1.017-1.402,1.775l-0.406,2.6h-0.855l0.792-5.028h0.854L159.475,38.755z"/>
<path fill="#FFFFFF" d="M166.984,38.926h0.021c0.502-0.556,1.177-0.854,1.873-0.854c1.476,0,2.203,1.272,1.979,2.664
	c-0.227,1.435-1.328,2.643-2.836,2.643c-0.685,0-1.273-0.299-1.596-0.844h-0.021l-0.557,3.529h-0.854l1.241-7.854h0.854
	L166.984,38.926z M166.664,40.672c-0.16,0.983,0.277,1.914,1.348,1.914c1.102,0,1.818-0.888,1.979-1.903
	c0.159-1.007-0.343-1.818-1.402-1.818C167.596,38.862,166.812,39.729,166.664,40.672z"/>
<path fill="#FFFFFF" d="M176.038,43.237h-0.856l0.106-0.694h-0.021c-0.525,0.558-1.158,0.834-1.863,0.834
	c-1.477,0-2.215-1.25-1.99-2.644c0.227-1.434,1.338-2.662,2.848-2.662c0.684,0,1.252,0.32,1.582,0.854h0.022l0.104-0.717h0.858
	L176.038,43.237z M172.305,40.672c-0.162,0.983,0.276,1.914,1.348,1.914c1.102,0,1.818-0.888,1.979-1.903
	c0.159-1.007-0.344-1.818-1.403-1.818C173.234,38.862,172.453,39.729,172.305,40.672z"/>
<path fill="#FFFFFF" d="M178.488,38.819h0.021c0.438-0.481,0.941-0.748,1.562-0.748c1.393,0,1.553,1.006,1.359,2.183l-0.472,2.983
	h-0.854l0.447-2.834c0.129-0.813,0.184-1.541-0.812-1.541c-1.176,0-1.422,1.091-1.571,1.988l-0.375,2.387h-0.854l0.791-5.028h0.854
	L178.488,38.819z"/>
<path fill="#FFFFFF" d="M182.116,38.209h0.993l1.211,3.604l2.191-3.604h0.975l-4.952,7.854h-0.976l2.15-3.297L182.116,38.209z"/>
</svg>
