<?xml version="1.0" encoding="utf-8"?>
<!-- Generator: Adobe Illustrator 16.0.4, SVG Export Plug-In . SVG Version: 6.00 Build 0)  -->
<!DOCTYPE svg PUBLIC "-//W3C//DTD SVG 1.1//EN" "http://www.w3.org/Graphics/SVG/1.1/DTD/svg11.dtd">
<svg version="1.1" id="Layer_1" xmlns:sketch="http://www.bohemiancoding.com/sketch/ns"
	 xmlns="http://www.w3.org/2000/svg" xmlns:xlink="http://www.w3.org/1999/xlink" x="0px" y="0px" width="188px" height="46.131px"
	 viewBox="0 0 188 46.131" enable-background="new 0 0 188 46.131" xml:space="preserve">
<title>bt-logo</title>
<desc>Created with Sketch.</desc>
<g id="Page-1" sketch:type="MSPage">
	<g id="Features-Landing" transform="translate(-87.000000, -44.000000)" sketch:type="MSArtboardGroup">
		<g id="Header-Block-2" transform="translate(-2.000000, 0.407080)" sketch:type="MSLayerGroup">
			<rect id="Rectangle-82" y="-0.407" sketch:type="MSShapeGroup" fill="#3E3C42" width="1283" height="120">
			</rect>
			
				<g id="_x31__x5F_Braintree_x5F_Logo_x5F_Master_x5F_File" transform="translate(89.000000, 44.000000)" sketch:type="MSShapeGroup">
				<path id="Fill-1" fill="#FFFFFF" d="M6.154,21.228h4.379c3.381,0,5.071-1.108,5.071-3.247c0-2.101-1.806-3.246-5.34-3.246h-4.11
					V21.228L6.154,21.228z M6.154,5.568v6.035h3.841c2.881,0,4.379-1.07,4.379-3.018c0-1.986-1.536-3.018-4.417-3.018H6.154
					L6.154,5.568z M0.047,24.474v-3.246H2.62V5.568H0.047V2.321h10.294c4.725,0,7.605,2.177,7.605,5.958
					c0,2.482-1.459,4.01-3.303,4.736c2.65,0.726,4.533,2.597,4.533,5.156c0,4.048-3.15,6.302-8.297,6.302H0.047L0.047,24.474z"/>
				<path id="Fill-2" fill="#FFFFFF" d="M37.846,12.94c-0.384-1.299-1.345-2.063-2.612-2.063c-2.958,0-5.762,2.177-5.762,6.149
					v4.202h5.685v3.246H22.48v-3.246h3.611v-9.778h-2.842V8.203h6.184v2.75c1.037-1.91,3.15-3.285,5.954-3.285
					c3.15,0,5.109,1.795,5.685,4.354L37.846,12.94"/>
				<path id="Fill-3" fill="#FFFFFF" d="M55.132,17.904c-1.075-0.382-2.688-0.688-4.187-0.688c-2.151,0-4.226,0.688-4.226,2.636
					c0,1.451,1.306,2.139,3.111,2.139c2.497,0,5.301-1.337,5.301-3.629V17.904L55.132,17.904z M55.132,15.002v-0.917
					c0-2.292-1.844-3.247-3.841-3.247c-1.882,0-3.496,0.764-4.802,1.948l-2.228-2.406c1.537-1.414,3.726-2.712,7.03-2.712
					c4.11,0,7.298,2.178,7.298,6.302v7.258h2.382v3.246h-5.839v-1.719c-0.883,1.414-3.265,2.254-5.608,2.254
					c-3.38,0-6.3-1.719-6.3-5.118c0-4.011,3.957-5.538,7.567-5.538C52.559,14.353,54.018,14.696,55.132,15.002L55.132,15.002z"/>
				<path id="Fill-4" fill="#FFFFFF" d="M71.382-0.009h3.803v4.965h-3.803V-0.009z M81.484,21.228v3.246H64.967v-3.246h6.837v-9.778
					H66.58V8.203h8.604v13.024H81.484L81.484,21.228z"/>
				<path id="Fill-5" fill="#FFFFFF" d="M85.557,21.228h2.497v-9.778H85.71V8.203h5.686v2.1c0.999-1.604,3.073-2.635,5.608-2.635
					c3.649,0,6.262,2.292,6.262,5.997v7.562h2.496v3.246h-8.488v-3.246h2.611v-6.646c0-2.826-1.729-3.628-3.304-3.628
					c-2.573,0-5.147,1.91-5.147,4.851v5.424h2.612v3.246h-8.489V21.228"/>
				<path id="Fill-6" fill="#FFFFFF" d="M110.41,11.449h-4.264V8.203h4.264V2.321h3.381v5.882h7.951v3.246h-7.951v6.837
					c0,2.521,1.768,3.553,3.803,3.553c1.921,0,3.534-1.07,4.725-2.254l2.267,2.33c-1.498,1.604-3.803,3.094-6.991,3.094
					c-4.109,0-7.184-2.254-7.184-6.607V11.449"/>
				<path id="Fill-7" fill="#FFFFFF" d="M143.023,12.94c-0.384-1.299-1.344-2.063-2.611-2.063c-2.958,0-5.762,2.177-5.762,6.149
					v4.202h5.686v3.246h-12.677v-3.246h3.61v-9.778h-2.843V8.203h6.185v2.75c1.037-1.91,3.15-3.285,5.954-3.285
					c3.149,0,5.109,1.795,5.685,4.354L143.023,12.94"/>
				<path id="Fill-8" fill="#FFFFFF" d="M152.129,14.658h10.063c-0.499-2.33-2.573-3.896-4.878-3.896
					C154.702,10.762,152.705,12.366,152.129,14.658L152.129,14.658z M165.765,21.991c-1.689,1.757-4.686,3.018-8.028,3.018
					c-5.492,0-9.334-3.667-9.334-8.67c0-5.004,3.727-8.671,8.912-8.671c5.147,0,8.758,3.935,8.758,9.281v0.573h-14.098
					c0.576,2.712,2.843,4.354,5.801,4.354c2.458,0,4.57-0.992,5.724-2.253L165.765,21.991L165.765,21.991z"/>
				<path id="Fill-9" fill="#FFFFFF" d="M173.141,14.658h10.064c-0.499-2.33-2.573-3.896-4.878-3.896
					C175.715,10.762,173.717,12.366,173.141,14.658L173.141,14.658z M186.777,21.991c-1.689,1.757-4.686,3.018-8.027,3.018
					c-5.493,0-9.335-3.667-9.335-8.67c0-5.004,3.726-8.671,8.912-8.671c5.147,0,8.759,3.935,8.759,9.281v0.573h-14.099
					c0.577,2.712,2.843,4.354,5.801,4.354c2.458,0,4.571-0.992,5.724-2.253L186.777,21.991L186.777,21.991z"/>
			</g>
		</g>
	</g>
</g>
<g opacity="0.8">
	<g>
		<g>
			<g>
				<path fill="#FFFFFF" d="M122.661,31h-4.416c-0.303,0-0.56,0.22-0.606,0.519l-1.785,11.325c-0.035,0.223,0.138,0.425,0.362,0.425
					h2.268c0.211,0,0.391-0.153,0.424-0.362l0.506-3.211c0.048-0.298,0.305-0.518,0.606-0.518h1.397
					c2.909,0,4.589-1.407,5.027-4.198c0.197-1.221,0.008-2.181-0.564-2.851C125.253,31.391,124.139,31,122.661,31z M123.171,35.137
					c-0.242,1.585-1.452,1.585-2.622,1.585h-0.667l0.467-2.96c0.029-0.179,0.183-0.311,0.364-0.311h0.306
					c0.796,0,1.55,0,1.938,0.453C123.189,34.177,123.258,34.58,123.171,35.137z"/>
				<path fill="#FFFFFF" d="M91.16,31h-4.416c-0.302,0-0.559,0.22-0.606,0.519l-1.787,11.325c-0.035,0.223,0.137,0.425,0.364,0.425
					h2.109c0.302,0,0.559-0.22,0.606-0.519l0.482-3.055c0.048-0.298,0.304-0.518,0.606-0.518h1.397c2.909,0,4.588-1.407,5.027-4.198
					c0.198-1.221,0.008-2.181-0.563-2.851C93.751,31.391,92.638,31,91.16,31z M91.67,35.137c-0.242,1.585-1.452,1.585-2.624,1.585
					H88.38l0.468-2.96c0.028-0.179,0.183-0.311,0.363-0.311h0.306c0.797,0,1.55,0,1.939,0.453
					C91.687,34.177,91.758,34.58,91.67,35.137z"/>
				<path fill="#FFFFFF" d="M104.361,35.085h-2.115c-0.181,0-0.335,0.133-0.363,0.312l-0.094,0.592l-0.147-0.215
					c-0.458-0.665-1.479-0.888-2.498-0.888c-2.336,0-4.332,1.771-4.721,4.255c-0.202,1.238,0.085,2.422,0.788,3.248
					c0.646,0.76,1.566,1.077,2.663,1.077c1.884,0,2.929-1.21,2.929-1.21l-0.095,0.588c-0.035,0.223,0.138,0.425,0.363,0.425h1.904
					c0.303,0,0.56-0.22,0.606-0.519l1.144-7.238C104.76,35.287,104.588,35.085,104.361,35.085z M101.413,39.202
					c-0.204,1.208-1.163,2.019-2.387,2.019c-0.613,0-1.104-0.197-1.42-0.57c-0.313-0.369-0.431-0.897-0.331-1.485
					c0.19-1.198,1.164-2.035,2.37-2.035c0.6,0,1.088,0.199,1.409,0.576C101.379,38.086,101.507,38.616,101.413,39.202z"/>
				<path fill="#FFFFFF" d="M135.862,35.085h-2.114c-0.183,0-0.336,0.133-0.364,0.312l-0.093,0.592l-0.147-0.215
					c-0.459-0.665-1.479-0.888-2.498-0.888c-2.337,0-4.333,1.771-4.722,4.255c-0.201,1.238,0.085,2.422,0.787,3.248
					c0.646,0.76,1.566,1.077,2.664,1.077c1.883,0,2.929-1.21,2.929-1.21l-0.095,0.588c-0.036,0.223,0.137,0.425,0.363,0.425h1.905
					c0.301,0,0.559-0.22,0.605-0.519l1.144-7.238C136.262,35.287,136.089,35.085,135.862,35.085z M132.915,39.202
					c-0.203,1.208-1.163,2.019-2.387,2.019c-0.613,0-1.104-0.197-1.42-0.57c-0.314-0.369-0.431-0.897-0.332-1.485
					c0.19-1.198,1.165-2.035,2.37-2.035c0.602,0,1.088,0.199,1.41,0.576C132.881,38.086,133.008,38.616,132.915,39.202z"/>
				<path fill="#FFFFFF" d="M115.626,35.085h-2.127c-0.203,0-0.393,0.101-0.508,0.27l-2.932,4.319l-1.243-4.15
					c-0.078-0.26-0.316-0.438-0.588-0.438h-2.09c-0.252,0-0.43,0.248-0.349,0.488l2.341,6.87l-2.201,3.105
					c-0.173,0.245,0.001,0.582,0.3,0.582h2.124c0.201,0,0.39-0.099,0.504-0.264l7.07-10.203
					C116.097,35.419,115.923,35.085,115.626,35.085z"/>
			</g>
		</g>
		<g>
			<path fill="#FFFFFF" d="M138.355,31.312l-1.812,11.532c-0.035,0.223,0.138,0.425,0.363,0.425h1.823
				c0.303,0,0.559-0.22,0.605-0.519l1.787-11.324c0.036-0.224-0.138-0.426-0.363-0.426h-2.04
				C138.538,31,138.384,31.133,138.355,31.312z"/>
		</g>
	</g>
</g>
<path opacity="0.8" fill="#FFFFFF" d="M74.277,40.956l-1.345,2.305h-0.99l5.09-8.503l2.303,8.503h-1.001l-0.592-2.305H74.277z
	 M76.677,36.867l-1.905,3.25h2.744L76.677,36.867z"/>
<g opacity="0.8">
	<path fill="#FFFFFF" d="M152.228,36.937c-0.535-0.663-1.357-1.069-2.289-1.069c-1.798,0-3.499,1.562-3.777,3.338
		c-0.288,1.776,0.931,3.338,2.739,3.338c0.91,0,1.873-0.428,2.61-1.069l-0.171,1.112c-0.78,0.502-1.68,0.791-2.535,0.791
		c-2.279,0-3.917-1.851-3.553-4.141c0.363-2.311,2.557-4.205,4.867-4.205c0.9,0,1.66,0.258,2.291,0.792L152.228,36.937z"/>
	<path fill="#FFFFFF" d="M152.271,40.734c0.234-1.477,1.595-2.663,3.07-2.663c1.477,0,2.45,1.187,2.215,2.663
		c-0.234,1.478-1.594,2.643-3.06,2.643S152.035,42.212,152.271,40.734z M153.127,40.724c-0.16,1.027,0.439,1.862,1.498,1.862
		s1.916-0.835,2.076-1.862c0.16-1.017-0.428-1.86-1.487-1.86S153.287,39.707,153.127,40.724z"/>
	<path fill="#FFFFFF" d="M159.474,38.755h0.02c0.343-0.417,0.814-0.684,1.327-0.684c0.59,0,1.07,0.31,1.253,0.835
		c0.385-0.558,1.037-0.835,1.646-0.835c1.285,0,1.435,1.048,1.263,2.106l-0.48,3.061h-0.856l0.46-2.921
		c0.106-0.652,0.192-1.454-0.685-1.454c-0.983,0-1.242,0.951-1.37,1.711l-0.416,2.664h-0.857l0.451-2.855
		c0.096-0.621,0.17-1.52-0.652-1.52c-1.007,0-1.274,1.016-1.402,1.775l-0.407,2.6h-0.855l0.792-5.029h0.854L159.474,38.755z"/>
	<path fill="#FFFFFF" d="M166.984,38.926h0.021c0.502-0.556,1.177-0.854,1.873-0.854c1.476,0,2.203,1.272,1.979,2.663
		c-0.226,1.435-1.327,2.643-2.836,2.643c-0.684,0-1.273-0.299-1.595-0.844h-0.021l-0.557,3.53h-0.855l1.241-7.854h0.855
		L166.984,38.926z M166.664,40.672c-0.16,0.983,0.278,1.914,1.347,1.914c1.103,0,1.819-0.888,1.98-1.904
		c0.16-1.006-0.342-1.818-1.402-1.818C167.595,38.863,166.813,39.729,166.664,40.672z"/>
	<path fill="#FFFFFF" d="M176.038,43.238h-0.857l0.107-0.695h-0.021c-0.525,0.557-1.157,0.834-1.862,0.834
		c-1.477,0-2.216-1.25-1.991-2.643c0.226-1.434,1.338-2.663,2.847-2.663c0.685,0,1.252,0.321,1.583,0.854h0.022l0.105-0.717h0.858
		L176.038,43.238z M172.304,40.672c-0.161,0.983,0.277,1.914,1.348,1.914c1.102,0,1.818-0.888,1.98-1.904
		c0.159-1.006-0.344-1.818-1.403-1.818C173.234,38.863,172.453,39.729,172.304,40.672z"/>
	<path fill="#FFFFFF" d="M178.488,38.819h0.021c0.438-0.481,0.941-0.748,1.562-0.748c1.392,0,1.552,1.006,1.358,2.183l-0.471,2.984
		h-0.855l0.448-2.835c0.129-0.813,0.183-1.54-0.813-1.54c-1.176,0-1.422,1.09-1.571,1.988l-0.375,2.387h-0.855l0.791-5.029h0.855
		L178.488,38.819z"/>
	<path fill="#FFFFFF" d="M182.116,38.209h0.994l1.21,3.605l2.192-3.605h0.975l-4.953,7.854h-0.975l2.15-3.296L182.116,38.209z"/>
</g>
</svg>
