<?xml version="1.0" encoding="utf-8"?>
<!-- Generator: Adobe Illustrator 18.1.1, SVG Export Plug-In . SVG Version: 6.00 Build 0)  -->
<svg version="1.1" id="Layer_1" xmlns="http://www.w3.org/2000/svg" xmlns:xlink="http://www.w3.org/1999/xlink" x="0px" y="0px"
	 viewBox="30 132 530 530" enable-background="new 30 132 530 530" xml:space="preserve">
<g id="BG">
	<circle fill="#333333" cx="295" cy="397" r="239.9"/>
	<path display="none" fill="#222222" d="M532.4,431.5L348.6,247.7h-16.7V532H149.8l100.8,100.8c14.4,2.7,29.3,4.1,44.5,4.1
		C415.8,636.9,515.7,547.7,532.4,431.5z"/>
	<path display="none" fill="#222222" d="M316.3,424.5h22.8L234.6,320.1h-98.5l0,0l-3.1,3.1c-6.5,1.6-11.3,7.4-11.3,14.3
		c0,4,1.6,7.7,4.3,10.4h-3.5L227,452.3h117.1L316.3,424.5z"/>
	<path display="none" fill="#222222" d="M534.9,397c0-15.7-1.5-31.1-4.4-46l-32.7-32.7H351.1l111.3,111.3h70.3
		C534.1,419,534.9,408.1,534.9,397z"/>
</g>
<g id="container">
	<rect x="261.9" y="246.7" fill="#B3D1E1" width="70" height="150"/>
	<path fill="#B3D1E1" d="M296.9,342.7c0,0-145.7,122.2-145.7,188c0,13.8,65.2,25,145.7,25c80.5,0,145.7-11.2,145.7-25
		C442.6,464.8,296.9,342.7,296.9,342.7z"/>
	<ellipse fill="#B3D1E1" cx="296.9" cy="530.7" rx="145.7" ry="25"/>
	<path fill="#B3D1E1" d="M348.8,250.9c0,6.6,0,12-12,12h-79.9c-12,0-12-5.4-12-12v-6.2c0-6.6,0-12,12-12h79.9c12,0,12,5.4,12,12
		V250.9z"/>
</g>
<g id="liquid">
	<g>
		<path fill="#8EA8B2" d="M336.9,240.2c0,2.2-17.9,3.9-40,3.9c-22.1,0-40-1.8-40-3.9s0-3.9,40-3.9S336.9,238.1,336.9,240.2z"/>
	</g>
	<path fill="#49B5E7" d="M296.9,358.8c0,0-119,99.7-119,153.5c0,11.3,53.3,20.4,119,20.4c65.7,0,119-9.1,119-20.4
		C415.8,458.6,296.9,358.8,296.9,358.8z"/>
	<rect x="271.9" y="272.9" fill="#49B5E7" width="50" height="150"/>
	<ellipse fill="#3584A0" cx="296.9" cy="272.9" rx="25" ry="3.5"/>
	<ellipse fill="#40A6C1" cx="296.8" cy="514.7" rx="119" ry="18.1"/>
</g>
<g id="bubbles">
	<g>
		<path fill="#A0DDF6" d="M279.5,459.8c0-6.4,5.1-14,11.5-14c6.4,0,13.3,3.1,13.3,9.5s-6.9,13.5-13.3,13.5
			C284.6,468.8,279.5,466.2,279.5,459.8z"/>
		<path fill="#CDECF9" d="M292.2,455.6c0-2.2,1.8-4.9,4-4.9c2.2,0,4.6,1.1,4.6,3.3c0,2.2-2.4,4.7-4.6,4.7
			C294,458.8,292.2,457.9,292.2,455.6z"/>
	</g>
	<g>
		<path fill="#A0DDF6" d="M269.4,397.8c0-4.3,2.3-6.6,6.6-6.6c4.3,0,9.1,4.9,9.1,9.2s-4.7,6.5-9.1,6.5
			C271.7,406.9,269.4,402.2,269.4,397.8z"/>
		<path fill="#CDECF9" d="M277.3,395.9c0-1.1,0.6-1.7,1.7-1.7s2.3,1.2,2.3,2.4c0,1.1-1.2,1.7-2.3,1.7S277.3,397,277.3,395.9z"/>
	</g>
	<g>
		<path fill="#A0DDF6" d="M282.7,379.8c-2.4-1.9-2.6-4.2-0.7-6.5c1.9-2.4,6.6-2.8,9-0.9c2.4,1.9,1.5,5.4-0.4,7.8
			C288.6,382.5,285,381.7,282.7,379.8z"/>
		<path fill="#CDECF9" d="M287.9,376.3c-0.6-0.5-0.6-1-0.2-1.6c0.5-0.6,1.6-0.7,2.2-0.2c0.6,0.5,0.4,1.3-0.1,1.9
			S288.5,376.7,287.9,376.3z"/>
	</g>
	<path fill="#A0DDF6" d="M264.5,433.1c0.9-2.9,2.8-4,5.8-3.1c2.9,0.9,5.1,5,4.3,8c-0.9,2.9-4.4,3.4-7.4,2.6
		C264.2,439.6,263.6,436,264.5,433.1z"/>
	<path fill="#A0DDF6" d="M286.8,422.1c-1-0.8-1.1-1.8-0.3-2.9c0.8-1,2.9-1.2,4-0.4c1,0.8,0.6,2.4-0.2,3.4
		C289.4,423.3,287.8,422.9,286.8,422.1z"/>
	<path fill="#A0DDF6" d="M291.6,361.7c-1-0.8-1.1-1.8-0.3-2.9c0.8-1,2.9-1.2,4-0.4c1,0.8,0.6,2.4-0.2,3.4
		C294.2,362.9,292.6,362.5,291.6,361.7z"/>
</g>
<g id="shinies">
	<circle fill="#FFFFFF" cx="308.3" cy="290.4" r="2.7"/>
	<path fill="#FFFFFF" d="M308,297c-3.1,0-2.7,3.5-2.8,7.1l-0.1,68.3c-0.1,6.1-20.9,9.2,2,9.2c2.1,0,3.8-1.7,3.8-3.8v-77
		C311,298.7,310.1,297,308,297z"/>
	<path fill="#FFFFFF" d="M314.9,393.2c16.8,8.5,84.1,86.2,82.6,112.5c-0.4,6.4-11.6,13.6-15.2,0C365.3,439.9,298,384.7,314.9,393.2z
		"/>
</g>
<g id="BIG_TEXT" display="none">
	<rect x="173.4" y="420.6" display="inline" fill="none" width="332.2" height="92.8"/>
	
		<text transform="matrix(1 0 0 1 173.4248 495.1895)" display="inline" fill="#3584A0" font-family="'phantom-bold'" font-size="110">SAUCE</text>
	<rect x="89.3" y="326" display="inline" fill="none" width="270.9" height="92.8"/>
	<text transform="matrix(1 0 0 1 89.2661 400.584)" display="inline" fill="#3584A0" font-family="'phantom-bold'" font-size="110">code</text>
	<rect x="83.9" y="320.2" display="inline" fill="none" width="270.9" height="92.8"/>
	
		<text transform="matrix(1 0 0 1 83.9326 394.7827)" display="inline" fill="#FFFFFF" font-family="'phantom-bold'" font-size="110">code</text>
	<rect x="168.1" y="414.8" display="inline" fill="none" width="332.2" height="92.8"/>
	
		<text transform="matrix(1 0 0 1 168.0913 489.3867)" display="inline" fill="#FFFFFF" font-family="'phantom-bold'" font-size="110">SAUCE</text>
</g>
<g id="lil_text">
	<rect x="100.1" y="320.2" fill="none" width="135.5" height="38.6"/>
	<text transform="matrix(1 0 0 1 117.7407 354.4536)" fill="#FFFFFF" font-family="'phantom'" font-size="50">code</text>
	<rect x="351.1" y="319.4" fill="none" width="154.2" height="39.4"/>
	<text transform="matrix(1 0 0 1 351.0781 353.6973)" fill="#FFFFFF" font-family="'phantom'" font-size="50">SAUCE</text>
</g>
<g id="Layer_7">
	<circle fill="none" stroke="#9DDCF9" stroke-width="10" stroke-miterlimit="10" cx="295" cy="397" r="260"/>
	<circle fill="none" stroke="#49B5E7" stroke-width="2" stroke-miterlimit="10" cx="295" cy="397" r="260"/>
	<ellipse fill="#49B5E7" cx="520.5" cy="269.4" rx="25.5" ry="25.5"/>
	<g>
		<circle fill="#222222" cx="520.5" cy="269.4" r="22.7"/>
		<g>
			<polygon fill="#49B5E7" points="526.5,255.3 510.3,270 523.3,272.4 			"/>
			<polygon fill="#49B5E7" points="514.5,283.5 530.7,268.8 517.7,266.4 			"/>
		</g>
	</g>
</g>
</svg>
