<?xml version="1.0" encoding="utf-8"?>
<!-- Generator: Adobe Illustrator 18.1.1, SVG Export Plug-In . SVG Version: 6.00 Build 0)  -->
<svg version="1.1" id="Layer_1" xmlns="http://www.w3.org/2000/svg" xmlns:xlink="http://www.w3.org/1999/xlink" x="0px" y="0px"
	 viewBox="1 347.9 610 96.5" enable-background="new 1 347.9 610 96.5" xml:space="preserve">
<g>
	<g>
		<path fill="#FFFFFF" d="M11.5,440.3c31.4-20.2,67-5.6,84.8,4.1C71.7,434.6,35.7,432.3,11.5,440.3z"/>
		<path fill="#FFFFFF" d="M66.6,347.9c15.1,0,28,8.9,33.9,21.6H88.7c-5.2-6.4-13.3-10.5-22.2-10.5c-8.9,0-16.7,4-21.9,10.2
			c0.3-0.2,0.6-0.4,0.8-0.6c12.3-8.8,28.8,0.9,28.8,0.9s-15.6-4.6-26.1,2.9c-10.6,7.4-8.9,22.2-8.9,22.2s-0.1-0.2-0.2-0.5
			c0,0.2,0.1,0.3,0.1,0.5c-2.5-1.8-5.6-3.1-9-3.4c-0.4-2.1-0.6-4.4-0.6-6.6C29.6,364.3,46.2,347.9,66.6,347.9L66.6,347.9z
			 M19.2,431.7v-3.2c9.8-7.2,27.8-16.6,49.6-9.9c33,10.3,54,24.4,79.5,18.1s27.7-20.3,27.7-20.3s-4.5,19.7-29.6,24
			s-48.2-0.5-77.7-11.5C48.9,421.6,29.6,427.3,19.2,431.7L19.2,431.7z M19.2,425.4c1.8-1.2,3.7-2.3,5.4-3.3
			c-0.8-0.5-1.6-1.1-2.3-1.8c-1.3-1.3-2.3-2.8-3.1-4.2v6.8l0.2,0.1c0.3,0.3,0.7,0.6,1,0.9c-0.4-0.2-0.8-0.4-1.2-0.6V425.4
			L19.2,425.4z M19.2,393.6v-11.6c2.4-0.8,5-1.3,7.6-1.4c-0.1,1.3-0.2,2.7-0.2,4.1c0,2.3,0.2,4.6,0.6,6.7
			C24.3,391.4,21.5,392.2,19.2,393.6z M19.2,381.9v11.6c-5.2,3-8.7,8.5-8.7,14.9c0,6.3,3.5,11.8,8.7,14.9v2c-2,1.4-4.1,3-5.8,4.2
			C5.9,424.8,1,416.5,1,407.1C1,395.4,8.6,385.5,19.2,381.9L19.2,381.9z M19.2,416c-3.3-6.4-2.1-13.7-2.1-13.7s-5.6,12.9,2.1,20.5
			V416L19.2,416z M19.2,428.5c-5.1,3.8-8,6.9-8,6.9c0,0.1,3-1.6,8-3.8V428.5z"/>
		<path fill="#FFFFFF" d="M102.2,423.5c0,0,15.7,8.1,30.6,6.7c14.8-1.3,19.3-6.5,19.3-6.5s-5.4,10-19.7,10.6
			C118.1,434.9,102.2,423.8,102.2,423.5z"/>
		<rect x="90.1" y="372.5" fill="#FFFFFF" width="13.3" height="13.3"/>
		<rect x="142.7" y="409.3" fill="#FFFFFF" width="10.2" height="10.2"/>
		<rect x="106.1" y="360.4" fill="#FFFFFF" width="17.6" height="17.6"/>
		<rect x="157.3" y="391" fill="#FFFFFF" width="17.6" height="17.6"/>
		<rect x="125.5" y="379.5" fill="#FFFFFF" width="9.8" height="9.8"/>
		<rect x="132" y="398.9" fill="#FFFFFF" width="9.8" height="9.8"/>
		<rect x="111.3" y="399.8" fill="#FFFFFF" width="9.9" height="9.8"/>
		<rect x="145.8" y="379.8" fill="#FFFFFF" width="9.8" height="9.8"/>
	</g>
	<g>
		<path fill="#FFFFFF" d="M255.1,399.5c0,4.1-0.7,8-2,11.3c-1.3,3.5-3.3,6.4-5.8,8.9c-2.4,2.4-5.5,4.4-9,5.8c-3.5,1.3-7.3,2-11.6,2
			H205v-56.2h21.5c4.3,0,8.2,0.7,11.6,2c3.5,1.4,6.5,3.4,9,5.8c2.4,2.4,4.4,5.4,5.8,8.9C254.4,391.6,255.1,395.4,255.1,399.5z
			 M244.4,399.5c0-3.1-0.4-5.8-1.2-8.4c-0.8-2.4-2-4.5-3.6-6.2s-3.4-3-5.6-3.9c-2.2-0.9-4.7-1.3-7.4-1.3h-10.9v39.7h10.9
			c2.8,0,5.2-0.4,7.4-1.3c2.2-0.9,4.1-2.2,5.6-3.9c1.5-1.7,2.8-3.8,3.6-6.2C243.9,405.4,244.4,402.5,244.4,399.5z"/>
		<path fill="#FFFFFF" d="M270.5,376c0,0.8-0.2,1.6-0.5,2.3c-0.3,0.7-0.8,1.3-1.3,1.9c-0.5,0.5-1.2,1-1.9,1.3s-1.5,0.5-2.4,0.5
			c-0.8,0-1.6-0.2-2.3-0.5s-1.4-0.7-1.9-1.3c-0.5-0.5-1-1.2-1.3-1.9c-0.3-0.7-0.5-1.5-0.5-2.3c0-0.8,0.2-1.6,0.5-2.4
			c0.3-0.7,0.7-1.4,1.3-1.9c0.5-0.5,1.2-1,1.9-1.3c0.7-0.3,1.5-0.5,2.3-0.5c0.8,0,1.6,0.2,2.4,0.5c0.7,0.3,1.4,0.7,1.9,1.3
			c0.5,0.5,1,1.2,1.3,1.9C270.3,374.4,270.5,375.2,270.5,376z M269.1,387.6v40h-9.6v-40H269.1z"/>
		<path fill="#FFFFFF" d="M289.9,387c1.7,0,3.4,0.2,4.8,0.5c1.5,0.3,2.9,0.8,4.1,1.5h11.5v3.6c0,0.6-0.2,1-0.5,1.4
			c-0.3,0.3-0.8,0.6-1.6,0.7l-3.6,0.6c0.3,0.7,0.5,1.4,0.6,2.1c0.1,0.7,0.2,1.5,0.2,2.3c0,1.9-0.4,3.8-1.2,5.3
			c-0.8,1.6-1.8,3-3.3,4.1c-1.4,1.1-3.1,1.9-4.9,2.6c-1.9,0.6-4,0.9-6.2,0.9c-1.5,0-3-0.1-4.4-0.4c-1.2,0.7-1.8,1.6-1.8,2.6
			c0,0.8,0.4,1.4,1.1,1.8c0.7,0.4,1.7,0.6,3,0.8c1.2,0.2,2.6,0.2,4.1,0.2s3.1,0.1,4.7,0.2c1.6,0.1,3.2,0.4,4.7,0.7s2.9,0.8,4.1,1.5
			c1.2,0.7,2.1,1.6,3,2.9c0.7,1.2,1.1,2.8,1.1,4.7c0,1.7-0.4,3.5-1.3,5.2c-0.9,1.6-2.1,3.2-3.8,4.5c-1.6,1.3-3.7,2.3-6,3.2
			c-2.3,0.8-5.1,1.2-8.2,1.2s-5.7-0.3-7.9-0.9c-2.2-0.6-4.1-1.3-5.5-2.3c-1.4-1-2.5-2.1-3.3-3.4c-0.7-1.2-1.1-2.5-1.1-4
			c0-1.8,0.6-3.5,1.7-4.7c1.1-1.2,2.8-2.2,4.8-3.1c-1-0.5-1.7-1.2-2.3-2.1c-0.6-0.9-0.9-2-0.9-3.6c0-0.6,0.1-1.2,0.3-1.8
			c0.2-0.6,0.5-1.2,0.9-1.9c0.4-0.6,0.9-1.2,1.6-1.7c0.6-0.5,1.4-1,2.3-1.5c-2-1.1-3.6-2.5-4.8-4.4c-1.1-1.8-1.7-4-1.7-6.4
			c0-1.9,0.4-3.8,1.2-5.3c0.8-1.6,1.9-3,3.3-4.1c1.4-1.1,3.1-2,5-2.6C285.5,387.3,287.5,387,289.9,387z M300.4,429.4
			c0-0.8-0.2-1.4-0.7-1.9c-0.5-0.5-1.1-0.9-1.9-1.2c-0.8-0.3-1.7-0.5-2.9-0.6s-2.2-0.2-3.5-0.2c-1.2,0-2.4,0-3.8,0s-2.5-0.1-3.7-0.4
			c-1.1,0.6-1.9,1.3-2.7,2.1s-1,1.7-1,2.9c0,0.7,0.2,1.3,0.5,1.9c0.3,0.6,0.9,1.1,1.6,1.5c0.8,0.4,1.7,0.8,3,1
			c1.2,0.2,2.8,0.4,4.5,0.4c1.8,0,3.4-0.1,4.6-0.4c1.3-0.3,2.3-0.6,3.2-1.1c0.8-0.5,1.4-1.1,1.8-1.7
			C300.2,430.9,300.4,430.1,300.4,429.4z M289.9,406.7c1.2,0,2.2-0.2,3.2-0.5s1.6-0.8,2.2-1.3c0.6-0.6,1-1.2,1.3-2
			c0.3-0.8,0.4-1.7,0.4-2.7c0-1.9-0.6-3.6-1.7-4.7c-1.2-1.1-3-1.7-5.3-1.7s-4.2,0.6-5.3,1.7c-1.2,1.1-1.7,2.8-1.7,4.7
			c0,0.9,0.1,1.8,0.4,2.7c0.3,0.8,0.7,1.5,1.3,2c0.6,0.6,1.3,1,2.2,1.3C287.8,406.5,288.7,406.7,289.9,406.7z"/>
		<path fill="#FFFFFF" d="M324.2,376c0,0.8-0.2,1.6-0.5,2.3c-0.3,0.7-0.8,1.3-1.3,1.9c-0.5,0.6-1.2,1-1.9,1.3s-1.5,0.5-2.4,0.5
			c-0.8,0-1.6-0.2-2.3-0.5c-0.7-0.3-1.4-0.7-1.9-1.3c-0.5-0.5-1-1.2-1.3-1.9c-0.3-0.7-0.5-1.5-0.5-2.3c0-0.8,0.2-1.6,0.5-2.4
			c0.3-0.7,0.7-1.4,1.3-1.9c0.5-0.5,1.2-1,1.9-1.3c0.7-0.3,1.5-0.5,2.3-0.5c0.8,0,1.6,0.2,2.4,0.5c0.7,0.3,1.4,0.7,1.9,1.3
			c0.5,0.5,1,1.2,1.3,1.9C324,374.4,324.2,375.2,324.2,376z M322.7,387.6v40h-9.6v-40H322.7z"/>
		<path fill="#FFFFFF" d="M342.8,428.2c-3.5,0-6.1-1-8-3c-1.8-1.9-2.8-4.7-2.8-8.2v-22.2H328c-0.5,0-0.9-0.2-1.3-0.5
			c-0.4-0.3-0.6-0.8-0.6-1.5v-3.8l6.4-1l2-10.9c0.1-0.5,0.3-0.9,0.7-1.2c0.4-0.3,0.8-0.4,1.4-0.4h5V388h10.5v6.8h-10.5v21.6
			c0,1.2,0.3,2.2,0.9,3s1.4,1,2.4,1c0.6,0,1.1-0.1,1.5-0.2s0.7-0.3,1-0.4c0.3-0.2,0.6-0.3,0.8-0.4c0.2-0.1,0.5-0.2,0.7-0.2
			c0.3,0,0.5,0.1,0.7,0.2s0.4,0.4,0.6,0.6l2.9,4.7c-1.4,1.1-3.1,2-4.8,2.7C346.6,427.9,344.8,428.2,342.8,428.2z"/>
		<path fill="#FFFFFF" d="M387.2,427.6h-4.3c-0.9,0-1.6-0.1-2.1-0.4c-0.5-0.3-0.9-0.8-1.1-1.6l-0.8-2.9c-1,0.9-2,1.7-3,2.3
			c-1,0.7-1.9,1.2-3.1,1.7c-1,0.5-2.1,0.8-3.3,1c-1.1,0.2-2.4,0.3-3.9,0.3c-1.7,0-3.3-0.2-4.7-0.7c-1.4-0.4-2.7-1.1-3.7-2
			c-1-0.9-1.8-2-2.3-3.4c-0.5-1.3-0.8-3-0.8-4.7c0-1.5,0.4-3,1.2-4.5c0.8-1.4,2.1-2.8,4-4s4.3-2.1,7.3-3s6.8-1.1,11.4-1.1v-2.3
			c0-2.7-0.6-4.7-1.7-6c-1.1-1.3-2.8-1.9-4.9-1.9c-1.5,0-2.9,0.2-3.9,0.5c-1,0.3-1.9,0.8-2.8,1.2c-0.8,0.4-1.4,0.8-2.1,1.2
			c-0.7,0.4-1.3,0.5-2.1,0.5c-0.6,0-1.2-0.2-1.6-0.5c-0.5-0.3-0.8-0.7-1.1-1.2l-1.7-3.1c4.6-4.2,10.1-6.3,16.6-6.3
			c2.3,0,4.4,0.4,6.2,1.1c1.8,0.8,3.4,1.8,4.7,3.2c1.2,1.3,2.2,3,2.9,4.9c0.6,1.9,1,4,1,6.2v25.4H387.2z M368.5,421.6
			c1,0,1.9-0.1,2.8-0.3c0.8-0.2,1.6-0.4,2.3-0.8c0.7-0.4,1.4-0.8,2.1-1.3c0.7-0.5,1.4-1.1,2-1.8v-6.7c-2.8,0-5.1,0.2-7,0.5
			c-1.8,0.3-3.4,0.8-4.5,1.3c-1.1,0.5-1.9,1.2-2.4,1.9c-0.5,0.7-0.7,1.5-0.7,2.3c0,1.7,0.5,3,1.5,3.7
			C365.6,421.3,366.9,421.6,368.5,421.6z"/>
		<path fill="#FFFFFF" d="M403,369.8v57.8h-9.6v-57.8H403z"/>
		<path fill="#FFFFFF" d="M464.5,399.5c0,4.1-0.7,8-2,11.4c-1.3,3.5-3.3,6.5-5.8,9.2c-2.4,2.5-5.5,4.6-9,6s-7.3,2.1-11.6,2.1
			c-4.3,0-8.2-0.7-11.6-2.1s-6.5-3.5-9.1-6c-2.5-2.5-4.5-5.6-5.8-9.2c-1.3-3.5-2-7.3-2-11.4c0-4.1,0.7-8,2-11.4
			c1.3-3.5,3.4-6.5,5.8-9.2c2.6-2.5,5.5-4.6,9.1-6c3.5-1.4,7.4-2.1,11.6-2.1s8.2,0.7,11.6,2.1c3.5,1.4,6.5,3.5,9,6
			c2.4,2.6,4.4,5.6,5.8,9.1C463.9,391.5,464.5,395.4,464.5,399.5z M453.8,399.5c0-3.1-0.4-5.8-1.2-8.4c-0.8-2.4-2-4.5-3.6-6.2
			s-3.4-3.1-5.6-4s-4.7-1.3-7.4-1.3c-2.8,0-5.2,0.4-7.4,1.3s-4.1,2.2-5.6,4s-2.8,3.8-3.6,6.2c-0.8,2.4-1.2,5.2-1.2,8.4
			c0,3.1,0.4,5.8,1.2,8.3s2,4.5,3.6,6.2c1.5,1.7,3.5,3,5.6,3.9c2.2,0.9,4.7,1.3,7.4,1.3c2.8,0,5.2-0.4,7.4-1.3
			c2.2-0.9,4.1-2.2,5.6-3.9c1.5-1.7,2.8-3.8,3.6-6.2C453.4,405.4,453.8,402.5,453.8,399.5z"/>
		<path fill="#FFFFFF" d="M496.4,396.1c-0.3,0.4-0.6,0.6-0.8,0.8c-0.3,0.2-0.7,0.3-1.2,0.3c-0.5,0-1-0.1-1.4-0.4s-1-0.6-1.6-1
			c-0.6-0.4-1.4-0.7-2.3-1s-2-0.4-3.4-0.4c-1.7,0-3.2,0.3-4.5,0.9c-1.2,0.6-2.3,1.5-3.2,2.7c-0.8,1.1-1.4,2.5-1.9,4.2
			c-0.4,1.6-0.6,3.5-0.6,5.5c0,2.1,0.2,4,0.7,5.7c0.4,1.6,1.1,3.1,1.9,4.2s1.9,1.9,3.2,2.6c1.2,0.6,2.5,0.9,4.1,0.9s2.8-0.2,3.7-0.6
			c0.9-0.4,1.7-0.8,2.3-1.2c0.6-0.4,1.2-0.9,1.7-1.2c0.5-0.3,1-0.6,1.6-0.6c0.8,0,1.3,0.3,1.7,0.9l2.8,3.5c-1,1.2-2.2,2.2-3.5,3.2
			c-1.2,0.9-2.6,1.5-3.9,2c-1.3,0.5-2.8,0.8-4.2,1c-1.4,0.2-2.9,0.3-4.3,0.3c-2.4,0-4.8-0.5-6.9-1.4s-4.1-2.2-5.7-4.1
			c-1.6-1.8-3-3.9-3.9-6.5c-0.9-2.5-1.4-5.5-1.4-8.8c0-3,0.4-5.6,1.2-8.2c0.8-2.5,2-4.7,3.7-6.5c1.6-1.8,3.7-3.3,6.1-4.3
			c2.4-1,5.2-1.5,8.4-1.5c3,0,5.6,0.5,7.9,1.4c2.2,0.9,4.3,2.3,6,4.1L496.4,396.1z"/>
		<path fill="#FFFFFF" d="M518.2,387c2.5,0,4.8,0.4,6.9,1.2c2.1,0.8,4,1.9,5.5,3.6c1.5,1.5,2.8,3.5,3.6,5.7c0.8,2.2,1.3,4.8,1.3,7.6
			c0,0.7,0,1.3-0.1,1.8c-0.1,0.5-0.2,0.8-0.3,1.1c-0.2,0.3-0.4,0.5-0.7,0.6c-0.3,0.1-0.6,0.2-1.1,0.2h-24.7c0.3,4.1,1.4,7.1,3.3,9.1
			c1.9,1.9,4.5,2.9,7.6,2.9c1.5,0,2.9-0.2,4.1-0.5c1.1-0.4,2.1-0.8,3-1.2s1.6-0.8,2.2-1.2s1.2-0.5,1.8-0.5c0.4,0,0.7,0.1,1,0.2
			c0.3,0.2,0.5,0.4,0.7,0.6l2.8,3.5c-1,1.2-2.2,2.2-3.6,3.2s-2.8,1.5-4.2,2c-1.4,0.5-3,0.8-4.4,1c-1.5,0.2-3,0.3-4.4,0.3
			c-2.8,0-5.4-0.5-7.8-1.4c-2.3-0.9-4.5-2.2-6.2-4.1s-3.2-4.1-4.2-6.7c-1-2.7-1.5-5.7-1.5-9.3c0-2.8,0.4-5.3,1.3-7.6
			c0.9-2.4,2.1-4.5,3.8-6.2c1.6-1.7,3.7-3.2,6-4.2C512.4,387.5,515.1,387,518.2,387z M518.3,394c-2.8,0-5,0.8-6.6,2.3
			c-1.6,1.6-2.5,3.9-3.1,6.7h18.1c0-1.2-0.2-2.4-0.5-3.6s-0.8-2-1.5-2.9c-0.7-0.8-1.6-1.5-2.7-1.9C521,394.2,519.7,394,518.3,394z"
			/>
		<path fill="#FFFFFF" d="M570.7,427.6h-4.3c-0.9,0-1.6-0.1-2.1-0.4c-0.5-0.3-0.9-0.8-1.1-1.6l-0.8-2.9c-1,0.9-2,1.7-3,2.3
			c-1,0.7-1.9,1.2-3.1,1.7c-1,0.5-2.1,0.8-3.3,1c-1.1,0.2-2.4,0.3-3.9,0.3c-1.7,0-3.3-0.2-4.7-0.7c-1.4-0.4-2.7-1.1-3.7-2
			c-1-0.9-1.8-2-2.3-3.4c-0.5-1.3-0.8-3-0.8-4.7c0-1.5,0.4-3,1.2-4.5c0.8-1.4,2.1-2.8,4-4s4.3-2.1,7.3-3c3.1-0.8,6.8-1.1,11.4-1.1
			v-2.3c0-2.7-0.6-4.7-1.7-6c-1.1-1.3-2.8-1.9-4.9-1.9c-1.5,0-2.9,0.2-3.9,0.5c-1,0.3-1.9,0.8-2.8,1.2c-0.8,0.4-1.4,0.8-2.1,1.2
			c-0.7,0.4-1.3,0.5-2.1,0.5c-0.6,0-1.2-0.2-1.6-0.5c-0.5-0.3-0.8-0.7-1.1-1.2l-1.7-3.1c4.6-4.2,10.1-6.3,16.6-6.3
			c2.3,0,4.4,0.4,6.2,1.1c1.8,0.8,3.4,1.8,4.7,3.2c1.2,1.3,2.2,3,2.9,4.9c0.6,1.9,1,4,1,6.2v25.4H570.7z M551.9,421.6
			c1,0,1.9-0.1,2.8-0.3s1.6-0.4,2.3-0.8c0.7-0.4,1.4-0.8,2.1-1.3c0.7-0.5,1.4-1.1,2-1.8v-6.7c-2.8,0-5.1,0.2-7,0.5
			c-1.8,0.3-3.4,0.8-4.5,1.3c-1.1,0.5-1.9,1.2-2.4,1.9c-0.5,0.7-0.7,1.5-0.7,2.3c0,1.7,0.5,3,1.5,3.7
			C549.1,421.3,550.3,421.6,551.9,421.6z"/>
		<path fill="#FFFFFF" d="M576.2,427.6v-40h5.9c1.2,0,2,0.6,2.4,1.7l0.6,3.2c0.8-0.8,1.6-1.6,2.5-2.2c0.9-0.7,1.8-1.2,2.9-1.7
			c1-0.5,2-0.9,3.2-1.1c1.1-0.3,2.3-0.4,3.8-0.4c2.1,0,4.1,0.4,5.8,1.1c1.7,0.7,3.1,1.7,4.2,3.2c1.1,1.3,1.9,3,2.5,4.8
			c0.6,1.8,0.9,3.9,0.9,6.1v25.4h-9.6v-25.4c0-2.4-0.6-4.3-1.7-5.7c-1.1-1.3-2.9-2-5.1-2c-1.6,0-3.3,0.4-4.7,1.1
			c-1.4,0.7-2.9,1.7-4.1,3.1v28.9h-9.6V427.6z"/>
	</g>
</g>
</svg>
