<?xml version="1.0" encoding="iso-8859-1"?>
<!-- Generator: Adobe Illustrator 18.1.0, SVG Export Plug-In . SVG Version: 6.00 Build 0)  -->
<svg version="1.1" xmlns="http://www.w3.org/2000/svg" xmlns:xlink="http://www.w3.org/1999/xlink" x="0px" y="0px"
	 viewBox="0 0 500 500" style="enable-background:new 0 0 500 500;" xml:space="preserve">
<g id="palette" style="display:none;">
	<rect x="-56" y="-146" style="display:inline;fill:#FFF3C0;" width="612" height="792"/>
	<rect x="-56" y="19.358" style="display:inline;fill:#FEE150;" width="612" height="207.408"/>
	<rect x="-56" y="276.148" style="display:inline;fill:#97D8E7;" width="612" height="207.408"/>
</g>
<g id="Layer_6">
	<circle style="fill:#97D8E7;" cx="250" cy="250" r="250"/>
</g>
<g id="Layer_4">
	<g>
		<g>
			<rect x="197.699" y="75.333" style="fill:#3A6667;" width="3.063" height="32.667"/>
			<path style="fill:#3A6667;" d="M196.454,72.001c0,0,23-1.025,26,3.333c3,4.358-0.398,6.371,2.425,8
				c4.908,2.833,20.773,2.333,20.773,2.333s-20.531,9-22.197,6s-16.114-3.999-24.224-1.666"/>
		</g>
		<rect x="171.153" y="132.599" style="fill:#CCC9C6;" width="54.821" height="126.437"/>
		<path style="fill:#4F888E;" d="M164.583,136.314c0.323-6.799,21.744-31.727,34.493-31.727c12.749,0,33.469,27.841,33.469,31.727
			C232.545,143.438,164.26,143.113,164.583,136.314z"/>
		
			<rect x="179.576" y="117.312" transform="matrix(0.848 0.53 -0.53 0.848 91.8855 -77.8451)" style="fill:#43797A;" width="4.174" height="7.93"/>
		
			<rect x="187.319" y="115.513" transform="matrix(0.848 0.53 -0.53 0.848 92.1094 -82.2222)" style="fill:#43797A;" width="4.174" height="7.93"/>
		
			<rect x="188.819" y="122.68" transform="matrix(0.848 0.53 -0.53 0.848 96.1357 -81.9279)" style="fill:#43797A;" width="4.174" height="7.93"/>
		<rect x="176.292" y="144.234" style="fill:#B2B1AD;" width="6.25" height="6.25"/>
		<rect x="184.831" y="144.234" style="fill:#B2B1AD;" width="6.25" height="6.25"/>
		<rect x="192.846" y="144.234" style="fill:#B2B1AD;" width="6.25" height="6.25"/>
	</g>
	<g>
		<rect x="251.245" y="15" style="fill:#43797A;" width="3.063" height="32.667"/>
		<path style="fill:#43797A;" d="M250,11.667c0,0,23-1.025,26,3.333s-0.398,6.371,2.425,8c4.908,2.833,20.772,2.333,20.772,2.333
			s-20.531,9-22.197,6s-16.114-4-24.224-1.667"/>
	</g>
	<rect x="212.03" y="94.999" style="fill:#E5E2DC;" width="84.666" height="161"/>
	<path style="fill:#69A8B1;" d="M201.883,94.999c0.5-10.5,33.583-48.999,53.272-48.999c19.689,0,51.689,42.998,51.689,48.999
		C306.845,106,201.383,105.499,201.883,94.999z"/>
	
		<rect x="220.073" y="68.981" transform="matrix(0.848 0.53 -0.53 0.848 73.1347 -106.8029)" style="fill:#43797A;" width="5.392" height="10.244"/>
	
		<rect x="230.075" y="66.658" transform="matrix(0.848 0.5299 -0.5299 0.848 73.4103 -112.4455)" style="fill:#43797A;" width="5.392" height="10.244"/>
	
		<rect x="232.013" y="75.916" transform="matrix(0.848 0.5299 -0.5299 0.848 78.6139 -112.0678)" style="fill:#43797A;" width="5.393" height="10.244"/>
	
		<rect x="240.078" y="64.351" transform="matrix(0.848 0.53 -0.53 0.848 73.72 -118.1073)" style="fill:#43797A;" width="5.392" height="10.244"/>
	
		<rect x="250.081" y="62.028" transform="matrix(0.848 0.53 -0.53 0.848 74.0063 -123.759)" style="fill:#43797A;" width="5.392" height="10.244"/>
	
		<rect x="252.018" y="71.287" transform="matrix(0.848 0.53 -0.53 0.848 79.2057 -123.3772)" style="fill:#43797A;" width="5.393" height="10.244"/>
	
		<rect x="237.015" y="55.113" transform="matrix(0.848 0.53 -0.53 0.848 68.3511 -117.8813)" style="fill:#43797A;" width="5.393" height="10.244"/>
	<rect x="219.397" y="108" style="fill:#B2B1AD;" width="9.311" height="24.599"/>
	<rect x="232.118" y="120.299" style="fill:#B2B1AD;" width="9.311" height="24.599"/>
	<rect x="244.058" y="108" style="fill:#B2B1AD;" width="9.311" height="24.599"/>
	<path style="fill:#DDB73D;" d="M238.515,196.555c-4.864,0-8.807,3.943-8.807,8.807V250h17.613v-44.639
		C247.321,200.498,243.378,196.555,238.515,196.555z"/>
	<g>
		<g>
			<rect x="297.85" y="93.386" style="fill:#539191;" width="3.063" height="32.667"/>
			<path style="fill:#539191;" d="M296.604,90.053c0,0,23-1.025,26,3.333c3,4.358-0.397,6.371,2.425,8
				c4.908,2.834,20.772,2.334,20.772,2.334s-20.531,9-22.197,6s-16.114-3.999-24.224-1.667"/>
		</g>
		<rect x="271.786" y="154.789" style="fill:#FFFCF4;" width="54.821" height="104.247"/>
		<path style="fill:#6FACBB;" d="M265.217,154.789c0.323-6.799,21.744-31.727,34.493-31.727c12.749,0,33.469,27.841,33.469,31.727
			C333.179,161.912,264.894,161.587,265.217,154.789z"/>
		
			<rect x="280.209" y="134.9" transform="matrix(0.848 0.53 -0.53 0.848 116.5027 -128.5056)" style="fill:#4F888E;" width="4.174" height="7.93"/>
		
			<rect x="287.952" y="133.102" transform="matrix(0.848 0.53 -0.53 0.848 116.7264 -132.8827)" style="fill:#4F888E;" width="4.174" height="7.93"/>
		
			<rect x="289.452" y="140.269" transform="matrix(0.848 0.53 -0.53 0.848 120.7528 -132.5884)" style="fill:#4F888E;" width="4.174" height="7.93"/>
		<rect x="276.926" y="164.25" style="fill:#B2B1AD;" width="6.25" height="6.25"/>
		<rect x="285.464" y="164.25" style="fill:#B2B1AD;" width="6.25" height="6.25"/>
		<rect x="293.479" y="164.25" style="fill:#B2B1AD;" width="6.25" height="6.25"/>
	</g>
</g>
<g id="Layer_2">
</g>
<g id="Layer_7_copy">
	<path style="fill:#FFF3C0;" d="M356.2,280.2c-5.6-21.6-106.2-30.2-106.2-30.2h-37.8c0,0,45.6,23.8,37.8,35s-109.8,23.2-154.6,54.4
		c-44.468,30.969-12.802,95.729-12.33,96.688C127.332,475.819,185.839,500,250,500c64.151,0,122.649-24.173,166.909-63.895
		c-0.4-0.191-138.322-66.337-147.109-87.905C261,326.601,361.8,301.8,356.2,280.2z"/>
	<path style="fill:#FEE150;" d="M224.938,257.227c0.023-0.409,0.062-0.814,0.062-1.228c0-11.781-9.551-21.333-21.333-21.333
		c-2.847,0-5.558,0.568-8.041,1.58c0.016-0.526,0.04-1.05,0.04-1.58c0-28.535-23.132-51.667-51.666-51.667
		c-11.996,0-23.028,4.1-31.797,10.959c-3.459-27.048-26.548-47.96-54.536-47.96c-17.877,0-33.756,8.535-43.802,21.747
		C4.892,193.508,0,221.181,0,250c0,73.913,32.084,140.323,83.075,186.093c-8.585-26.883-19.475-50.054-2.237-81.859
		C97,324.413,238.22,297.216,250,285C257.65,277.066,232.618,261.666,224.938,257.227z"/>
	<path style="fill:#FEE150;" d="M442,145.999c-27.988,0-51.077,20.912-54.536,47.959c-8.769-6.859-19.801-10.959-31.797-10.959
		c-28.535,0-51.666,23.132-51.666,51.667c0,0.53,0.024,1.054,0.04,1.58c-2.483-1.012-5.194-1.58-8.041-1.58
		c-11.782,0-21.333,9.552-21.333,21.333c0,8.496,4.979,15.811,12.165,19.241L250,324.413L287.666,395l128.674,41.612
		C467.668,390.826,500,324.194,500,250c0-28.49-4.777-55.862-13.555-81.373C476.448,154.915,460.27,145.999,442,145.999z"/>
</g>
<g id="Layer_5">
	<g>
		<g>
			<rect x="-7" y="307.035" style="fill:none;" width="500" height="104.965"/>
			<path style="fill:#6FACBB;" d="M77.358,355.096c0,10.529-5.76,14.309-11.16,14.309c-1.62,0-5.67-0.359-8.459-3.779
				c-2.52,3.42-6.12,3.779-7.74,3.779c-5.58,0-10.8-3.779-10.8-14.309v-40.949c0-4.499-0.99-6.209-3.15-6.93
				c-0.27-0.09-0.36-0.18-0.36-0.359c0-0.811,3.24-2.97,5.76-2.97c2.25,0,4.77,2.069,4.77,9.359v42.748c0,6.84,3.06,6.84,4.229,6.84
				c1.35,0,4.32,0,4.32-7.739v-44.099c0-1.71-0.36-2.25-0.36-2.88c0-0.9,1.08-1.53,2.34-1.53c2.97,0,5.04,1.8,5.04,3.96v45.448
				c0,6.84,2.88,6.84,4.23,6.84c1.17,0,4.319,0,4.319-6.84v-42.748c0-7.29,2.52-9.359,4.68-9.359c2.61,0,5.85,2.159,5.85,2.97
				c0,0.18-0.09,0.27-0.36,0.359c-2.34,0.721-3.15,2.431-3.15,6.93V355.096z"/>
			<path style="fill:#6FACBB;" d="M85.458,318.106c0-3.149,2.43-5.489,5.4-5.489c3.149,0,5.49,2.34,5.49,5.489
				c0,2.97-2.34,5.49-5.49,5.49C87.888,323.597,85.458,321.076,85.458,318.106z M92.928,359.325c0,0.81,0,4.14,2.34,4.14
				c3.6,0,5.22-5.76,6.03-9.72c1.08-5.489,5.939-1.26,5.22,1.62c-1.62,5.939-5.13,14.039-12.87,14.039
				c-4.77,0-7.56-3.869-7.56-8.459v-24.029c0-1.71-0.36-2.25-0.36-2.88c0-0.9,1.08-1.53,2.34-1.53c2.97,0,4.86,1.8,4.86,3.96
				V359.325z"/>
			<path style="fill:#6FACBB;" d="M119.477,374.175c-0.99-5.04-3.42-9.54-8.91-9.54l-1.26-4.949c6.3-1.801,13.05-7.38,13.05-16.38
				c0-3.06-1.62-5.76-5.13-5.76c-4.5,0-7.29,3.42-10.62,17.369c-1.26,5.13-5.49-0.09-5.04-2.34
				c2.25-11.789,5.22-20.969,15.659-20.969c7.56,0,11.97,5.489,11.97,12.419c0,7.56-5.13,13.59-11.52,16.47
				c3.419,1.89,5.85,4.319,7.379,8.279c3.51-3.689,6.75-8.369,8.64-15.029c0.54-1.89,1.26-2.7,2.16-2.7c1.44,0,3.15,1.98,3.15,3.69
				c0,0.09,0,0.54-0.09,0.899c-2.97,9.9-7.74,15.21-12.419,19.26c0.36,2.43,0.54,5.31,0.54,8.64c0,9.449-2.43,20.429-10.62,20.429
				c-5.04,0-8.64-4.59-8.64-10.35C107.777,384.254,113.357,379.664,119.477,374.175z M120.106,380.384
				c-3.51,3.24-6.03,6.84-6.03,12.96c0,2.79,0.9,4.95,2.34,4.95c3.42,0,3.78-8.64,3.78-13.5
				C120.196,383.534,120.196,382.004,120.106,380.384z"/>
			<path style="fill:#6FACBB;" d="M165.555,353.745c0.36-1.89,1.26-2.7,2.16-2.7c1.44,0,3.15,1.98,3.15,3.69
				c0,0.09,0,0.27-0.09,0.63c-1.53,5.939-5.129,14.039-12.869,14.039c-3.15,0-5.58-1.529-6.93-3.689
				c-1.8,2.07-4.32,3.689-7.74,3.689c-7.02,0-10.709-5.939-10.709-13.589c0-15.029,10.439-24.209,21.419-24.209
				c2.43,0,4.14,1.439,4.14,3.779c0,1.53-0.27,2.07-1.17,2.07c-0.81,0-1.71-0.18-2.61-0.18c-6.839,0-14.849,5.85-14.849,18.809
				c0,4.68,1.98,7.38,5.13,7.38c2.43,0,4.05-2.16,5.04-4.68v-13.859c0-1.71-0.36-2.25-0.36-2.88c0-0.9,1.08-1.53,2.34-1.53
				c2.97,0,4.86,1.8,4.86,3.96v14.85c0,1.979,0.9,4.14,3.06,4.14C163.125,363.465,164.745,357.705,165.555,353.745z"/>
			<path style="fill:#6FACBB;" d="M176.265,359.146c0-5.76,1.62-12.15,4.5-19.89h-6.84h-0.99c-0.09,3.51-0.63,11.34-2.25,16.56
				c-1.17,3.779-5.85,0.54-5.04-2.521c0.99-3.6,1.35-11.069,1.44-15.659c-2.25-1.26-3.87-3.149-3.87-5.76c0-2.52,2.16-4.14,4.5-4.14
				c2.16,0,4.68,1.08,5.67,4.77c2.97,0.36,3.87,0.36,4.77,0.36h4.68c1.08,0,4.68,2.97,4.32,5.04c0,1.08-4.05,11.699-4.05,20.699
				c0,2.52,1.17,4.859,3.6,4.859c4.14,0,5.67-5.76,6.48-9.72c0.36-1.89,1.26-2.7,2.16-2.7c1.44,0,3.15,1.98,3.15,3.69
				c0,0.27-0.09,0.45-0.09,0.63c-1.62,5.939-5.13,14.039-12.87,14.039C181.304,369.404,176.265,367.064,176.265,359.146z"/>
			<path style="fill:#6FACBB;" d="M192.015,354.915c0-13.77,8.37-21.779,18.179-23.129v-20.339c0-2.61-0.9-2.79-0.9-3.42
				s1.62-0.99,2.88-0.99c2.97,0,4.859,1.8,4.859,3.96v48.328c0,1.979,0.9,4.14,3.06,4.14c3.6,0,5.22-5.76,6.03-9.72
				c0.36-1.89,1.26-2.7,2.16-2.7c1.44,0,3.149,1.98,3.149,3.69c0,0.09,0,0.27-0.09,0.63c-1.53,5.939-5.13,14.039-12.869,14.039
				c-3.06,0-5.49-1.439-6.84-3.51c-1.98,1.98-4.59,3.51-8.01,3.51C196.604,369.404,192.015,364.365,192.015,354.915z
				 M210.194,359.955v-22.229c-5.85,1.08-11.25,5.311-11.25,16.56c0,6.479,2.88,9.18,6.03,9.18
				C207.314,363.465,209.024,361.935,210.194,359.955z"/>
			<path style="fill:#6FACBB;" d="M284.352,354.646c-1.08,4.859-4.77,8.909-10.89,8.909c-1.62,0-3.06-0.18-4.409-0.63
				c-2.25,3.87-5.67,6.479-10.8,6.479c-9.09,0-13.14-7.739-13.14-16.739c0-13.229,7.199-21.239,9.18-21.239
				c2.34,0,4.14,4.771,1.8,6.3c-1.44,2.16-4.14,5.49-4.14,14.399c0,7.561,2.97,11.34,6.479,11.34c2.52,0,4.14-1.35,5.31-3.42
				c-4.229-3.6-6.479-9.539-6.479-16.02c0-5.67,2.43-10.529,7.29-10.529c4.229,0,7.649,6.39,7.649,15.119
				c0,3.33-0.36,6.66-1.26,9.72c0.63,0.18,1.17,0.18,1.8,0.18c3.87,0,5.939-2.97,6.479-6.479
				C279.582,349.966,285.521,349.605,284.352,354.646z M265.452,354.195c0.181-1.44,0.271-2.79,0.271-4.14
				c0-6.12-0.271-10.62-2.16-10.62c-0.99,0-1.53,1.44-1.53,4.23C262.032,347.716,263.383,351.495,265.452,354.195z"/>
			<path style="fill:#6FACBB;" d="M286.063,340.516v1.98c8.19,9.989,13.41,20.699,13.41,35.548c0,15.029-4.771,25.919-11.97,25.919
				c-6.3,0-8.28-6.84-8.28-13.499v-48.418c-0.18-0.18-0.359-0.45-0.539-0.63c-1.44-1.44-2.79-2.521-2.79-3.96
				c0-0.9,0.63-1.98,2.069-2.16c0.271,0,0.721-0.09,1.26-0.09v-25.559c0-2.61-0.899-2.79-0.899-3.42s1.62-0.99,2.88-0.99
				c2.97,0,4.859,1.8,4.859,3.96v25.469c4.141-0.36,8.73-0.63,11.16-0.63c1.979,0,3.689,0.63,3.689,2.52
				c0,1.261-0.54,5.67-1.71,5.67c-0.54,0-0.359-0.899-2.79-1.08L286.063,340.516z M286.063,351.945v38.519
				c0,2.88,0.36,6.93,2.16,6.93c2.61,0,4.41-7.92,4.41-19.35C292.633,369.854,290.383,360.315,286.063,351.945z"/>
			<path style="fill:#6FACBB;" d="M352.03,372.914c-2.25,0-5.851-3.51-5.851-5.22c0-1.17,0.631-0.449,1.53-0.449
				c1.62,0,2.34-1.98,2.34-6.57v-14.129h-4.68c-1.89,0-3.24-2.61-3.24-4.5c0-0.99,0.45-1.8,1.351-1.8h6.569v-29.249
				c-12.6,0.81-21.329,5.31-21.329,19.439c0,6.21,2.79,9.899,5.13,12.239c0.99-0.27,1.35,0.36,1.35,1.26
				c0,2.34-2.249,5.31-4.319,5.31c-0.45,0-0.9-0.09-1.35-0.449c-2.61-1.891-7.92-8.82-7.92-18.359
				c0-17.279,11.159-26.549,32.759-26.549c4.949,0,18.539,0.18,20.429,0.18c1.8,0,2.25-0.72,2.521-0.72c0.63,0,1.26,1.619,1.26,2.97
				c0,2.16-1.351,4.77-4.14,4.77c-1.62,0-11.79-0.18-17.37-0.27v29.429h11.25c2.79-2.07,1.26,6.3-0.81,6.3h-10.44v15.299
				C357.069,369.765,355,372.914,352.03,372.914z"/>
			<path style="fill:#6FACBB;" d="M411.881,354.646c-1.08,4.859-4.771,8.909-10.89,8.909c-1.62,0-3.061-0.18-4.41-0.63
				c-2.25,3.87-5.67,6.479-10.8,6.479c-9.09,0-13.14-7.739-13.14-16.739c0-13.229,7.2-21.239,9.18-21.239
				c2.34,0,4.141,4.771,1.8,6.3c-1.439,2.16-4.14,5.49-4.14,14.399c0,7.561,2.97,11.34,6.48,11.34c2.52,0,4.14-1.35,5.31-3.42
				c-4.23-3.6-6.479-9.539-6.479-16.02c0-5.67,2.43-10.529,7.289-10.529c4.23,0,7.649,6.39,7.649,15.119
				c0,3.33-0.359,6.66-1.26,9.72c0.63,0.18,1.17,0.18,1.8,0.18c3.87,0,5.94-2.97,6.48-6.479
				C407.11,349.966,413.051,349.605,411.881,354.646z M392.981,354.195c0.18-1.44,0.27-2.79,0.27-4.14c0-6.12-0.27-10.62-2.16-10.62
				c-0.989,0-1.529,1.44-1.529,4.23C389.562,347.716,390.911,351.495,392.981,354.195z"/>
			<path style="fill:#6FACBB;" d="M406.751,336.916c0-1.71-0.359-2.25-0.359-2.88c0-0.9,1.08-1.53,2.34-1.53
				c2.97,0,4.859,1.8,4.859,3.96v4.05c2.431-5.04,5.67-8.909,10.08-8.909c6.029,0,7.47,4.949,7.47,9.09v18.629
				c0,0.81,0,4.14,2.34,4.14c3.6,0,5.22-5.76,6.029-9.72c0.36-1.89,1.261-2.7,2.16-2.7c1.44,0,3.15,1.98,3.15,3.69
				c0,0.09,0,0.27-0.091,0.63c-1.529,5.939-5.13,14.039-12.869,14.039c-4.77,0-7.56-3.869-7.56-8.459v-18.27
				c0-2.79-0.18-5.13-1.89-5.13c-2.61,0-8.19,7.739-8.82,14.85v13.14c0,1.71,0.091,3.869-2.52,3.869c-1.8,0-4.32-0.63-4.32-3.959
				V336.916z"/>
			<path style="fill:#6FACBB;" d="M439.24,324.856v-15.209c0-2.61-0.899-2.79-0.899-3.42s1.62-0.99,2.88-0.99
				c2.97,0,4.859,1.8,4.859,3.96v15.749c5.49,0,11.79-0.09,17.909-0.359c2.521-2.7,1.71,5.939-0.63,6.029
				c-7.199,0.18-12.509,0.18-17.279,0.18v28.529c0,2.88,1.17,4.14,3.061,4.14c3.6,0,5.22-5.76,6.029-9.72
				c0.36-1.89,1.26-2.7,2.16-2.7c1.439,0,3.149,1.98,3.149,3.69c0,0.09,0,0.27-0.09,0.63c-1.529,5.939-5.13,14.039-12.869,14.039
				c-4.86,0-8.28-2.88-8.28-9.989v-28.619c-3.959,0-6.209-0.18-6.209-0.18c-2.88,0-4.5-6.029-1.891-6.029
				C431.141,324.587,434.381,324.767,439.24,324.856z"/>
		</g>
		<g>
			<rect x="-7" y="306.035" style="fill:none;" width="500" height="104.965"/>
			<path style="fill:#6FACBB;" d="M77.358,354.096c0,10.529-5.76,14.309-11.16,14.309c-1.62,0-5.67-0.359-8.459-3.779
				c-2.52,3.42-6.12,3.779-7.74,3.779c-5.58,0-10.8-3.779-10.8-14.309v-40.949c0-4.499-0.99-6.209-3.15-6.93
				c-0.27-0.09-0.36-0.18-0.36-0.359c0-0.811,3.24-2.97,5.76-2.97c2.25,0,4.77,2.069,4.77,9.359v42.748c0,6.84,3.06,6.84,4.229,6.84
				c1.35,0,4.32,0,4.32-7.739v-44.099c0-1.71-0.36-2.25-0.36-2.88c0-0.9,1.08-1.53,2.34-1.53c2.97,0,5.04,1.8,5.04,3.96v45.448
				c0,6.84,2.88,6.84,4.23,6.84c1.17,0,4.319,0,4.319-6.84v-42.748c0-7.29,2.52-9.359,4.68-9.359c2.61,0,5.85,2.159,5.85,2.97
				c0,0.18-0.09,0.27-0.36,0.359c-2.34,0.721-3.15,2.431-3.15,6.93V354.096z"/>
			<path style="fill:#6FACBB;" d="M85.458,317.106c0-3.149,2.43-5.489,5.4-5.489c3.149,0,5.49,2.34,5.49,5.489
				c0,2.97-2.34,5.49-5.49,5.49C87.888,322.597,85.458,320.076,85.458,317.106z M92.928,358.325c0,0.81,0,4.14,2.34,4.14
				c3.6,0,5.22-5.76,6.03-9.72c1.08-5.489,5.939-1.26,5.22,1.62c-1.62,5.939-5.13,14.039-12.87,14.039
				c-4.77,0-7.56-3.869-7.56-8.459v-24.029c0-1.71-0.36-2.25-0.36-2.88c0-0.9,1.08-1.53,2.34-1.53c2.97,0,4.86,1.8,4.86,3.96
				V358.325z"/>
			<path style="fill:#6FACBB;" d="M119.477,373.175c-0.99-5.04-3.42-9.54-8.91-9.54l-1.26-4.949c6.3-1.801,13.05-7.38,13.05-16.38
				c0-3.06-1.62-5.76-5.13-5.76c-4.5,0-7.29,3.42-10.62,17.369c-1.26,5.13-5.49-0.09-5.04-2.34
				c2.25-11.789,5.22-20.969,15.659-20.969c7.56,0,11.97,5.489,11.97,12.419c0,7.56-5.13,13.59-11.52,16.47
				c3.419,1.89,5.85,4.319,7.379,8.279c3.51-3.689,6.75-8.369,8.64-15.029c0.54-1.89,1.26-2.7,2.16-2.7c1.44,0,3.15,1.98,3.15,3.69
				c0,0.09,0,0.54-0.09,0.899c-2.97,9.9-7.74,15.21-12.419,19.26c0.36,2.43,0.54,5.31,0.54,8.64c0,9.449-2.43,20.429-10.62,20.429
				c-5.04,0-8.64-4.59-8.64-10.35C107.777,383.254,113.357,378.664,119.477,373.175z M120.106,379.384
				c-3.51,3.24-6.03,6.84-6.03,12.96c0,2.79,0.9,4.95,2.34,4.95c3.42,0,3.78-8.64,3.78-13.5
				C120.196,382.534,120.196,381.004,120.106,379.384z"/>
			<path style="fill:#6FACBB;" d="M165.555,352.745c0.36-1.89,1.26-2.7,2.16-2.7c1.44,0,3.15,1.98,3.15,3.69
				c0,0.09,0,0.27-0.09,0.63c-1.53,5.939-5.129,14.039-12.869,14.039c-3.15,0-5.58-1.529-6.93-3.689
				c-1.8,2.07-4.32,3.689-7.74,3.689c-7.02,0-10.709-5.939-10.709-13.589c0-15.029,10.439-24.209,21.419-24.209
				c2.43,0,4.14,1.439,4.14,3.779c0,1.53-0.27,2.07-1.17,2.07c-0.81,0-1.71-0.18-2.61-0.18c-6.839,0-14.849,5.85-14.849,18.809
				c0,4.68,1.98,7.38,5.13,7.38c2.43,0,4.05-2.16,5.04-4.68v-13.859c0-1.71-0.36-2.25-0.36-2.88c0-0.9,1.08-1.53,2.34-1.53
				c2.97,0,4.86,1.8,4.86,3.96v14.85c0,1.979,0.9,4.14,3.06,4.14C163.125,362.465,164.745,356.705,165.555,352.745z"/>
			<path style="fill:#6FACBB;" d="M176.265,358.146c0-5.76,1.62-12.15,4.5-19.89h-6.84h-0.99c-0.09,3.51-0.63,11.34-2.25,16.56
				c-1.17,3.779-5.85,0.54-5.04-2.521c0.99-3.6,1.35-11.069,1.44-15.659c-2.25-1.26-3.87-3.149-3.87-5.76c0-2.52,2.16-4.14,4.5-4.14
				c2.16,0,4.68,1.08,5.67,4.77c2.97,0.36,3.87,0.36,4.77,0.36h4.68c1.08,0,4.68,2.97,4.32,5.04c0,1.08-4.05,11.699-4.05,20.699
				c0,2.52,1.17,4.859,3.6,4.859c4.14,0,5.67-5.76,6.48-9.72c0.36-1.89,1.26-2.7,2.16-2.7c1.44,0,3.15,1.98,3.15,3.69
				c0,0.27-0.09,0.45-0.09,0.63c-1.62,5.939-5.13,14.039-12.87,14.039C181.304,368.404,176.265,366.064,176.265,358.146z"/>
			<path style="fill:#6FACBB;" d="M192.015,353.915c0-13.77,8.37-21.779,18.179-23.129v-20.339c0-2.61-0.9-2.79-0.9-3.42
				s1.62-0.99,2.88-0.99c2.97,0,4.859,1.8,4.859,3.96v48.328c0,1.979,0.9,4.14,3.06,4.14c3.6,0,5.22-5.76,6.03-9.72
				c0.36-1.89,1.26-2.7,2.16-2.7c1.44,0,3.149,1.98,3.149,3.69c0,0.09,0,0.27-0.09,0.63c-1.53,5.939-5.13,14.039-12.869,14.039
				c-3.06,0-5.49-1.439-6.84-3.51c-1.98,1.98-4.59,3.51-8.01,3.51C196.604,368.404,192.015,363.365,192.015,353.915z
				 M210.194,358.955v-22.229c-5.85,1.08-11.25,5.311-11.25,16.56c0,6.479,2.88,9.18,6.03,9.18
				C207.314,362.465,209.024,360.935,210.194,358.955z"/>
			<path style="fill:#6FACBB;" d="M284.352,353.646c-1.08,4.859-4.77,8.909-10.89,8.909c-1.62,0-3.06-0.18-4.409-0.63
				c-2.25,3.87-5.67,6.479-10.8,6.479c-9.09,0-13.14-7.739-13.14-16.739c0-13.229,7.199-21.239,9.18-21.239
				c2.34,0,4.14,4.771,1.8,6.3c-1.44,2.16-4.14,5.49-4.14,14.399c0,7.561,2.97,11.34,6.479,11.34c2.52,0,4.14-1.35,5.31-3.42
				c-4.229-3.6-6.479-9.539-6.479-16.02c0-5.67,2.43-10.529,7.29-10.529c4.229,0,7.649,6.39,7.649,15.119
				c0,3.33-0.36,6.66-1.26,9.72c0.63,0.18,1.17,0.18,1.8,0.18c3.87,0,5.939-2.97,6.479-6.479
				C279.582,348.966,285.521,348.605,284.352,353.646z M265.452,353.195c0.181-1.44,0.271-2.79,0.271-4.14
				c0-6.12-0.271-10.62-2.16-10.62c-0.99,0-1.53,1.44-1.53,4.23C262.032,346.716,263.383,350.495,265.452,353.195z"/>
			<path style="fill:#6FACBB;" d="M286.063,339.516v1.98c8.19,9.989,13.41,20.699,13.41,35.548c0,15.029-4.771,25.919-11.97,25.919
				c-6.3,0-8.28-6.84-8.28-13.499v-48.418c-0.18-0.18-0.359-0.45-0.539-0.63c-1.44-1.44-2.79-2.521-2.79-3.96
				c0-0.9,0.63-1.98,2.069-2.16c0.271,0,0.721-0.09,1.26-0.09v-25.559c0-2.61-0.899-2.79-0.899-3.42s1.62-0.99,2.88-0.99
				c2.97,0,4.859,1.8,4.859,3.96v25.469c4.141-0.36,8.73-0.63,11.16-0.63c1.979,0,3.689,0.63,3.689,2.52
				c0,1.261-0.54,5.67-1.71,5.67c-0.54,0-0.359-0.899-2.79-1.08L286.063,339.516z M286.063,350.945v38.519
				c0,2.88,0.36,6.93,2.16,6.93c2.61,0,4.41-7.92,4.41-19.35C292.633,368.854,290.383,359.315,286.063,350.945z"/>
			<path style="fill:#6FACBB;" d="M352.03,371.914c-2.25,0-5.851-3.51-5.851-5.22c0-1.17,0.631-0.449,1.53-0.449
				c1.62,0,2.34-1.98,2.34-6.57v-14.129h-4.68c-1.89,0-3.24-2.61-3.24-4.5c0-0.99,0.45-1.8,1.351-1.8h6.569v-29.249
				c-12.6,0.81-21.329,5.31-21.329,19.439c0,6.21,2.79,9.899,5.13,12.239c0.99-0.27,1.35,0.36,1.35,1.26
				c0,2.34-2.249,5.31-4.319,5.31c-0.45,0-0.9-0.09-1.35-0.449c-2.61-1.891-7.92-8.82-7.92-18.359
				c0-17.279,11.159-26.549,32.759-26.549c4.949,0,18.539,0.18,20.429,0.18c1.8,0,2.25-0.72,2.521-0.72c0.63,0,1.26,1.619,1.26,2.97
				c0,2.16-1.351,4.77-4.14,4.77c-1.62,0-11.79-0.18-17.37-0.27v29.429h11.25c2.79-2.07,1.26,6.3-0.81,6.3h-10.44v15.299
				C357.069,368.765,355,371.914,352.03,371.914z"/>
			<path style="fill:#6FACBB;" d="M411.881,353.646c-1.08,4.859-4.771,8.909-10.89,8.909c-1.62,0-3.061-0.18-4.41-0.63
				c-2.25,3.87-5.67,6.479-10.8,6.479c-9.09,0-13.14-7.739-13.14-16.739c0-13.229,7.2-21.239,9.18-21.239
				c2.34,0,4.141,4.771,1.8,6.3c-1.439,2.16-4.14,5.49-4.14,14.399c0,7.561,2.97,11.34,6.48,11.34c2.52,0,4.14-1.35,5.31-3.42
				c-4.23-3.6-6.479-9.539-6.479-16.02c0-5.67,2.43-10.529,7.289-10.529c4.23,0,7.649,6.39,7.649,15.119
				c0,3.33-0.359,6.66-1.26,9.72c0.63,0.18,1.17,0.18,1.8,0.18c3.87,0,5.94-2.97,6.48-6.479
				C407.11,348.966,413.051,348.605,411.881,353.646z M392.981,353.195c0.18-1.44,0.27-2.79,0.27-4.14c0-6.12-0.27-10.62-2.16-10.62
				c-0.989,0-1.529,1.44-1.529,4.23C389.562,346.716,390.911,350.495,392.981,353.195z"/>
			<path style="fill:#6FACBB;" d="M406.751,335.916c0-1.71-0.359-2.25-0.359-2.88c0-0.9,1.08-1.53,2.34-1.53
				c2.97,0,4.859,1.8,4.859,3.96v4.05c2.431-5.04,5.67-8.909,10.08-8.909c6.029,0,7.47,4.949,7.47,9.09v18.629
				c0,0.81,0,4.14,2.34,4.14c3.6,0,5.22-5.76,6.029-9.72c0.36-1.89,1.261-2.7,2.16-2.7c1.44,0,3.15,1.98,3.15,3.69
				c0,0.09,0,0.27-0.091,0.63c-1.529,5.939-5.13,14.039-12.869,14.039c-4.77,0-7.56-3.869-7.56-8.459v-18.27
				c0-2.79-0.18-5.13-1.89-5.13c-2.61,0-8.19,7.739-8.82,14.85v13.14c0,1.71,0.091,3.869-2.52,3.869c-1.8,0-4.32-0.63-4.32-3.959
				V335.916z"/>
			<path style="fill:#6FACBB;" d="M439.24,323.856v-15.209c0-2.61-0.899-2.79-0.899-3.42s1.62-0.99,2.88-0.99
				c2.97,0,4.859,1.8,4.859,3.96v15.749c5.49,0,11.79-0.09,17.909-0.359c2.521-2.7,1.71,5.939-0.63,6.029
				c-7.199,0.18-12.509,0.18-17.279,0.18v28.529c0,2.88,1.17,4.14,3.061,4.14c3.6,0,5.22-5.76,6.029-9.72
				c0.36-1.89,1.26-2.7,2.16-2.7c1.439,0,3.149,1.98,3.149,3.69c0,0.09,0,0.27-0.09,0.63c-1.529,5.939-5.13,14.039-12.869,14.039
				c-4.86,0-8.28-2.88-8.28-9.989v-28.619c-3.959,0-6.209-0.18-6.209-0.18c-2.88,0-4.5-6.029-1.891-6.029
				C431.141,323.587,434.381,323.767,439.24,323.856z"/>
		</g>
		<g>
			<rect x="-7" y="304.035" style="fill:none;" width="500" height="104.965"/>
			<path style="fill:#6FACBB;" d="M77.358,352.096c0,10.529-5.76,14.309-11.16,14.309c-1.62,0-5.67-0.359-8.459-3.779
				c-2.52,3.42-6.12,3.779-7.74,3.779c-5.58,0-10.8-3.779-10.8-14.309v-40.949c0-4.499-0.99-6.209-3.15-6.93
				c-0.27-0.09-0.36-0.18-0.36-0.359c0-0.811,3.24-2.97,5.76-2.97c2.25,0,4.77,2.069,4.77,9.359v42.748c0,6.84,3.06,6.84,4.229,6.84
				c1.35,0,4.32,0,4.32-7.739v-44.099c0-1.71-0.36-2.25-0.36-2.88c0-0.9,1.08-1.53,2.34-1.53c2.97,0,5.04,1.8,5.04,3.96v45.448
				c0,6.84,2.88,6.84,4.23,6.84c1.17,0,4.319,0,4.319-6.84v-42.748c0-7.29,2.52-9.359,4.68-9.359c2.61,0,5.85,2.159,5.85,2.97
				c0,0.18-0.09,0.27-0.36,0.359c-2.34,0.721-3.15,2.431-3.15,6.93V352.096z"/>
			<path style="fill:#6FACBB;" d="M85.458,315.106c0-3.149,2.43-5.489,5.4-5.489c3.149,0,5.49,2.34,5.49,5.489
				c0,2.97-2.34,5.49-5.49,5.49C87.888,320.597,85.458,318.076,85.458,315.106z M92.928,356.325c0,0.81,0,4.14,2.34,4.14
				c3.6,0,5.22-5.76,6.03-9.72c1.08-5.489,5.939-1.26,5.22,1.62c-1.62,5.939-5.13,14.039-12.87,14.039
				c-4.77,0-7.56-3.869-7.56-8.459v-24.029c0-1.71-0.36-2.25-0.36-2.88c0-0.9,1.08-1.53,2.34-1.53c2.97,0,4.86,1.8,4.86,3.96
				V356.325z"/>
			<path style="fill:#6FACBB;" d="M119.477,371.175c-0.99-5.04-3.42-9.54-8.91-9.54l-1.26-4.949c6.3-1.801,13.05-7.38,13.05-16.38
				c0-3.06-1.62-5.76-5.13-5.76c-4.5,0-7.29,3.42-10.62,17.369c-1.26,5.13-5.49-0.09-5.04-2.34
				c2.25-11.789,5.22-20.969,15.659-20.969c7.56,0,11.97,5.489,11.97,12.419c0,7.56-5.13,13.59-11.52,16.47
				c3.419,1.89,5.85,4.319,7.379,8.279c3.51-3.689,6.75-8.369,8.64-15.029c0.54-1.89,1.26-2.7,2.16-2.7c1.44,0,3.15,1.98,3.15,3.69
				c0,0.09,0,0.54-0.09,0.899c-2.97,9.9-7.74,15.21-12.419,19.26c0.36,2.43,0.54,5.31,0.54,8.64c0,9.449-2.43,20.429-10.62,20.429
				c-5.04,0-8.64-4.59-8.64-10.35C107.777,381.254,113.357,376.664,119.477,371.175z M120.106,377.384
				c-3.51,3.24-6.03,6.84-6.03,12.96c0,2.79,0.9,4.95,2.34,4.95c3.42,0,3.78-8.64,3.78-13.5
				C120.196,380.534,120.196,379.004,120.106,377.384z"/>
			<path style="fill:#6FACBB;" d="M165.555,350.745c0.36-1.89,1.26-2.7,2.16-2.7c1.44,0,3.15,1.98,3.15,3.69
				c0,0.09,0,0.27-0.09,0.63c-1.53,5.939-5.129,14.039-12.869,14.039c-3.15,0-5.58-1.529-6.93-3.689
				c-1.8,2.07-4.32,3.689-7.74,3.689c-7.02,0-10.709-5.939-10.709-13.589c0-15.029,10.439-24.209,21.419-24.209
				c2.43,0,4.14,1.439,4.14,3.779c0,1.53-0.27,2.07-1.17,2.07c-0.81,0-1.71-0.18-2.61-0.18c-6.839,0-14.849,5.85-14.849,18.809
				c0,4.68,1.98,7.38,5.13,7.38c2.43,0,4.05-2.16,5.04-4.68v-13.859c0-1.71-0.36-2.25-0.36-2.88c0-0.9,1.08-1.53,2.34-1.53
				c2.97,0,4.86,1.8,4.86,3.96v14.85c0,1.979,0.9,4.14,3.06,4.14C163.125,360.465,164.745,354.705,165.555,350.745z"/>
			<path style="fill:#6FACBB;" d="M176.265,356.146c0-5.76,1.62-12.15,4.5-19.89h-6.84h-0.99c-0.09,3.51-0.63,11.34-2.25,16.56
				c-1.17,3.779-5.85,0.54-5.04-2.521c0.99-3.6,1.35-11.069,1.44-15.659c-2.25-1.26-3.87-3.149-3.87-5.76c0-2.52,2.16-4.14,4.5-4.14
				c2.16,0,4.68,1.08,5.67,4.77c2.97,0.36,3.87,0.36,4.77,0.36h4.68c1.08,0,4.68,2.97,4.32,5.04c0,1.08-4.05,11.699-4.05,20.699
				c0,2.52,1.17,4.859,3.6,4.859c4.14,0,5.67-5.76,6.48-9.72c0.36-1.89,1.26-2.7,2.16-2.7c1.44,0,3.15,1.98,3.15,3.69
				c0,0.27-0.09,0.45-0.09,0.63c-1.62,5.939-5.13,14.039-12.87,14.039C181.304,366.404,176.265,364.064,176.265,356.146z"/>
			<path style="fill:#6FACBB;" d="M192.015,351.915c0-13.77,8.37-21.779,18.179-23.129v-20.339c0-2.61-0.9-2.79-0.9-3.42
				s1.62-0.99,2.88-0.99c2.97,0,4.859,1.8,4.859,3.96v48.328c0,1.979,0.9,4.14,3.06,4.14c3.6,0,5.22-5.76,6.03-9.72
				c0.36-1.89,1.26-2.7,2.16-2.7c1.44,0,3.149,1.98,3.149,3.69c0,0.09,0,0.27-0.09,0.63c-1.53,5.939-5.13,14.039-12.869,14.039
				c-3.06,0-5.49-1.439-6.84-3.51c-1.98,1.98-4.59,3.51-8.01,3.51C196.604,366.404,192.015,361.365,192.015,351.915z
				 M210.194,356.955v-22.229c-5.85,1.08-11.25,5.311-11.25,16.56c0,6.479,2.88,9.18,6.03,9.18
				C207.314,360.465,209.024,358.935,210.194,356.955z"/>
			<path style="fill:#6FACBB;" d="M284.352,351.646c-1.08,4.859-4.77,8.909-10.89,8.909c-1.62,0-3.06-0.18-4.409-0.63
				c-2.25,3.87-5.67,6.479-10.8,6.479c-9.09,0-13.14-7.739-13.14-16.739c0-13.229,7.199-21.239,9.18-21.239
				c2.34,0,4.14,4.771,1.8,6.3c-1.44,2.16-4.14,5.49-4.14,14.399c0,7.561,2.97,11.34,6.479,11.34c2.52,0,4.14-1.35,5.31-3.42
				c-4.229-3.6-6.479-9.539-6.479-16.02c0-5.67,2.43-10.529,7.29-10.529c4.229,0,7.649,6.39,7.649,15.119
				c0,3.33-0.36,6.66-1.26,9.72c0.63,0.18,1.17,0.18,1.8,0.18c3.87,0,5.939-2.97,6.479-6.479
				C279.582,346.966,285.521,346.605,284.352,351.646z M265.452,351.195c0.181-1.44,0.271-2.79,0.271-4.14
				c0-6.12-0.271-10.62-2.16-10.62c-0.99,0-1.53,1.44-1.53,4.23C262.032,344.716,263.383,348.495,265.452,351.195z"/>
			<path style="fill:#6FACBB;" d="M286.063,337.516v1.98c8.19,9.989,13.41,20.699,13.41,35.548c0,15.029-4.771,25.919-11.97,25.919
				c-6.3,0-8.28-6.84-8.28-13.499v-48.418c-0.18-0.18-0.359-0.45-0.539-0.63c-1.44-1.44-2.79-2.521-2.79-3.96
				c0-0.9,0.63-1.98,2.069-2.16c0.271,0,0.721-0.09,1.26-0.09v-25.559c0-2.61-0.899-2.79-0.899-3.42s1.62-0.99,2.88-0.99
				c2.97,0,4.859,1.8,4.859,3.96v25.469c4.141-0.36,8.73-0.63,11.16-0.63c1.979,0,3.689,0.63,3.689,2.52
				c0,1.261-0.54,5.67-1.71,5.67c-0.54,0-0.359-0.899-2.79-1.08L286.063,337.516z M286.063,348.945v38.519
				c0,2.88,0.36,6.93,2.16,6.93c2.61,0,4.41-7.92,4.41-19.35C292.633,366.854,290.383,357.315,286.063,348.945z"/>
			<path style="fill:#6FACBB;" d="M352.03,369.914c-2.25,0-5.851-3.51-5.851-5.22c0-1.17,0.631-0.449,1.53-0.449
				c1.62,0,2.34-1.98,2.34-6.57v-14.129h-4.68c-1.89,0-3.24-2.61-3.24-4.5c0-0.99,0.45-1.8,1.351-1.8h6.569v-29.249
				c-12.6,0.81-21.329,5.31-21.329,19.439c0,6.21,2.79,9.899,5.13,12.239c0.99-0.27,1.35,0.36,1.35,1.26
				c0,2.34-2.249,5.31-4.319,5.31c-0.45,0-0.9-0.09-1.35-0.449c-2.61-1.891-7.92-8.82-7.92-18.359
				c0-17.279,11.159-26.549,32.759-26.549c4.949,0,18.539,0.18,20.429,0.18c1.8,0,2.25-0.72,2.521-0.72c0.63,0,1.26,1.619,1.26,2.97
				c0,2.16-1.351,4.77-4.14,4.77c-1.62,0-11.79-0.18-17.37-0.27v29.429h11.25c2.79-2.07,1.26,6.3-0.81,6.3h-10.44v15.299
				C357.069,366.765,355,369.914,352.03,369.914z"/>
			<path style="fill:#6FACBB;" d="M411.881,351.646c-1.08,4.859-4.771,8.909-10.89,8.909c-1.62,0-3.061-0.18-4.41-0.63
				c-2.25,3.87-5.67,6.479-10.8,6.479c-9.09,0-13.14-7.739-13.14-16.739c0-13.229,7.2-21.239,9.18-21.239
				c2.34,0,4.141,4.771,1.8,6.3c-1.439,2.16-4.14,5.49-4.14,14.399c0,7.561,2.97,11.34,6.48,11.34c2.52,0,4.14-1.35,5.31-3.42
				c-4.23-3.6-6.479-9.539-6.479-16.02c0-5.67,2.43-10.529,7.289-10.529c4.23,0,7.649,6.39,7.649,15.119
				c0,3.33-0.359,6.66-1.26,9.72c0.63,0.18,1.17,0.18,1.8,0.18c3.87,0,5.94-2.97,6.48-6.479
				C407.11,346.966,413.051,346.605,411.881,351.646z M392.981,351.195c0.18-1.44,0.27-2.79,0.27-4.14c0-6.12-0.27-10.62-2.16-10.62
				c-0.989,0-1.529,1.44-1.529,4.23C389.562,344.716,390.911,348.495,392.981,351.195z"/>
			<path style="fill:#6FACBB;" d="M406.751,333.916c0-1.71-0.359-2.25-0.359-2.88c0-0.9,1.08-1.53,2.34-1.53
				c2.97,0,4.859,1.8,4.859,3.96v4.05c2.431-5.04,5.67-8.909,10.08-8.909c6.029,0,7.47,4.949,7.47,9.09v18.629
				c0,0.81,0,4.14,2.34,4.14c3.6,0,5.22-5.76,6.029-9.72c0.36-1.89,1.261-2.7,2.16-2.7c1.44,0,3.15,1.98,3.15,3.69
				c0,0.09,0,0.27-0.091,0.63c-1.529,5.939-5.13,14.039-12.869,14.039c-4.77,0-7.56-3.869-7.56-8.459v-18.27
				c0-2.79-0.18-5.13-1.89-5.13c-2.61,0-8.19,7.739-8.82,14.85v13.14c0,1.71,0.091,3.869-2.52,3.869c-1.8,0-4.32-0.63-4.32-3.959
				V333.916z"/>
			<path style="fill:#6FACBB;" d="M439.24,321.856v-15.209c0-2.61-0.899-2.79-0.899-3.42s1.62-0.99,2.88-0.99
				c2.97,0,4.859,1.8,4.859,3.96v15.749c5.49,0,11.79-0.09,17.909-0.359c2.521-2.7,1.71,5.939-0.63,6.029
				c-7.199,0.18-12.509,0.18-17.279,0.18v28.529c0,2.88,1.17,4.14,3.061,4.14c3.6,0,5.22-5.76,6.029-9.72
				c0.36-1.89,1.26-2.7,2.16-2.7c1.439,0,3.149,1.98,3.149,3.69c0,0.09,0,0.27-0.09,0.63c-1.529,5.939-5.13,14.039-12.869,14.039
				c-4.86,0-8.28-2.88-8.28-9.989v-28.619c-3.959,0-6.209-0.18-6.209-0.18c-2.88,0-4.5-6.029-1.891-6.029
				C431.141,321.587,434.381,321.767,439.24,321.856z"/>
		</g>
		<g>
			<rect x="-7" y="301.035" style="fill:none;" width="500" height="104.965"/>
			<path style="fill:#6FACBB;" d="M77.358,349.096c0,10.529-5.76,14.309-11.16,14.309c-1.62,0-5.67-0.359-8.459-3.779
				c-2.52,3.42-6.12,3.779-7.74,3.779c-5.58,0-10.8-3.779-10.8-14.309v-40.949c0-4.499-0.99-6.209-3.15-6.93
				c-0.27-0.09-0.36-0.18-0.36-0.359c0-0.811,3.24-2.97,5.76-2.97c2.25,0,4.77,2.069,4.77,9.359v42.748c0,6.84,3.06,6.84,4.229,6.84
				c1.35,0,4.32,0,4.32-7.739v-44.099c0-1.71-0.36-2.25-0.36-2.88c0-0.9,1.08-1.53,2.34-1.53c2.97,0,5.04,1.8,5.04,3.96v45.448
				c0,6.84,2.88,6.84,4.23,6.84c1.17,0,4.319,0,4.319-6.84v-42.748c0-7.29,2.52-9.359,4.68-9.359c2.61,0,5.85,2.159,5.85,2.97
				c0,0.18-0.09,0.27-0.36,0.359c-2.34,0.721-3.15,2.431-3.15,6.93V349.096z"/>
			<path style="fill:#6FACBB;" d="M85.458,312.106c0-3.149,2.43-5.489,5.4-5.489c3.149,0,5.49,2.34,5.49,5.489
				c0,2.97-2.34,5.49-5.49,5.49C87.888,317.597,85.458,315.076,85.458,312.106z M92.928,353.325c0,0.81,0,4.14,2.34,4.14
				c3.6,0,5.22-5.76,6.03-9.72c1.08-5.489,5.939-1.26,5.22,1.62c-1.62,5.939-5.13,14.039-12.87,14.039
				c-4.77,0-7.56-3.869-7.56-8.459v-24.029c0-1.71-0.36-2.25-0.36-2.88c0-0.9,1.08-1.53,2.34-1.53c2.97,0,4.86,1.8,4.86,3.96
				V353.325z"/>
			<path style="fill:#6FACBB;" d="M119.477,368.175c-0.99-5.04-3.42-9.54-8.91-9.54l-1.26-4.949c6.3-1.801,13.05-7.38,13.05-16.38
				c0-3.06-1.62-5.76-5.13-5.76c-4.5,0-7.29,3.42-10.62,17.369c-1.26,5.13-5.49-0.09-5.04-2.34
				c2.25-11.789,5.22-20.969,15.659-20.969c7.56,0,11.97,5.489,11.97,12.419c0,7.56-5.13,13.59-11.52,16.47
				c3.419,1.89,5.85,4.319,7.379,8.279c3.51-3.689,6.75-8.369,8.64-15.029c0.54-1.89,1.26-2.7,2.16-2.7c1.44,0,3.15,1.98,3.15,3.69
				c0,0.09,0,0.54-0.09,0.899c-2.97,9.9-7.74,15.21-12.419,19.26c0.36,2.43,0.54,5.31,0.54,8.64c0,9.449-2.43,20.429-10.62,20.429
				c-5.04,0-8.64-4.59-8.64-10.35C107.777,378.254,113.357,373.664,119.477,368.175z M120.106,374.384
				c-3.51,3.24-6.03,6.84-6.03,12.96c0,2.79,0.9,4.95,2.34,4.95c3.42,0,3.78-8.64,3.78-13.5
				C120.196,377.534,120.196,376.004,120.106,374.384z"/>
			<path style="fill:#6FACBB;" d="M165.555,347.745c0.36-1.89,1.26-2.7,2.16-2.7c1.44,0,3.15,1.98,3.15,3.69
				c0,0.09,0,0.27-0.09,0.63c-1.53,5.939-5.129,14.039-12.869,14.039c-3.15,0-5.58-1.529-6.93-3.689
				c-1.8,2.07-4.32,3.689-7.74,3.689c-7.02,0-10.709-5.939-10.709-13.589c0-15.029,10.439-24.209,21.419-24.209
				c2.43,0,4.14,1.439,4.14,3.779c0,1.53-0.27,2.07-1.17,2.07c-0.81,0-1.71-0.18-2.61-0.18c-6.839,0-14.849,5.85-14.849,18.809
				c0,4.68,1.98,7.38,5.13,7.38c2.43,0,4.05-2.16,5.04-4.68v-13.859c0-1.71-0.36-2.25-0.36-2.88c0-0.9,1.08-1.53,2.34-1.53
				c2.97,0,4.86,1.8,4.86,3.96v14.85c0,1.979,0.9,4.14,3.06,4.14C163.125,357.465,164.745,351.705,165.555,347.745z"/>
			<path style="fill:#6FACBB;" d="M176.265,353.146c0-5.76,1.62-12.15,4.5-19.89h-6.84h-0.99c-0.09,3.51-0.63,11.34-2.25,16.56
				c-1.17,3.779-5.85,0.54-5.04-2.521c0.99-3.6,1.35-11.069,1.44-15.659c-2.25-1.26-3.87-3.149-3.87-5.76c0-2.52,2.16-4.14,4.5-4.14
				c2.16,0,4.68,1.08,5.67,4.77c2.97,0.36,3.87,0.36,4.77,0.36h4.68c1.08,0,4.68,2.97,4.32,5.04c0,1.08-4.05,11.699-4.05,20.699
				c0,2.52,1.17,4.859,3.6,4.859c4.14,0,5.67-5.76,6.48-9.72c0.36-1.89,1.26-2.7,2.16-2.7c1.44,0,3.15,1.98,3.15,3.69
				c0,0.27-0.09,0.45-0.09,0.63c-1.62,5.939-5.13,14.039-12.87,14.039C181.304,363.404,176.265,361.064,176.265,353.146z"/>
			<path style="fill:#6FACBB;" d="M192.015,348.915c0-13.77,8.37-21.779,18.179-23.129v-20.339c0-2.61-0.9-2.79-0.9-3.42
				s1.62-0.99,2.88-0.99c2.97,0,4.859,1.8,4.859,3.96v48.328c0,1.979,0.9,4.14,3.06,4.14c3.6,0,5.22-5.76,6.03-9.72
				c0.36-1.89,1.26-2.7,2.16-2.7c1.44,0,3.149,1.98,3.149,3.69c0,0.09,0,0.27-0.09,0.63c-1.53,5.939-5.13,14.039-12.869,14.039
				c-3.06,0-5.49-1.439-6.84-3.51c-1.98,1.98-4.59,3.51-8.01,3.51C196.604,363.404,192.015,358.365,192.015,348.915z
				 M210.194,353.955v-22.229c-5.85,1.08-11.25,5.311-11.25,16.56c0,6.479,2.88,9.18,6.03,9.18
				C207.314,357.465,209.024,355.935,210.194,353.955z"/>
			<path style="fill:#6FACBB;" d="M284.352,348.646c-1.08,4.859-4.77,8.909-10.89,8.909c-1.62,0-3.06-0.18-4.409-0.63
				c-2.25,3.87-5.67,6.479-10.8,6.479c-9.09,0-13.14-7.739-13.14-16.739c0-13.229,7.199-21.239,9.18-21.239
				c2.34,0,4.14,4.771,1.8,6.3c-1.44,2.16-4.14,5.49-4.14,14.399c0,7.561,2.97,11.34,6.479,11.34c2.52,0,4.14-1.35,5.31-3.42
				c-4.229-3.6-6.479-9.539-6.479-16.02c0-5.67,2.43-10.529,7.29-10.529c4.229,0,7.649,6.39,7.649,15.119
				c0,3.33-0.36,6.66-1.26,9.72c0.63,0.18,1.17,0.18,1.8,0.18c3.87,0,5.939-2.97,6.479-6.479
				C279.582,343.966,285.521,343.605,284.352,348.646z M265.452,348.195c0.181-1.44,0.271-2.79,0.271-4.14
				c0-6.12-0.271-10.62-2.16-10.62c-0.99,0-1.53,1.44-1.53,4.23C262.032,341.716,263.383,345.495,265.452,348.195z"/>
			<path style="fill:#6FACBB;" d="M286.063,334.516v1.98c8.19,9.989,13.41,20.699,13.41,35.548c0,15.029-4.771,25.919-11.97,25.919
				c-6.3,0-8.28-6.84-8.28-13.499v-48.418c-0.18-0.18-0.359-0.45-0.539-0.63c-1.44-1.44-2.79-2.521-2.79-3.96
				c0-0.9,0.63-1.98,2.069-2.16c0.271,0,0.721-0.09,1.26-0.09v-25.559c0-2.61-0.899-2.79-0.899-3.42s1.62-0.99,2.88-0.99
				c2.97,0,4.859,1.8,4.859,3.96v25.469c4.141-0.36,8.73-0.63,11.16-0.63c1.979,0,3.689,0.63,3.689,2.52
				c0,1.261-0.54,5.67-1.71,5.67c-0.54,0-0.359-0.899-2.79-1.08L286.063,334.516z M286.063,345.945v38.519
				c0,2.88,0.36,6.93,2.16,6.93c2.61,0,4.41-7.92,4.41-19.35C292.633,363.854,290.383,354.315,286.063,345.945z"/>
			<path style="fill:#6FACBB;" d="M352.03,366.914c-2.25,0-5.851-3.51-5.851-5.22c0-1.17,0.631-0.449,1.53-0.449
				c1.62,0,2.34-1.98,2.34-6.57v-14.129h-4.68c-1.89,0-3.24-2.61-3.24-4.5c0-0.99,0.45-1.8,1.351-1.8h6.569v-29.249
				c-12.6,0.81-21.329,5.31-21.329,19.439c0,6.21,2.79,9.899,5.13,12.239c0.99-0.27,1.35,0.36,1.35,1.26
				c0,2.34-2.249,5.31-4.319,5.31c-0.45,0-0.9-0.09-1.35-0.449c-2.61-1.891-7.92-8.82-7.92-18.359
				c0-17.279,11.159-26.549,32.759-26.549c4.949,0,18.539,0.18,20.429,0.18c1.8,0,2.25-0.72,2.521-0.72c0.63,0,1.26,1.619,1.26,2.97
				c0,2.16-1.351,4.77-4.14,4.77c-1.62,0-11.79-0.18-17.37-0.27v29.429h11.25c2.79-2.07,1.26,6.3-0.81,6.3h-10.44v15.299
				C357.069,363.765,355,366.914,352.03,366.914z"/>
			<path style="fill:#6FACBB;" d="M411.881,348.646c-1.08,4.859-4.771,8.909-10.89,8.909c-1.62,0-3.061-0.18-4.41-0.63
				c-2.25,3.87-5.67,6.479-10.8,6.479c-9.09,0-13.14-7.739-13.14-16.739c0-13.229,7.2-21.239,9.18-21.239
				c2.34,0,4.141,4.771,1.8,6.3c-1.439,2.16-4.14,5.49-4.14,14.399c0,7.561,2.97,11.34,6.48,11.34c2.52,0,4.14-1.35,5.31-3.42
				c-4.23-3.6-6.479-9.539-6.479-16.02c0-5.67,2.43-10.529,7.289-10.529c4.23,0,7.649,6.39,7.649,15.119
				c0,3.33-0.359,6.66-1.26,9.72c0.63,0.18,1.17,0.18,1.8,0.18c3.87,0,5.94-2.97,6.48-6.479
				C407.11,343.966,413.051,343.605,411.881,348.646z M392.981,348.195c0.18-1.44,0.27-2.79,0.27-4.14c0-6.12-0.27-10.62-2.16-10.62
				c-0.989,0-1.529,1.44-1.529,4.23C389.562,341.716,390.911,345.495,392.981,348.195z"/>
			<path style="fill:#6FACBB;" d="M406.751,330.916c0-1.71-0.359-2.25-0.359-2.88c0-0.9,1.08-1.53,2.34-1.53
				c2.97,0,4.859,1.8,4.859,3.96v4.05c2.431-5.04,5.67-8.909,10.08-8.909c6.029,0,7.47,4.949,7.47,9.09v18.629
				c0,0.81,0,4.14,2.34,4.14c3.6,0,5.22-5.76,6.029-9.72c0.36-1.89,1.261-2.7,2.16-2.7c1.44,0,3.15,1.98,3.15,3.69
				c0,0.09,0,0.27-0.091,0.63c-1.529,5.939-5.13,14.039-12.869,14.039c-4.77,0-7.56-3.869-7.56-8.459v-18.27
				c0-2.79-0.18-5.13-1.89-5.13c-2.61,0-8.19,7.739-8.82,14.85v13.14c0,1.71,0.091,3.869-2.52,3.869c-1.8,0-4.32-0.63-4.32-3.959
				V330.916z"/>
			<path style="fill:#6FACBB;" d="M439.24,318.856v-15.209c0-2.61-0.899-2.79-0.899-3.42s1.62-0.99,2.88-0.99
				c2.97,0,4.859,1.8,4.859,3.96v15.749c5.49,0,11.79-0.09,17.909-0.359c2.521-2.7,1.71,5.939-0.63,6.029
				c-7.199,0.18-12.509,0.18-17.279,0.18v28.529c0,2.88,1.17,4.14,3.061,4.14c3.6,0,5.22-5.76,6.029-9.72
				c0.36-1.89,1.26-2.7,2.16-2.7c1.439,0,3.149,1.98,3.149,3.69c0,0.09,0,0.27-0.09,0.63c-1.529,5.939-5.13,14.039-12.869,14.039
				c-4.86,0-8.28-2.88-8.28-9.989v-28.619c-3.959,0-6.209-0.18-6.209-0.18c-2.88,0-4.5-6.029-1.891-6.029
				C431.141,318.587,434.381,318.767,439.24,318.856z"/>
		</g>
		<g>
			<rect x="-7" y="298.035" style="fill:none;" width="500" height="104.965"/>
			<path style="fill:#6FACBB;" d="M77.358,346.096c0,10.529-5.76,14.309-11.16,14.309c-1.62,0-5.67-0.359-8.459-3.779
				c-2.52,3.42-6.12,3.779-7.74,3.779c-5.58,0-10.8-3.779-10.8-14.309v-40.949c0-4.499-0.99-6.209-3.15-6.93
				c-0.27-0.09-0.36-0.18-0.36-0.359c0-0.811,3.24-2.97,5.76-2.97c2.25,0,4.77,2.069,4.77,9.359v42.748c0,6.84,3.06,6.84,4.229,6.84
				c1.35,0,4.32,0,4.32-7.739v-44.099c0-1.71-0.36-2.25-0.36-2.88c0-0.9,1.08-1.53,2.34-1.53c2.97,0,5.04,1.8,5.04,3.96v45.448
				c0,6.84,2.88,6.84,4.23,6.84c1.17,0,4.319,0,4.319-6.84v-42.748c0-7.29,2.52-9.359,4.68-9.359c2.61,0,5.85,2.159,5.85,2.97
				c0,0.18-0.09,0.27-0.36,0.359c-2.34,0.721-3.15,2.431-3.15,6.93V346.096z"/>
			<path style="fill:#6FACBB;" d="M85.458,309.106c0-3.149,2.43-5.489,5.4-5.489c3.149,0,5.49,2.34,5.49,5.489
				c0,2.97-2.34,5.49-5.49,5.49C87.888,314.597,85.458,312.076,85.458,309.106z M92.928,350.325c0,0.81,0,4.14,2.34,4.14
				c3.6,0,5.22-5.76,6.03-9.72c1.08-5.489,5.939-1.26,5.22,1.62c-1.62,5.939-5.13,14.039-12.87,14.039
				c-4.77,0-7.56-3.869-7.56-8.459v-24.029c0-1.71-0.36-2.25-0.36-2.88c0-0.9,1.08-1.53,2.34-1.53c2.97,0,4.86,1.8,4.86,3.96
				V350.325z"/>
			<path style="fill:#6FACBB;" d="M119.477,365.175c-0.99-5.04-3.42-9.54-8.91-9.54l-1.26-4.949c6.3-1.801,13.05-7.38,13.05-16.38
				c0-3.06-1.62-5.76-5.13-5.76c-4.5,0-7.29,3.42-10.62,17.369c-1.26,5.13-5.49-0.09-5.04-2.34
				c2.25-11.789,5.22-20.969,15.659-20.969c7.56,0,11.97,5.489,11.97,12.419c0,7.56-5.13,13.59-11.52,16.47
				c3.419,1.89,5.85,4.319,7.379,8.279c3.51-3.689,6.75-8.369,8.64-15.029c0.54-1.89,1.26-2.7,2.16-2.7c1.44,0,3.15,1.98,3.15,3.69
				c0,0.09,0,0.54-0.09,0.899c-2.97,9.9-7.74,15.21-12.419,19.26c0.36,2.43,0.54,5.31,0.54,8.64c0,9.449-2.43,20.429-10.62,20.429
				c-5.04,0-8.64-4.59-8.64-10.35C107.777,375.254,113.357,370.664,119.477,365.175z M120.106,371.384
				c-3.51,3.24-6.03,6.84-6.03,12.96c0,2.79,0.9,4.95,2.34,4.95c3.42,0,3.78-8.64,3.78-13.5
				C120.196,374.534,120.196,373.004,120.106,371.384z"/>
			<path style="fill:#6FACBB;" d="M165.555,344.745c0.36-1.89,1.26-2.7,2.16-2.7c1.44,0,3.15,1.98,3.15,3.69
				c0,0.09,0,0.27-0.09,0.63c-1.53,5.939-5.129,14.039-12.869,14.039c-3.15,0-5.58-1.529-6.93-3.689
				c-1.8,2.07-4.32,3.689-7.74,3.689c-7.02,0-10.709-5.939-10.709-13.589c0-15.029,10.439-24.209,21.419-24.209
				c2.43,0,4.14,1.439,4.14,3.779c0,1.53-0.27,2.07-1.17,2.07c-0.81,0-1.71-0.18-2.61-0.18c-6.839,0-14.849,5.85-14.849,18.809
				c0,4.68,1.98,7.38,5.13,7.38c2.43,0,4.05-2.16,5.04-4.68v-13.859c0-1.71-0.36-2.25-0.36-2.88c0-0.9,1.08-1.53,2.34-1.53
				c2.97,0,4.86,1.8,4.86,3.96v14.85c0,1.979,0.9,4.14,3.06,4.14C163.125,354.465,164.745,348.705,165.555,344.745z"/>
			<path style="fill:#6FACBB;" d="M176.265,350.146c0-5.76,1.62-12.15,4.5-19.89h-6.84h-0.99c-0.09,3.51-0.63,11.34-2.25,16.56
				c-1.17,3.779-5.85,0.54-5.04-2.521c0.99-3.6,1.35-11.069,1.44-15.659c-2.25-1.26-3.87-3.149-3.87-5.76c0-2.52,2.16-4.14,4.5-4.14
				c2.16,0,4.68,1.08,5.67,4.77c2.97,0.36,3.87,0.36,4.77,0.36h4.68c1.08,0,4.68,2.97,4.32,5.04c0,1.08-4.05,11.699-4.05,20.699
				c0,2.52,1.17,4.859,3.6,4.859c4.14,0,5.67-5.76,6.48-9.72c0.36-1.89,1.26-2.7,2.16-2.7c1.44,0,3.15,1.98,3.15,3.69
				c0,0.27-0.09,0.45-0.09,0.63c-1.62,5.939-5.13,14.039-12.87,14.039C181.304,360.404,176.265,358.064,176.265,350.146z"/>
			<path style="fill:#6FACBB;" d="M192.015,345.915c0-13.77,8.37-21.779,18.179-23.129v-20.339c0-2.61-0.9-2.79-0.9-3.42
				s1.62-0.99,2.88-0.99c2.97,0,4.859,1.8,4.859,3.96v48.328c0,1.979,0.9,4.14,3.06,4.14c3.6,0,5.22-5.76,6.03-9.72
				c0.36-1.89,1.26-2.7,2.16-2.7c1.44,0,3.149,1.98,3.149,3.69c0,0.09,0,0.27-0.09,0.63c-1.53,5.939-5.13,14.039-12.869,14.039
				c-3.06,0-5.49-1.439-6.84-3.51c-1.98,1.98-4.59,3.51-8.01,3.51C196.604,360.404,192.015,355.365,192.015,345.915z
				 M210.194,350.955v-22.229c-5.85,1.08-11.25,5.311-11.25,16.56c0,6.479,2.88,9.18,6.03,9.18
				C207.314,354.465,209.024,352.935,210.194,350.955z"/>
			<path style="fill:#6FACBB;" d="M284.352,345.646c-1.08,4.859-4.77,8.909-10.89,8.909c-1.62,0-3.06-0.18-4.409-0.63
				c-2.25,3.87-5.67,6.479-10.8,6.479c-9.09,0-13.14-7.739-13.14-16.739c0-13.229,7.199-21.239,9.18-21.239
				c2.34,0,4.14,4.771,1.8,6.3c-1.44,2.16-4.14,5.49-4.14,14.399c0,7.561,2.97,11.34,6.479,11.34c2.52,0,4.14-1.35,5.31-3.42
				c-4.229-3.6-6.479-9.539-6.479-16.02c0-5.67,2.43-10.529,7.29-10.529c4.229,0,7.649,6.39,7.649,15.119
				c0,3.33-0.36,6.66-1.26,9.72c0.63,0.18,1.17,0.18,1.8,0.18c3.87,0,5.939-2.97,6.479-6.479
				C279.582,340.966,285.521,340.605,284.352,345.646z M265.452,345.195c0.181-1.44,0.271-2.79,0.271-4.14
				c0-6.12-0.271-10.62-2.16-10.62c-0.99,0-1.53,1.44-1.53,4.23C262.032,338.716,263.383,342.495,265.452,345.195z"/>
			<path style="fill:#6FACBB;" d="M286.063,331.516v1.98c8.19,9.989,13.41,20.699,13.41,35.548c0,15.029-4.771,25.919-11.97,25.919
				c-6.3,0-8.28-6.84-8.28-13.499v-48.418c-0.18-0.18-0.359-0.45-0.539-0.63c-1.44-1.44-2.79-2.521-2.79-3.96
				c0-0.9,0.63-1.98,2.069-2.16c0.271,0,0.721-0.09,1.26-0.09v-25.559c0-2.61-0.899-2.79-0.899-3.42s1.62-0.99,2.88-0.99
				c2.97,0,4.859,1.8,4.859,3.96v25.469c4.141-0.36,8.73-0.63,11.16-0.63c1.979,0,3.689,0.63,3.689,2.52
				c0,1.261-0.54,5.67-1.71,5.67c-0.54,0-0.359-0.899-2.79-1.08L286.063,331.516z M286.063,342.945v38.519
				c0,2.88,0.36,6.93,2.16,6.93c2.61,0,4.41-7.92,4.41-19.35C292.633,360.854,290.383,351.315,286.063,342.945z"/>
			<path style="fill:#6FACBB;" d="M352.03,363.914c-2.25,0-5.851-3.51-5.851-5.22c0-1.17,0.631-0.449,1.53-0.449
				c1.62,0,2.34-1.98,2.34-6.57v-14.129h-4.68c-1.89,0-3.24-2.61-3.24-4.5c0-0.99,0.45-1.8,1.351-1.8h6.569v-29.249
				c-12.6,0.81-21.329,5.31-21.329,19.439c0,6.21,2.79,9.899,5.13,12.239c0.99-0.27,1.35,0.36,1.35,1.26
				c0,2.34-2.249,5.31-4.319,5.31c-0.45,0-0.9-0.09-1.35-0.449c-2.61-1.891-7.92-8.82-7.92-18.359
				c0-17.279,11.159-26.549,32.759-26.549c4.949,0,18.539,0.18,20.429,0.18c1.8,0,2.25-0.72,2.521-0.72c0.63,0,1.26,1.619,1.26,2.97
				c0,2.16-1.351,4.77-4.14,4.77c-1.62,0-11.79-0.18-17.37-0.27v29.429h11.25c2.79-2.07,1.26,6.3-0.81,6.3h-10.44v15.299
				C357.069,360.765,355,363.914,352.03,363.914z"/>
			<path style="fill:#6FACBB;" d="M411.881,345.646c-1.08,4.859-4.771,8.909-10.89,8.909c-1.62,0-3.061-0.18-4.41-0.63
				c-2.25,3.87-5.67,6.479-10.8,6.479c-9.09,0-13.14-7.739-13.14-16.739c0-13.229,7.2-21.239,9.18-21.239
				c2.34,0,4.141,4.771,1.8,6.3c-1.439,2.16-4.14,5.49-4.14,14.399c0,7.561,2.97,11.34,6.48,11.34c2.52,0,4.14-1.35,5.31-3.42
				c-4.23-3.6-6.479-9.539-6.479-16.02c0-5.67,2.43-10.529,7.289-10.529c4.23,0,7.649,6.39,7.649,15.119
				c0,3.33-0.359,6.66-1.26,9.72c0.63,0.18,1.17,0.18,1.8,0.18c3.87,0,5.94-2.97,6.48-6.479
				C407.11,340.966,413.051,340.605,411.881,345.646z M392.981,345.195c0.18-1.44,0.27-2.79,0.27-4.14c0-6.12-0.27-10.62-2.16-10.62
				c-0.989,0-1.529,1.44-1.529,4.23C389.562,338.716,390.911,342.495,392.981,345.195z"/>
			<path style="fill:#6FACBB;" d="M406.751,327.916c0-1.71-0.359-2.25-0.359-2.88c0-0.9,1.08-1.53,2.34-1.53
				c2.97,0,4.859,1.8,4.859,3.96v4.05c2.431-5.04,5.67-8.909,10.08-8.909c6.029,0,7.47,4.949,7.47,9.09v18.629
				c0,0.81,0,4.14,2.34,4.14c3.6,0,5.22-5.76,6.029-9.72c0.36-1.89,1.261-2.7,2.16-2.7c1.44,0,3.15,1.98,3.15,3.69
				c0,0.09,0,0.27-0.091,0.63c-1.529,5.939-5.13,14.039-12.869,14.039c-4.77,0-7.56-3.869-7.56-8.459v-18.27
				c0-2.79-0.18-5.13-1.89-5.13c-2.61,0-8.19,7.739-8.82,14.85v13.14c0,1.71,0.091,3.869-2.52,3.869c-1.8,0-4.32-0.63-4.32-3.959
				V327.916z"/>
			<path style="fill:#6FACBB;" d="M439.24,315.856v-15.209c0-2.61-0.899-2.79-0.899-3.42s1.62-0.99,2.88-0.99
				c2.97,0,4.859,1.8,4.859,3.96v15.749c5.49,0,11.79-0.09,17.909-0.359c2.521-2.7,1.71,5.939-0.63,6.029
				c-7.199,0.18-12.509,0.18-17.279,0.18v28.529c0,2.88,1.17,4.14,3.061,4.14c3.6,0,5.22-5.76,6.029-9.72
				c0.36-1.89,1.26-2.7,2.16-2.7c1.439,0,3.149,1.98,3.149,3.69c0,0.09,0,0.27-0.09,0.63c-1.529,5.939-5.13,14.039-12.869,14.039
				c-4.86,0-8.28-2.88-8.28-9.989v-28.619c-3.959,0-6.209-0.18-6.209-0.18c-2.88,0-4.5-6.029-1.891-6.029
				C431.141,315.587,434.381,315.767,439.24,315.856z"/>
		</g>
	</g>
	<g>
		<rect x="-7" y="295.035" style="fill:none;" width="500" height="104.965"/>
		<path style="fill:#3A6667;" d="M77.358,343.096c0,10.529-5.76,14.309-11.16,14.309c-1.62,0-5.67-0.359-8.459-3.779
			c-2.52,3.42-6.12,3.779-7.74,3.779c-5.58,0-10.8-3.779-10.8-14.309v-40.949c0-4.499-0.99-6.209-3.15-6.93
			c-0.27-0.09-0.36-0.18-0.36-0.359c0-0.811,3.24-2.97,5.76-2.97c2.25,0,4.77,2.069,4.77,9.359v42.748c0,6.84,3.06,6.84,4.229,6.84
			c1.35,0,4.32,0,4.32-7.739v-44.099c0-1.71-0.36-2.25-0.36-2.88c0-0.9,1.08-1.53,2.34-1.53c2.97,0,5.04,1.8,5.04,3.96v45.448
			c0,6.84,2.88,6.84,4.23,6.84c1.17,0,4.319,0,4.319-6.84v-42.748c0-7.29,2.52-9.359,4.68-9.359c2.61,0,5.85,2.159,5.85,2.97
			c0,0.18-0.09,0.27-0.36,0.359c-2.34,0.721-3.15,2.431-3.15,6.93V343.096z"/>
		<path style="fill:#3A6667;" d="M85.458,306.106c0-3.149,2.43-5.489,5.4-5.489c3.149,0,5.49,2.34,5.49,5.489
			c0,2.97-2.34,5.49-5.49,5.49C87.888,311.597,85.458,309.076,85.458,306.106z M92.928,347.325c0,0.81,0,4.14,2.34,4.14
			c3.6,0,5.22-5.76,6.03-9.72c1.08-5.489,5.939-1.26,5.22,1.62c-1.62,5.939-5.13,14.039-12.87,14.039c-4.77,0-7.56-3.869-7.56-8.459
			v-24.029c0-1.71-0.36-2.25-0.36-2.88c0-0.9,1.08-1.53,2.34-1.53c2.97,0,4.86,1.8,4.86,3.96V347.325z"/>
		<path style="fill:#3A6667;" d="M119.477,362.175c-0.99-5.04-3.42-9.54-8.91-9.54l-1.26-4.949c6.3-1.801,13.05-7.38,13.05-16.38
			c0-3.06-1.62-5.76-5.13-5.76c-4.5,0-7.29,3.42-10.62,17.369c-1.26,5.13-5.49-0.09-5.04-2.34
			c2.25-11.789,5.22-20.969,15.659-20.969c7.56,0,11.97,5.489,11.97,12.419c0,7.56-5.13,13.59-11.52,16.47
			c3.419,1.89,5.85,4.319,7.379,8.279c3.51-3.689,6.75-8.369,8.64-15.029c0.54-1.89,1.26-2.7,2.16-2.7c1.44,0,3.15,1.98,3.15,3.69
			c0,0.09,0,0.54-0.09,0.899c-2.97,9.9-7.74,15.21-12.419,19.26c0.36,2.43,0.54,5.31,0.54,8.64c0,9.449-2.43,20.429-10.62,20.429
			c-5.04,0-8.64-4.59-8.64-10.35C107.777,372.254,113.357,367.664,119.477,362.175z M120.106,368.384
			c-3.51,3.24-6.03,6.84-6.03,12.96c0,2.79,0.9,4.95,2.34,4.95c3.42,0,3.78-8.64,3.78-13.5
			C120.196,371.534,120.196,370.004,120.106,368.384z"/>
		<path style="fill:#3A6667;" d="M165.555,341.745c0.36-1.89,1.26-2.7,2.16-2.7c1.44,0,3.15,1.98,3.15,3.69c0,0.09,0,0.27-0.09,0.63
			c-1.53,5.939-5.129,14.039-12.869,14.039c-3.15,0-5.58-1.529-6.93-3.689c-1.8,2.07-4.32,3.689-7.74,3.689
			c-7.02,0-10.709-5.939-10.709-13.589c0-15.029,10.439-24.209,21.419-24.209c2.43,0,4.14,1.439,4.14,3.779
			c0,1.53-0.27,2.07-1.17,2.07c-0.81,0-1.71-0.18-2.61-0.18c-6.839,0-14.849,5.85-14.849,18.809c0,4.68,1.98,7.38,5.13,7.38
			c2.43,0,4.05-2.16,5.04-4.68v-13.859c0-1.71-0.36-2.25-0.36-2.88c0-0.9,1.08-1.53,2.34-1.53c2.97,0,4.86,1.8,4.86,3.96v14.85
			c0,1.979,0.9,4.14,3.06,4.14C163.125,351.465,164.745,345.705,165.555,341.745z"/>
		<path style="fill:#3A6667;" d="M176.265,347.146c0-5.76,1.62-12.15,4.5-19.89h-6.84h-0.99c-0.09,3.51-0.63,11.34-2.25,16.56
			c-1.17,3.779-5.85,0.54-5.04-2.521c0.99-3.6,1.35-11.069,1.44-15.659c-2.25-1.26-3.87-3.149-3.87-5.76c0-2.52,2.16-4.14,4.5-4.14
			c2.16,0,4.68,1.08,5.67,4.77c2.97,0.36,3.87,0.36,4.77,0.36h4.68c1.08,0,4.68,2.97,4.32,5.04c0,1.08-4.05,11.699-4.05,20.699
			c0,2.52,1.17,4.859,3.6,4.859c4.14,0,5.67-5.76,6.48-9.72c0.36-1.89,1.26-2.7,2.16-2.7c1.44,0,3.15,1.98,3.15,3.69
			c0,0.27-0.09,0.45-0.09,0.63c-1.62,5.939-5.13,14.039-12.87,14.039C181.304,357.404,176.265,355.064,176.265,347.146z"/>
		<path style="fill:#3A6667;" d="M192.015,342.915c0-13.77,8.37-21.779,18.179-23.129v-20.339c0-2.61-0.9-2.79-0.9-3.42
			s1.62-0.99,2.88-0.99c2.97,0,4.859,1.8,4.859,3.96v48.328c0,1.979,0.9,4.14,3.06,4.14c3.6,0,5.22-5.76,6.03-9.72
			c0.36-1.89,1.26-2.7,2.16-2.7c1.44,0,3.149,1.98,3.149,3.69c0,0.09,0,0.27-0.09,0.63c-1.53,5.939-5.13,14.039-12.869,14.039
			c-3.06,0-5.49-1.439-6.84-3.51c-1.98,1.98-4.59,3.51-8.01,3.51C196.604,357.404,192.015,352.365,192.015,342.915z
			 M210.194,347.955v-22.229c-5.85,1.08-11.25,5.311-11.25,16.56c0,6.479,2.88,9.18,6.03,9.18
			C207.314,351.465,209.024,349.935,210.194,347.955z"/>
		<path style="fill:#3A6667;" d="M284.352,342.646c-1.08,4.859-4.77,8.909-10.89,8.909c-1.62,0-3.06-0.18-4.409-0.63
			c-2.25,3.87-5.67,6.479-10.8,6.479c-9.09,0-13.14-7.739-13.14-16.739c0-13.229,7.199-21.239,9.18-21.239
			c2.34,0,4.14,4.771,1.8,6.3c-1.44,2.16-4.14,5.49-4.14,14.399c0,7.561,2.97,11.34,6.479,11.34c2.52,0,4.14-1.35,5.31-3.42
			c-4.229-3.6-6.479-9.539-6.479-16.02c0-5.67,2.43-10.529,7.29-10.529c4.229,0,7.649,6.39,7.649,15.119c0,3.33-0.36,6.66-1.26,9.72
			c0.63,0.18,1.17,0.18,1.8,0.18c3.87,0,5.939-2.97,6.479-6.479C279.582,337.966,285.521,337.605,284.352,342.646z M265.452,342.195
			c0.181-1.44,0.271-2.79,0.271-4.14c0-6.12-0.271-10.62-2.16-10.62c-0.99,0-1.53,1.44-1.53,4.23
			C262.032,335.716,263.383,339.495,265.452,342.195z"/>
		<path style="fill:#3A6667;" d="M286.063,328.516v1.98c8.19,9.989,13.41,20.699,13.41,35.548c0,15.029-4.771,25.919-11.97,25.919
			c-6.3,0-8.28-6.84-8.28-13.499v-48.418c-0.18-0.18-0.359-0.45-0.539-0.63c-1.44-1.44-2.79-2.521-2.79-3.96
			c0-0.9,0.63-1.98,2.069-2.16c0.271,0,0.721-0.09,1.26-0.09v-25.559c0-2.61-0.899-2.79-0.899-3.42s1.62-0.99,2.88-0.99
			c2.97,0,4.859,1.8,4.859,3.96v25.469c4.141-0.36,8.73-0.63,11.16-0.63c1.979,0,3.689,0.63,3.689,2.52c0,1.261-0.54,5.67-1.71,5.67
			c-0.54,0-0.359-0.899-2.79-1.08L286.063,328.516z M286.063,339.945v38.519c0,2.88,0.36,6.93,2.16,6.93
			c2.61,0,4.41-7.92,4.41-19.35C292.633,357.854,290.383,348.315,286.063,339.945z"/>
		<path style="fill:#3A6667;" d="M352.03,360.914c-2.25,0-5.851-3.51-5.851-5.22c0-1.17,0.631-0.449,1.53-0.449
			c1.62,0,2.34-1.98,2.34-6.57v-14.129h-4.68c-1.89,0-3.24-2.61-3.24-4.5c0-0.99,0.45-1.8,1.351-1.8h6.569v-29.249
			c-12.6,0.81-21.329,5.31-21.329,19.439c0,6.21,2.79,9.899,5.13,12.239c0.99-0.27,1.35,0.36,1.35,1.26
			c0,2.34-2.249,5.31-4.319,5.31c-0.45,0-0.9-0.09-1.35-0.449c-2.61-1.891-7.92-8.82-7.92-18.359
			c0-17.279,11.159-26.549,32.759-26.549c4.949,0,18.539,0.18,20.429,0.18c1.8,0,2.25-0.72,2.521-0.72c0.63,0,1.26,1.619,1.26,2.97
			c0,2.16-1.351,4.77-4.14,4.77c-1.62,0-11.79-0.18-17.37-0.27v29.429h11.25c2.79-2.07,1.26,6.3-0.81,6.3h-10.44v15.299
			C357.069,357.765,355,360.914,352.03,360.914z"/>
		<path style="fill:#3A6667;" d="M411.881,342.646c-1.08,4.859-4.771,8.909-10.89,8.909c-1.62,0-3.061-0.18-4.41-0.63
			c-2.25,3.87-5.67,6.479-10.8,6.479c-9.09,0-13.14-7.739-13.14-16.739c0-13.229,7.2-21.239,9.18-21.239c2.34,0,4.141,4.771,1.8,6.3
			c-1.439,2.16-4.14,5.49-4.14,14.399c0,7.561,2.97,11.34,6.48,11.34c2.52,0,4.14-1.35,5.31-3.42c-4.23-3.6-6.479-9.539-6.479-16.02
			c0-5.67,2.43-10.529,7.289-10.529c4.23,0,7.649,6.39,7.649,15.119c0,3.33-0.359,6.66-1.26,9.72c0.63,0.18,1.17,0.18,1.8,0.18
			c3.87,0,5.94-2.97,6.48-6.479C407.11,337.966,413.051,337.605,411.881,342.646z M392.981,342.195c0.18-1.44,0.27-2.79,0.27-4.14
			c0-6.12-0.27-10.62-2.16-10.62c-0.989,0-1.529,1.44-1.529,4.23C389.562,335.716,390.911,339.495,392.981,342.195z"/>
		<path style="fill:#3A6667;" d="M406.751,324.916c0-1.71-0.359-2.25-0.359-2.88c0-0.9,1.08-1.53,2.34-1.53
			c2.97,0,4.859,1.8,4.859,3.96v4.05c2.431-5.04,5.67-8.909,10.08-8.909c6.029,0,7.47,4.949,7.47,9.09v18.629
			c0,0.81,0,4.14,2.34,4.14c3.6,0,5.22-5.76,6.029-9.72c0.36-1.89,1.261-2.7,2.16-2.7c1.44,0,3.15,1.98,3.15,3.69
			c0,0.09,0,0.27-0.091,0.63c-1.529,5.939-5.13,14.039-12.869,14.039c-4.77,0-7.56-3.869-7.56-8.459v-18.27
			c0-2.79-0.18-5.13-1.89-5.13c-2.61,0-8.19,7.739-8.82,14.85v13.14c0,1.71,0.091,3.869-2.52,3.869c-1.8,0-4.32-0.63-4.32-3.959
			V324.916z"/>
		<path style="fill:#3A6667;" d="M439.24,312.856v-15.209c0-2.61-0.899-2.79-0.899-3.42s1.62-0.99,2.88-0.99
			c2.97,0,4.859,1.8,4.859,3.96v15.749c5.49,0,11.79-0.09,17.909-0.359c2.521-2.7,1.71,5.939-0.63,6.029
			c-7.199,0.18-12.509,0.18-17.279,0.18v28.529c0,2.88,1.17,4.14,3.061,4.14c3.6,0,5.22-5.76,6.029-9.72
			c0.36-1.89,1.26-2.7,2.16-2.7c1.439,0,3.149,1.98,3.149,3.69c0,0.09,0,0.27-0.09,0.63c-1.529,5.939-5.13,14.039-12.869,14.039
			c-4.86,0-8.28-2.88-8.28-9.989v-28.619c-3.959,0-6.209-0.18-6.209-0.18c-2.88,0-4.5-6.029-1.891-6.029
			C431.141,312.587,434.381,312.767,439.24,312.856z"/>
	</g>
	<g>
	</g>
	<g>
	</g>
	<g>
	</g>
	<g>
	</g>
	<g>
	</g>
	<g>
	</g>
</g>
</svg>
