<?xml version="1.0" encoding="utf-8"?>
<!-- Generator: Adobe Illustrator 18.1.1, SVG Export Plug-In . SVG Version: 6.00 Build 0)  -->
<svg version="1.1" id="Layer_1" xmlns="http://www.w3.org/2000/svg" xmlns:xlink="http://www.w3.org/1999/xlink" x="0px" y="0px"
	 viewBox="0 697 612 95" enable-background="new 0 697 612 95" xml:space="preserve">
<path fill="#D8BCA7" d="M612,792v-93.1c-9.1-2.2-18.3-2.9-27.4,0.1c-7.7,2.5-13.9,7.4-19.1,13.5c-5.6,6.6-11.4,13-16.3,20.1
	c-2.5,3.7-5.6,4.2-9.3,4.9c-9.3,1.8-18.1,0.3-27-2.5c-7.6-2.4-15.7-3.6-23.4-1.5c-7.3,1.9-14.1,5.3-21,8.4c-6.4,2.9-12.6,6.4-19,9.2
	c-1.6,0.7-3.9,0.2-5.7-0.3c-3.8-1-7.4-2.2-11.6-1.6c-5.9,0.9-9.5,4.5-12.9,8.6c-1,1.1-1.8,2.8-1.9,4.2c0,0.8-0.1,1.6-0.1,2.3
	c-2.4-1.5-5.1-1.3-7.7-0.2c-0.1,0.1-0.3,0.1-0.4,0.2c-2.8-2.5-6.1-4.4-9.7-6c-14.6-6.6-30.1-8.8-46-7.8c-6.6,0.4-13.1,1.8-19.7,2.9
	c-3.2,0.5-6.5,0.7-9.4,1.9c-5.2,2.1-9.9,5.2-15.1,7.4c-3.3,1.4-6.4,3.1-9.4,5c0,0-0.1,0-0.1,0c-0.3-0.1-0.6-0.2-1-0.3
	c-1.3-2.7-4.5-3.9-7.3-2.7c-2,0.9-3.5,0.5-5.1-0.8s-2.3-3-2.3-5c0-1.6-0.8-2.7-2.2-3.4c-3.3-1.8-6.6-1.4-9.4,1
	c-0.8,0.8-1.7,1.3-2.7,1.8c-1.2-0.3-2.4-0.4-3.4-0.5c-1.3-0.2-2.6-0.3-3.9-0.4c-0.1-0.3-0.2-0.5-0.2-0.9c-0.4-2.7-3.6-5.3-6.3-5.4
	c-3.7-0.1-7.4-0.3-11-0.6c-0.8-0.1-1.5-0.6-2.1-1.1c-2.2-1.6-4.2-3.3-7.2-3.2c-1.7,0.1-3.5,0.1-5.1-0.3c-7.4-1.8-14.6-0.5-21.8,1.1
	c-3,0.7-5.7,2.6-8.6,3.8c-2,0.8-3.7,2-4.7,3.9c-1.2,2.3-3.4,2.3-5.7,2.6c0.1-0.5,0.6-0.8,0.9-1.1c1.7-2.3,1.1-5.8-1.1-7.5
	c-3.2-2.4-6.7-4.1-10.5-5.2c-3.1-0.9-6-2.3-9.1-3.2c-1.7-0.5-3.7-0.4-5.5-0.4c-3.8-0.1-7.6-0.5-11.4-0.3c-9.1,0.5-17.8,2.8-25.7,7.6
	c-2,1.2-3.8,2.6-5.2,4.2c-1.4-0.4-2.9-0.7-4.5-0.9c0,0,0-0.1,0-0.1c-0.1-0.8-0.8-1.7-1.4-2.3c-2.2-2.1-4.5-3.9-7.9-4
	c-2.4-0.1-4.4,0.9-6.5,1.7c-1,0.4-2.3,0.8-3.2,0.5c-3.9-1.2-7.6-2.7-11.5-3.9c-4.1-1.3-8.3-2.8-12.5-3.4c-4.5-0.6-9.1,0.6-13.2,2.5
	c-4.9,2.2-9.8,3.7-15.2,3.3c-2.1-0.1-3.9-0.2-5.6-2.2c-3.3-3.7-7-7-10.6-10.4c-3.4-3.1-7.3-5.5-11.8-6.4c-5.7-1.1-11.3,0.1-16.6,2.2
	c0,0-0.6,0.1-1.5,0.4V792H612z"/>
</svg>
