<?xml version="1.0" encoding="utf-8"?>
<!-- Generator: Adobe Illustrator 18.1.1, SVG Export Plug-In . SVG Version: 6.00 Build 0)  -->
<svg version="1.1" id="Layer_1" xmlns="http://www.w3.org/2000/svg" xmlns:xlink="http://www.w3.org/1999/xlink" x="0px" y="0px"
	 viewBox="-51.6 706.3 571.6 62.7" enable-background="new -51.6 706.3 571.6 62.7" xml:space="preserve">
<path fill="#D8BCA7" d="M508.4,708.9c-5.3-2.1-10.9-3.3-16.6-2.2c-4.5,0.9-8.4,3.3-11.8,6.4c-3.6,3.4-7.3,6.7-10.6,10.4
	c-1.7,2-3.5,2.1-5.6,2.2c-5.4,0.4-10.3-1.1-15.2-3.3c-4.1-1.9-8.7-3.1-13.2-2.5c-4.2,0.6-8.4,2.1-12.5,3.4
	c-3.9,1.2-7.6,2.7-11.5,3.9c-0.9,0.3-2.2-0.1-3.2-0.5c-2.1-0.8-4.1-1.8-6.5-1.7c-3.1,0.1-5.3,1.6-7.3,3.5c-1.8-1-3.8-1.5-5.9-1.5
	c-1.9,0-3.8,0.5-5.5,1.3c-0.1-0.1-0.2-0.1-0.3-0.2c-7.9-4.8-16.6-7.1-25.7-7.6c-3.8-0.2-7.6,0.2-11.4,0.3c-1.8,0-3.8-0.1-5.5,0.4
	c-2.2,0.7-4.4,1.6-6.6,2.4c-4.7-2.8-12.1-4.6-20.3-4.6c-10.5,0-19.5,2.9-23.5,7.1c-3.4-0.2-6.8-0.1-10.2,0.8
	c-1.6,0.4-3.4,0.4-5.1,0.3c-3-0.1-5,1.6-7.2,3.2c-0.6,0.5-1.3,1-2.1,1.1c-1.1,0.1-2.1,0.1-3.2,0.2c-3.2-2.3-7.2-3.7-11.6-3.7
	c-6.6,0-12.4,3.1-15.7,7.7c-0.6-0.2-1.3-0.3-1.9-0.4c-0.2,0-0.3,0-0.5,0c-0.2,0-0.3,0-0.5,0c-1.1,0.1-2.2,0.4-3.2,0.9
	c-0.1,0.1-0.2,0.1-0.3,0.1c-0.5,0.3-0.9,0.6-1.3,0.9c0,0-0.1,0-0.1,0.1c-0.8,0.8-1.7,1.3-2.7,1.8c-1.2-0.3-2.4-0.4-3.4-0.5
	c-1.3-0.2-2.6-0.3-3.9-0.4c-0.1-0.3-0.2-0.5-0.2-0.9c-0.4-2.7-3.6-5.3-6.3-5.4c-3.7-0.1-7.4-0.3-11-0.6c-0.8-0.1-1.5-0.6-2.1-1.1
	c-2.2-1.6-4.2-3.3-7.2-3.2c-1.7,0.1-3.5,0.1-5.1-0.3c-7.4-1.8-14.6-0.5-21.8,1.1c-3,0.7-5.7,2.6-8.6,3.8c-2,0.8-3.7,2-4.7,3.9
	c-1.2,2.3-3.4,2.3-5.7,2.6c0.1-0.5,0.6-0.8,0.9-1.1c1.7-2.3,1.1-5.8-1.1-7.5c-3.2-2.4-6.7-4.1-10.5-5.2c-3.1-0.9-6-2.3-9.1-3.2
	c-1.7-0.5-3.7-0.4-5.5-0.4c-3.8-0.1-7.6-0.5-11.4-0.3c-5.9,0.3-11.6,1.4-17.1,3.4c-7.2-2.1-15.9-3.3-25.3-3.3
	c-8.5,0-16.5,1-23.3,2.8c-0.1,0-0.2-0.1-0.3-0.1c-4.1-1.3-8.3-2.8-12.5-3.4c-4.5-0.6-9.1,0.6-13.2,2.5c-0.7,0.3-1.4,0.6-2.1,0.9
	c-4.1-3.8-11-6.3-18.8-6.3c-2,0-4,0.2-5.8,0.5c-1.5-1.5-3.1-2.9-4.6-4.3c-3.4-3.1-7.3-5.5-11.8-6.4c-5.7-1.1-11.3,0.1-16.6,2.2
	c0,0-3.3,0.8-7.5,2.7V769H520v-55.3C514,710.3,508.4,708.9,508.4,708.9z"/>
</svg>
