<?xml version="1.0" encoding="utf-8"?>
<!-- Generator: Adobe Illustrator 18.1.1, SVG Export Plug-In . SVG Version: 6.00 Build 0)  -->
<svg version="1.1" id="Layer_1" xmlns="http://www.w3.org/2000/svg" xmlns:xlink="http://www.w3.org/1999/xlink" x="0px" y="0px"
	 viewBox="-51.6 706.3 571.6 62.7" enable-background="new -51.6 706.3 571.6 62.7" xml:space="preserve">
<path fill="#D8BCA7" d="M520,769v-55.3c-6-3.3-11.6-4.7-11.6-4.7c-5.3-2.1-10.9-3.3-16.6-2.2c-4.5,0.9-8.4,3.3-11.8,6.4
	c-3.6,3.4-7.3,6.7-10.6,10.4c-1.7,2-3.5,2.1-5.6,2.2c-5.4,0.4-10.3-1.1-15.2-3.3c-4.1-1.9-8.7-3.1-13.2-2.5
	c-4.2,0.6-8.4,2.1-12.5,3.4c-3.9,1.2-7.6,2.7-11.5,3.9c-0.9,0.3-2.2-0.1-3.2-0.5c-2.1-0.8-4.1-1.8-6.5-1.7c-3.4,0.1-5.7,1.9-7.9,4
	c-0.6,0.6-1.3,1.5-1.4,2.3c-0.6,3.3-1.2,6.5,1,9.5c1.2,1.7,2.1,3.5,3.2,5.2c3.7,5.8,9.6,7.5,15.8,8c3.5,0.2,7.7-3.6,8.4-7
	c0.5-2.2-0.3-3.1-2.5-2.8c-1,0.2-2.1,0.3-2.4-1c-0.3-1.4,0.7-2.2,1.8-2.5c3.7-0.9,7.2,1,7.1,5.2c0,2.8-1.1,5.2-3.1,7.2c0,0,0,0,0,0
	c-2.4,1-4.7,2.3-6.9,3.7c-3,0.7-6.2,0.3-9.1-1.1c-0.6-0.3-1.3-0.6-2-0.8c-4.4-1.2-7.9-3.4-9.7-7.7c-1.2-2.9-2.4-5.9-3.1-9
	c-1.1-4.8-4.3-7.8-8.2-10.2c-7.9-4.8-16.6-7.1-25.7-7.6c-3.8-0.2-7.6,0.2-11.4,0.3c-1.8,0-3.8-0.1-5.5,0.4c-3.1,0.9-6,2.3-9.1,3.2
	c-3.8,1.1-7.3,2.8-10.5,5.2c-2.2,1.7-2.8,5.2-1.1,7.5c0.3,0.3,0.8,0.6,0.9,1.1c-2.3-0.3-4.5-0.3-5.7-2.6c-1-1.9-2.7-3.1-4.7-3.9
	c-2.9-1.2-5.6-3.1-8.6-3.8c-7.2-1.6-14.4-2.9-21.8-1.1c-1.6,0.4-3.4,0.4-5.1,0.3c-3-0.1-5,1.6-7.2,3.2c-0.6,0.5-1.3,1-2.1,1.1
	c-3.6,0.3-7.3,0.5-11,0.6c-2.7,0.1-5.9,2.7-6.3,5.4c0,0.4-0.1,0.6-0.2,0.9c-1.3,0.1-2.6,0.2-3.9,0.4c-1,0.1-2.2,0.2-3.4,0.5
	c-1-0.5-1.9-1-2.7-1.8c0,0-0.1,0-0.1-0.1c-0.3-0.4-0.8-0.7-1.3-0.9c-0.1-0.1-0.2-0.1-0.3-0.1c-1-0.6-2.1-0.9-3.2-0.9
	c-0.2,0-0.3,0-0.5,0c-0.2,0-0.3,0-0.5,0c-1.1,0.1-2.2,0.4-3.2,0.9c-0.1,0.1-0.2,0.1-0.3,0.1c-0.5,0.3-0.9,0.6-1.3,0.9
	c0,0-0.1,0-0.1,0.1c-0.8,0.8-1.7,1.3-2.7,1.8c-1.2-0.3-2.4-0.4-3.4-0.5c-1.3-0.2-2.6-0.3-3.9-0.4c-0.1-0.3-0.2-0.5-0.2-0.9
	c-0.4-2.7-3.6-5.3-6.3-5.4c-3.7-0.1-7.4-0.3-11-0.6c-0.8-0.1-1.5-0.6-2.1-1.1c-2.2-1.6-4.2-3.3-7.2-3.2c-1.7,0.1-3.5,0.1-5.1-0.3
	c-7.4-1.8-14.6-0.5-21.8,1.1c-3,0.7-5.7,2.6-8.6,3.8c-2,0.8-3.7,2-4.7,3.9c-1.2,2.3-3.4,2.3-5.7,2.6c0.1-0.5,0.6-0.8,0.9-1.1
	c1.7-2.3,1.1-5.8-1.1-7.5c-3.2-2.4-6.7-4.1-10.5-5.2c-3.1-0.9-6-2.3-9.1-3.2c-1.7-0.5-3.7-0.4-5.5-0.4c-3.8-0.1-7.6-0.5-11.4-0.3
	c-9.1,0.5-17.8,2.8-25.7,7.6c-3.9,2.4-7.1,5.4-8.2,10.2c-0.7,3.1-1.9,6.1-3.1,9c-1.8,4.3-5.3,6.5-9.7,7.7c-0.7,0.2-1.4,0.5-2,0.8
	c-2.9,1.4-6.1,1.7-9.1,1.1c-2.2-1.4-4.5-2.7-6.9-3.7c0,0,0,0,0,0c-2-2-3.1-4.4-3.1-7.2c-0.1-4.2,3.4-6.1,7.1-5.2
	c1.1,0.3,2.1,1.1,1.8,2.5c-0.3,1.3-1.4,1.2-2.4,1c-2.2-0.3-3,0.6-2.5,2.8c0.7,3.4,4.9,7.2,8.4,7c6.2-0.5,12.1-2.2,15.8-8
	c1.1-1.7,2-3.5,3.2-5.2c2.2-3,1.6-6.2,1-9.5c-0.1-0.8-0.8-1.7-1.4-2.3c-2.2-2.1-4.5-3.9-7.9-4c-2.4-0.1-4.4,0.9-6.5,1.7
	c-1,0.4-2.3,0.8-3.2,0.5c-3.9-1.2-7.6-2.7-11.5-3.9c-4.1-1.3-8.3-2.8-12.5-3.4c-4.5-0.6-9.1,0.6-13.2,2.5c-4.9,2.2-9.8,3.7-15.2,3.3
	c-2.1-0.1-3.9-0.2-5.6-2.2c-3.3-3.7-7-7-10.6-10.4c-3.4-3.1-7.3-5.5-11.8-6.4c-5.7-1.1-11.3,0.1-16.6,2.2c0,0-3.3,0.8-7.5,2.7V769
	H520z"/>
</svg>
