<?xml version="1.0" encoding="iso-8859-1"?>
<!-- Generator: Adobe Illustrator 16.0.0, SVG Export Plug-In . SVG Version: 6.00 Build 0)  -->
<!DOCTYPE svg PUBLIC "-//W3C//DTD SVG 1.1//EN" "http://www.w3.org/Graphics/SVG/1.1/DTD/svg11.dtd">
<svg version="1.1" id="Layer_1" xmlns="http://www.w3.org/2000/svg" xmlns:xlink="http://www.w3.org/1999/xlink" x="0px" y="0px"
	 width="1707.152px" height="308.739px" viewBox="0 0 1707.152 308.739" style="enable-background:new 0 0 1707.152 308.739;"
	 xml:space="preserve">
<path style="fill:#D8BCA7;" d="M1707.084,198.87c-1-17-35.14-35.33-35.14-35.33c-2.716-0.421-5.071-1.608-7.095-4.073
	c-5.236-6.375-12.423-7.567-19.941-6.411c-5.373,0.827-10.576,2.757-16.119,4.268c-2.27-15.115-13.866-20.32-26.491-24.608
	c-13.673-4.644-25.049,1.31-36.229,7.841c-3.974-4.57-8.454-7.295-14.106-5.786c-5.606,1.498-10.961,3.915-16.539,5.546
	c-2.456,0.718-5.794,1.557-7.68,0.487c-4.914-2.787-9.947-5.969-13.674-10.123c-10.141-11.298-23.013-13.638-36.595-10.796
	c-19.073,3.989-37.175,11.077-53.097,22.72c-4.331,3.168-8.746,4.749-14.096,3.949c-13.36-1.998-26.709-4.126-40.12-5.725
	c-11.402-1.36-21.346-5.296-29.714-13.372c-5.392-5.201-11.958-8.279-19.586-9.174c-1.793-0.211-3.464-2.208-5.011-3.584
	c-2.391-2.123-4.355-4.827-6.979-6.563c-7.038-4.658-14.811-4.306-22.01-0.943c-6.979,3.261-11.347,1.413-15.786-4.294
	c-7.032-9.038-16.622-13.239-28.169-12.954c-12.101,0.298-23.649,2.291-33.721,9.679c-2.846,2.087-34.555,20.242-50.979,19.148
	c-6.82-0.454-14.014-0.604-20.72-2.099c-3.766-3.372-7.3-7.036-11.072-10.376c-1.185-1.976-2.301-3.913-3.475-5.492
	c-3.105-4.179-6.462-5.53-11.578-4.46c-3.752,0.785-7.276,2.246-10.653,4.044c-6.113,3.257-11.848,7.183-17.887,10.568
	c-1.013-0.821-2.018-1.655-3.031-2.461c-2.066-1.645-3.729-3.858-5.926-5.262c-8.376-5.352-16.968-8.178-27.278-4.803
	c-7.401,2.422-13.193,7.796-14.023,15.363c-0.116,1.059-0.451,2.377-0.921,3.564c-1.055,1.174-2.206,2.234-3.46,3.162
	c-1.962-0.17-4.467-1.671-5.981-3.139c-7.338-7.105-19.736-6.111-25.072,2.602c-0.41,0.669-0.857,1.217-1.33,1.679
	c-4.878-1.387-9.695-3.02-14.442-4.404c-0.881-0.257-1.767-0.514-2.655-0.768c-3.617-7.536-12.502-10.956-20.437-7.379
	c-5.528,2.494-9.899,1.286-14.306-2.184c-4.569-3.598-6.54-8.35-6.447-13.976c0.076-4.638-2.325-7.383-6.155-9.409
	c-9.229-4.885-18.448-4.03-26.097,2.809c-2.317,2.073-4.765,3.727-7.36,4.906c-3.41-0.697-6.7-1.166-9.417-1.55
	c-3.603-0.509-7.223-0.867-10.851-1.128c-0.285-0.706-0.499-1.521-0.623-2.477c-0.987-7.594-10.076-14.772-17.645-15.104
	c-10.287-0.45-20.58-0.907-30.843-1.72c-2.058-0.164-4.175-1.683-5.944-3.006c-6.011-4.491-11.733-9.274-20.002-8.934
	c-4.776,0.198-9.773,0.373-14.346-0.759c-20.613-5.105-40.841-1.546-60.803,2.954c-8.382,1.89-15.921,7.287-24.075,10.499
	c-5.725,2.256-10.217,5.557-13.041,10.946c-3.372,6.437-9.642,6.427-15.884,7.251c0.432-1.458,1.651-2.124,2.395-3.14
	c4.703-6.437,3.172-16.138-3.143-20.814c-8.928-6.61-18.707-11.307-29.424-14.408c-8.569-2.48-16.722-6.415-25.31-8.805
	c-4.85-1.349-10.2-1.018-15.333-1.207c-10.614-0.388-21.276-1.353-31.846-0.766c-25.455,1.411-49.637,7.879-71.633,21.13
	c-11,6.626-19.902,14.977-23.01,28.454c-1.989,8.627-5.254,17.035-8.664,25.244c-4.972,11.974-14.89,18.231-27,21.548
	c-1.909,0.522-3.764,1.329-5.555,2.191c-15.2,7.313-32.458,4.271-44.521-7.543c-5.724-5.607-8.587-12.443-8.704-20.107
	c-0.18-11.794,9.387-17.052,19.833-14.395c3.178,0.809,5.891,3.156,5.01,6.967c-0.843,3.648-3.772,3.285-6.848,2.802
	c-6.025-0.949-8.34,1.741-7.123,7.785c1.909,9.479,13.826,20.233,23.374,19.395c17.438-1.532,33.813-6.104,44.056-22.247
	c3.009-4.742,5.504-9.835,8.761-14.393c5.989-8.383,4.363-17.425,2.708-26.418c-0.42-2.284-2.051-4.684-3.791-6.326
	c-6.207-5.853-12.604-10.887-22.094-11.145c-6.799-0.185-12.216,2.396-18.077,4.676c-2.803,1.09-6.351,2.286-8.967,1.486
	c-10.779-3.29-21.23-7.646-31.993-11.002c-11.541-3.601-23.123-7.77-35.001-9.392c-12.633-1.726-25.287,1.61-36.92,6.929
	c-13.56,6.198-27.336,10.324-42.438,9.196c-5.928-0.442-10.945-0.638-15.693-6.057c-9.065-10.344-19.51-19.51-29.656-28.866
	c-9.433-8.7-20.303-15.293-32.984-17.807c-16.009-3.175-31.382,0.333-46.333,6.132c0,0-71.781,17.841-72.647,69.312
	s21.888,101.111-15.935,107.67c-37.822,6.559-75.712-7.019-53.146,46.673c22.566,53.692,70.031,88.276,97.55,65.834
	c27.519-22.443,45.634,29.464,79.608,5.391c7.606-3.117,14.789-6.296,23.71-6.128c8.302,0.155,16.784-3.209,24.998-5.653
	c13.985-4.165,22.43-15.33,24.501-29.194h115.977c17.412,3.554,34.579,7.78,52.86,6.958c10.214-0.458,19.249-2.393,27.584-6.958
	h52.582c32.767,9.548,63.592,15.336,78.298,4.174c2.321-1.762,4.843-3.129,7.54-4.174h46.523c22.854,3.449,48.482,7.843,72.6,0
	h960.834c24.86,0,30.64-17.363,28.14-27.863S1708.084,215.87,1707.084,198.87z M1205.084,223.87
	c-2.095-3.591-5.175-10.723-8.462-18.949c-1.812-11.258-0.59-22.195,5.648-32.359c8.069-13.151,15.778-26.12,32.62-30.284
	c13.62-3.366,25.027-1.701,34.788,8.896c5.142,5.581,7.954,16.856,4.895,23.711c-0.542,1.213-2.722,1.695-4.145,2.515
	c-0.651-1.135-2.148-2.683-1.826-3.344c3.583-7.349-1.03-12.334-5.261-16.814c-13.182-13.964-23.084-12.03-36.087-4.331
	c-17.272,10.228-26.979,28.463-22.181,50.195c0.309,1.396,0.778,3.135,1.791,3.928c5.869,4.6,11.527,9.694,18.023,13.202
	c6.521,3.519,13.878,5.555,20.975,7.927c10.363,3.463,20.294,2.189,29.533-3.658c8.639-5.467,17.838-10.281,23.398-19.962
	C1263.006,269.712,1209.73,231.834,1205.084,223.87z"/>
</svg>
