<?xml version="1.0" encoding="utf-8"?>
<!-- Generator: Adobe Illustrator 18.1.1, SVG Export Plug-In . SVG Version: 6.00 Build 0)  -->
<svg version="1.1" id="Layer_1" xmlns="http://www.w3.org/2000/svg" xmlns:xlink="http://www.w3.org/1999/xlink" x="0px" y="0px"
	 viewBox="548 242.3 1707.2 308.7" enable-background="new 548 242.3 1707.2 308.7" xml:space="preserve">
<path fill="#D8BCA7" d="M2255.1,441.1c-1-17-35.1-35.3-35.1-35.3c-2.7-0.4-5.1-1.6-7.1-4.1c-5.2-6.4-12.4-7.6-19.9-6.4
	c-5.4,0.8-10.6,2.8-16.1,4.3c-2.3-15.1-13.9-20.3-26.5-24.6c-13.7-4.6-25,1.3-36.2,7.8c-4-4.6-8.5-7.3-14.1-5.8
	c-5.6,1.5-11,3.9-16.5,5.5c-2.5,0.7-5.8,1.6-7.7,0.5c-4.9-2.8-9.9-6-13.7-10.1c-10.1-11.3-23-13.6-36.6-10.8
	c-19.1,4-37.2,11.1-53.1,22.7c-4.3,3.2-8.7,4.7-14.1,3.9c-13.4-2-26.7-4.1-40.1-5.7c-11.4-1.4-21.3-5.3-29.7-13.4
	c-5.4-5.2-12-8.3-19.6-9.2c-1.8-0.2-3.5-2.2-5-3.6c-2.4-2.1-4.4-4.8-7-6.6c-7-4.7-14.8-4.3-22-0.9c-7,3.3-11.3,1.4-15.8-4.3
	c-7-9-16.6-13.2-28.2-13c-12.1,0.3-23.6,2.3-33.7,9.7c-2.8,2.1-34.6,20.2-51,19.1c-6.8-0.5-14-0.6-20.7-2.1
	c-3.8-3.4-7.3-7-11.1-10.4c-1.2-2-2.3-3.9-3.5-5.5c-3.1-4.2-6.5-5.5-11.6-4.5c-3.8,0.8-7.3,2.2-10.7,4c-6.1,3.3-11.8,7.2-17.9,10.6
	c-1-0.8-2-1.7-3-2.5c-2.1-1.6-3.7-3.9-5.9-5.3c-8.4-5.4-17-8.2-27.3-4.8c-7.4,2.4-13.2,7.8-14,15.4c-0.1,1.1-0.5,2.4-0.9,3.6
	c-1.1,1.2-2.2,2.2-3.5,3.2c-2-0.2-4.5-1.7-6-3.1c-7.3-7.1-19.7-6.1-25.1,2.6c-0.4,0.7-0.9,1.2-1.3,1.7c-4.9-1.4-9.7-3-14.4-4.4
	c-0.9-0.3-1.8-0.5-2.7-0.8c-3.6-7.5-12.5-11-20.4-7.4c-5.5,2.5-9.9,1.3-14.3-2.2c-4.6-3.6-6.5-8.3-6.4-14c0.1-4.6-2.3-7.4-6.2-9.4
	c-9.2-4.9-18.4-4-26.1,2.8c-2.3,2.1-4.8,3.7-7.4,4.9c-3.4-0.7-6.7-1.2-9.4-1.5c-3.6-0.5-7.2-0.9-10.9-1.1c-0.3-0.7-0.5-1.5-0.6-2.5
	c-1-7.6-10.1-14.8-17.6-15.1c-10.3-0.4-20.6-0.9-30.8-1.7c-2.1-0.2-4.2-1.7-5.9-3c-6-4.5-11.7-9.3-20-8.9c-4.8,0.2-9.8,0.4-14.3-0.8
	c-20.6-5.1-40.8-1.5-60.8,3c-8.4,1.9-15.9,7.3-24.1,10.5c-5.7,2.3-10.2,5.6-13,10.9c-3.4,6.4-9.6,6.4-15.9,7.3
	c0.4-1.5,1.7-2.1,2.4-3.1c4.7-6.4,3.2-16.1-3.1-20.8c-8.9-6.6-18.7-11.3-29.4-14.4c-8.6-2.5-16.7-6.4-25.3-8.8
	c-4.8-1.3-10.2-1-15.3-1.2c-10.6-0.4-21.3-1.4-31.8-0.8c-25.5,1.4-49.6,7.9-71.6,21.1c-11,6.6-19.9,15-23,28.5
	c-2,8.6-5.3,17-8.7,25.2c-5,12-14.9,18.2-27,21.5c-1.9,0.5-3.8,1.3-5.6,2.2c-15.2,7.3-32.5,4.3-44.5-7.5c-5.7-5.6-8.6-12.4-8.7-20.1
	c-0.2-11.8,9.4-17.1,19.8-14.4c3.2,0.8,5.9,3.2,5,7c-0.8,3.6-3.8,3.3-6.8,2.8c-6-0.9-8.3,1.7-7.1,7.8c1.9,9.5,13.8,20.2,23.4,19.4
	c17.4-1.5,33.8-6.1,44.1-22.2c3-4.7,5.5-9.8,8.8-14.4c6-8.4,4.4-17.4,2.7-26.4c-0.4-2.3-2.1-4.7-3.8-6.3
	c-6.2-5.9-12.6-10.9-22.1-11.1c-6.8-0.2-12.2,2.4-18.1,4.7c-2.8,1.1-6.4,2.3-9,1.5c-10.8-3.3-21.2-7.6-32-11
	c-11.5-3.6-23.1-7.8-35-9.4c-12.6-1.7-25.3,1.6-36.9,6.9c-13.6,6.2-27.3,10.3-42.4,9.2c-5.9-0.4-10.9-0.6-15.7-6.1
	c-9.1-10.3-19.5-19.5-29.7-28.9c-9.4-8.7-20.3-15.3-33-17.8c-16-3.2-31.4,0.3-46.3,6.1c0,0-71.8,17.8-72.6,69.3
	c-0.9,51.5,21.9,101.1-15.9,107.7c-37.8,6.6-75.7-7-53.1,46.7c22.6,53.7,70,88.3,97.6,65.8c27.5-22.4,45.6,29.5,79.6,5.4
	c7.6-3.1,14.8-6.3,23.7-6.1c8.3,0.2,16.8-3.2,25-5.7c14-4.2,22.4-15.3,24.5-29.2h116c17.4,3.6,34.6,7.8,52.9,7
	c10.2-0.5,19.2-2.4,27.6-7h52.6c32.8,9.5,63.6,15.3,78.3,4.2c2.3-1.8,4.8-3.1,7.5-4.2h46.5c22.9,3.4,48.5,7.8,72.6,0h960.8
	c24.9,0,30.6-17.4,28.1-27.9S2256.1,458.1,2255.1,441.1z"/>
</svg>
