<?xml version="1.0" encoding="iso-8859-1"?>
<!-- Generator: Adobe Illustrator 16.0.0, SVG Export Plug-In . SVG Version: 6.00 Build 0)  -->
<!DOCTYPE svg PUBLIC "-//W3C//DTD SVG 1.1//EN" "http://www.w3.org/Graphics/SVG/1.1/DTD/svg11.dtd">
<svg version="1.1" id="Layer_1" xmlns="http://www.w3.org/2000/svg" xmlns:xlink="http://www.w3.org/1999/xlink" x="0px" y="0px"
	 width="1439.208px" height="766.117px" viewBox="0 0 1439.208 766.117" style="enable-background:new 0 0 1439.208 766.117;"
	 xml:space="preserve">
<path style="fill:#5F4836;" d="M1438.533,362.201c0,58.087,0,116.175,0,174.305c-168.057,0-336.113,0-504.516,0
	c0-97.25,0-194.546,0-291.841c0.213-1.74,0.604-3.479,0.611-5.22c0.113-22.02,0.188-44.04,0.234-66.061
	c0.031-13.994,0.006-27.988,0.006-42.283c1.902,0.13,3.238,0.002,4.439,0.339c6.266,1.763,11.977,1.342,16.35-4.033
	c1.805-2.217,3.748-4.512,4.807-7.099c4.473-10.94,8.635-22.005,12.246-31.311c7.088,6.205,14.707,12.231,21.492,19.065
	c3.879,3.906,7.084,5.772,12.018,2.406c3.35-2.286,6.57-1.896,9.973,0.335c3.096,2.028,6.559,3.507,9.877,5.237
	c6.393-14.186,4.414-29.111,6.041-43.701c7.08,0.416,13.719,0.34,20.191,1.335c4.957,0.763,7.865-0.673,9.666-5.025
	c1.254-3.03,3.457-3.752,6.705-3.43c6.891,0.685,13.863,0.631,20.736,1.435c11.326,1.325,23.229-0.437,33.711,5.846
	c0.83,0.496,2.279,0.291,3.348,0.033c13.613-3.285,27.1-1.893,40.682,0.473c5.043,0.878,10.889,1.644,15.443-0.018
	c10.889-3.973,21.791-5.933,33.34-5.443c7.412,0.314,14.854,0.005,22.281-0.158c4.164-0.091,8.369-0.562,10.131,5.062
	c10.834-6.104,21.215-11.954,31.598-17.804c0.99,0,1.982,0,2.973,0c4.799,1.522,9.6,3.045,14.809,4.697
	c0,3.317,0.291,6.745-0.066,10.105c-0.592,5.562,0.775,10.179,5.158,13.897c10.527,8.939,15.514,20.469,17.057,33.984
	c0.865,7.564,1.545,15.961,5.352,22.159c3.809,6.204,11.406,10.14,17.344,15.068c0.631,0.525,1.359,0.969,1.885,1.582
	c1.918,2.236,3.992,2.041,6.57,1.024c8.234-3.246,16.564-6.255,24.922-9.381c7.59,9.783,15.402,18.776,17.465,31.481
	c1.816,11.18,5.441,22.072,8.488,33.952c5.062-5.292,9.533-9.963,14.678-15.339c0.48,2.979,0.838,4.988,1.125,7.008
	c2.354,16.627,3.686,33.473,7.309,49.825c4.094,18.48,6.395,36.81,4.893,55.707c-0.904,11.371,0.051,22.91-1.217,34.22
	C1427.691,353.494,1430.642,358.865,1438.533,362.201z"/>
<path style="fill-rule:evenodd;clip-rule:evenodd;fill:#49382D;" d="M1437.771,522.521l-127.754-42.099
	c-4.951-31.419-9.871-62.842-14.744-94.272c-0.477-3.076-1.752-4.84-4.693-6.137c-19.914-8.784-39.797-17.646-59.535-26.818
	c-3.029-1.407-6.021-4.074-7.748-6.933c-55.014-91.107-109.867-182.311-164.75-273.498c-1.014-1.688-2.055-3.36-2.684-4.388
	c-9.627-0.543-18.719-1.056-28.072-1.583c-1.469,14.863,0.264,29.801-5.973,44.148c-2.809-1.475-5.836-2.727-8.486-4.533
	c-4.211-2.875-8.303-3.517-12.67-0.581c-3.816,2.563-6.396,1.378-9.609-1.804c-7.264-7.189-15.172-13.729-22.637-20.371
	c-3.57,9.299-7.738,20.492-12.209,31.564c-1.059,2.623-2.973,4.965-4.777,7.209c-4.361,5.43-10.057,5.961-16.346,4.141
	c-1.211-0.35-2.555-0.242-4.422-0.394c0,5.7,0.012,11.114-0.002,16.528c-0.049,16.068-0.096,32.137-0.148,48.205
	c-7.65-6.189-15.488-12.184-23.559-18.468c-7.727,11.716-15.059,23.061-22.693,34.197c-1.342,1.956-3.744,3.728-6.012,4.415
	c-15.146,4.593-30.629,8.191-45.523,13.471c-10.998,3.896-20.887,4.427-30.74-2.234c-1.336-0.901-3.014-1.295-5.031-2.13
	c-1.684,9.1-3.559,17.939-4.863,26.862c-0.615,4.201-2.365,6.654-6.197,8.525c-8.295,4.051-16.266,8.764-24.529,12.888
	c-3.391,1.692-5.164,3.917-6.078,7.622c-10.477,42.424-21.143,84.801-31.633,127.222c-0.732,2.962-1.957,4.41-4.998,5.068
	c-9.508,2.059-18.941,4.453-28.412,6.685c-14.23,3.354-28.469,6.678-42.955,10.073c-4.062-12.052-7.99-23.709-11.967-35.507
	c-1.719,0.648-2.943,1.086-4.15,1.568c-36.906,14.732-73.791,29.519-110.76,44.094c-2.484,0.979-5.816,1.15-8.373,0.399
	c-26.896-7.89-53.725-16.003-80.533-24.184c-3.04-0.928-4.967-0.705-7.195,1.92c-6.727,7.932-13.753,15.617-20.859,23.214
	c-1.145,1.222-3.363,2.25-4.973,2.106c-29.598-2.641-59.184-5.413-88.752-8.365c-2.953-0.294-6.068-1.46-8.605-3.031
	c-11.5-7.132-22.789-14.603-34.237-21.822c-1.729-1.09-3.853-2.002-5.854-2.141c-11.859-0.827-23.737-1.385-35.608-2.067
	c-11.82-0.682-23.639-1.402-35.844-2.13c1.555-9.434,3.271-18.345,4.383-27.329c0.449-3.626,2.033-5.471,5.086-7.039
	c8.656-4.447,17.24-9.049,25.697-13.859c1.8-1.024,3.502-2.97,4.289-4.887c2.821-6.856,6.002-13.707,7.621-20.885
	c2.799-12.404,9.42-20.408,21.979-23.373c2.683-0.634,5.187-2.113,7.695-3.357c1.12-0.554,2.71-1.312,2.97-2.281
	c2.33-8.672,4.412-17.413,6.679-26.582c-46.451-2.973-92.198-5.902-138.48-8.865c1.015-2.207,1.704-3.85,2.508-5.433
	c12.628-24.853,25.222-49.721,37.974-74.509c1.511-2.936,1.676-5.355,0.316-8.355c-4.49-9.912-8.852-19.887-13-29.947
	c-1.021-2.477-1.613-5.402-1.438-8.059c1.687-25.537,3.528-51.065,5.482-76.584c0.238-3.119-0.604-5.187-2.873-7.319
	c-12.636-11.88-25.128-23.911-37.63-35.933c-1.13-1.087-1.977-2.47-2.954-3.715c-0.331,0-0.661,0-0.992,0
	c-8.402,9.307-16.381,19.043-25.293,27.834c-20.344,20.068-34.355,44.6-49.135,68.564c-5.756,9.332-12.526,16.967-21.975,22.709
	c-9.843,5.98-19.02,13.06-28.486,19.658C0,278.136,0,406.66,0,535.186c0.16,0,0.326,0,0.487,0v230.932h1438.721V522.521H1437.771z"
	/>
<g>
	<g>
		<path style="fill-rule:evenodd;clip-rule:evenodd;fill:#6E5C4F;" d="M947.712,536.506c5.641-16.295,11.283-32.59,17.152-49.552
			c-11.674-3.396-23.098-6.72-34.77-10.115c4.68-26.863,9.303-53.399,13.926-79.937c0.369-0.052,0.736-0.104,1.107-0.155
			c2.465,18.428,4.932,36.856,7.488,55.954c9.334,0,18.217,0,27.486,0c2.654,12.134,5.191,23.626,7.682,35.13
			c3.512,16.221,6.988,32.449,10.479,48.675C981.414,536.506,964.564,536.506,947.712,536.506z"/>
		<path style="fill-rule:evenodd;clip-rule:evenodd;fill:#6E5C4F;" d="M900.136,259.964c2.662-4.643,5.43-9.23,7.967-13.94
			c4.432-8.227,8.723-16.53,13.717-26.021c1.848,10.961,2.951,20.741,5.23,30.239c3.213,13.398-1.248,26.074-2.57,39.036
			c-0.768,7.519-2.354,14.951-3.324,22.454c-0.215,1.654,0.463,3.493,1.006,5.157c0.4,1.226,1.109,2.418,1.92,3.435
			c8.504,10.678,10.658,22.816,8.803,36.069c-0.797,5.699-0.885,11.498-1.357,18.159c-5.041-2.852-10.098-5.147-14.398-8.434
			c-1.609-1.229-1.689-4.729-2.07-7.254c-4.766-31.559-9.455-63.127-14.189-94.691c-0.066-0.438-0.48-0.824-0.732-1.235
			C900.136,261.946,900.136,260.955,900.136,259.964z"/>
		<path style="fill-rule:evenodd;clip-rule:evenodd;fill:#6E5C4F;" d="M1011.15,201.483c-2.928,10.5-5.855,21-9.125,32.732
			c-6.617-16.926-12.793-32.645-18.855-48.405c-0.42-1.092-0.176-2.544,0.064-3.769c3.395-17.426,6.842-34.842,11.232-52.412
			c0.598,3.504,1.498,6.987,1.744,10.516c1.402,20.227,6.684,39.496,14.053,58.271c0.162,0.414,0.584,0.725,0.887,1.084
			C1011.15,200.163,1011.15,200.823,1011.15,201.483z"/>
		<path style="fill-rule:evenodd;clip-rule:evenodd;fill:#6E5C4F;" d="M955.345,159.005c1.758,13.996,3.75,27.971,5.143,42.004
			c0.465,4.688,1.734,7.955,6.518,8.975c8.984,1.916,10.699,7.455,10.682,16.223c-0.121,61.609,0.416,123.219,0.742,184.828
			c0.01,1.628,0.002,3.256,0.002,5.219c-4.623,0.388-8.98,0.752-13.582,1.138c-0.43-10.043-0.92-19.908-1.262-29.779
			c-0.486-14.027,0.01-28.155-1.518-42.063c-1.701-15.476-5.066-30.779-7.969-46.107c-1.742-9.203-4.656-18.229-5.775-27.488
			c-0.838-6.938,0.25-14.125,0.652-21.192c1.182-20.761,2.439-41.517,3.688-62.274c0.592-9.834,1.23-19.665,1.848-29.498
			C954.791,158.992,955.066,158.999,955.345,159.005z"/>
	</g>
	<g>
		<path style="fill-rule:evenodd;clip-rule:evenodd;fill:#42342B;" d="M996.962,265.909c3.844,4.43,7.688,8.859,12.033,13.867
			c5.42-16.177,10.666-31.834,15.914-47.49c0.268-0.002,0.535-0.004,0.801-0.006c0.973,7.846,2.668,15.684,2.748,23.538
			c0.127,12.446,3.58,23.413,12.23,32.293c6.412,6.581,6.406,13.79,4.877,22.12c-3.627,19.736-6.189,39.673-10.055,59.357
			c-1.496,7.615-4.533,15.222-8.312,22.03c-7.051,12.706-7.734,24.923-1.779,38.256c3.588,8.033,7.443,16.924,7.307,25.366
			c-0.135,8.446-5.086,16.816-7.939,25.215c-1.133,3.334-2.301,6.655-4.396,9.982c-2.096-8.204-4.23-16.398-6.275-24.613
			c-4.527-18.183-9.02-36.374-13.494-54.569c-0.35-1.421-0.633-2.897-0.658-4.354c-0.742-38.959-1.428-77.921-2.182-116.88
			c-0.066-3.416-0.535-6.824-0.818-10.236C996.962,275.161,996.962,270.534,996.962,265.909z"/>
		<path style="fill-rule:evenodd;clip-rule:evenodd;fill:#42342B;" d="M1037.601,536.504c4.783-15.697,9.543-31.401,14.361-47.088
			c3.037-9.892,6.361-19.702,9.115-29.672c0.762-2.753,0.666-6.196-0.277-8.89c-4.621-13.179-9.748-26.18-14.469-39.325
			c-0.83-2.308-1.205-5.129-0.725-7.498c3.168-15.615,6.619-31.175,10.01-46.745c0.203-0.933,0.674-1.808,1.238-3.271
			c6.709,9.278,13.654,17.901,19.375,27.271c2.305,3.775,2.096,9.166,2.744,13.861c3.463,25.103,6.795,50.222,10.252,75.325
			c2.805,20.374,5.732,40.733,8.57,61.104c0.227,1.623,0.184,3.283,0.268,4.927C1077.91,536.504,1057.755,536.504,1037.601,536.504z
			"/>
		<path style="fill-rule:evenodd;clip-rule:evenodd;fill:#42342B;" d="M1270.531,536.504c-4.73-5.64-9.26-11.469-14.273-16.845
			c-2.812-3.016-2.861-4.963-0.258-8.246c8.604-10.853,16.916-21.942,25.043-33.158c1.463-2.021,2.336-5.144,2.096-7.625
			c-1.973-20.474-4.273-40.918-6.521-61.788c4.344-1.889,8.67-3.771,13.516-5.879c2.07,4.621,3.729,9.253,6.109,13.479
			c11.48,20.38,13.279,43.204,16.854,65.583c2.756,17.257,5.406,34.53,8.137,51.791c0.094,0.596,0.553,1.133,0.84,1.696
			c-0.99,0.33-1.98,0.944-2.973,0.948C1302.91,536.521,1286.72,536.504,1270.531,536.504z"/>
		<path style="fill-rule:evenodd;clip-rule:evenodd;fill:#42342B;" d="M1177.359,536.504c-1.629-15.707,1.674-30.732,6.209-45.606
			c1.621-5.322,2.998-10.719,4.824-17.3c13.221,21.585,25.873,42.246,38.525,62.906
			C1210.4,536.504,1193.878,536.504,1177.359,536.504z"/>
		<path style="fill-rule:evenodd;clip-rule:evenodd;fill:#42342B;" d="M1120.861,536.504c-0.973-8.646-2.061-17.28-2.893-25.94
			c-0.986-10.299-1.752-20.619-2.705-32.023c14.574,10.914,28.525,21.36,42.953,32.163c-3.656,4.218-6.848,8.365-10.535,12.011
			c-3.219,3.183-4.98,6.346-3.107,10.854c0.35,0.844,0.066,1.949,0.076,2.936C1136.72,536.504,1128.791,536.504,1120.861,536.504z"
			/>
		<path style="fill-rule:evenodd;clip-rule:evenodd;fill:#42342B;" d="M1127.449,221.896c3.908,12,7.684,24.045,11.838,35.96
			c0.84,2.407,2.744,4.81,4.805,6.351c5.004,3.742,12.408,5.877,15.043,10.727c2.58,4.746,0.502,12.051,0.387,18.231
			c-0.559,30.021-3.16,59.829-9.244,89.281c-0.93,4.507-1.9,9.03-2.363,13.596c-0.17,1.688,0.652,3.844,1.734,5.232
			c5.578,7.155,11.48,14.059,17.037,21.229c1.133,1.462,2.107,3.885,1.732,5.542c-3.27,14.411-6.859,28.749-10.377,43.104
			c-0.141,0.577-0.504,1.101-0.998,2.154c-9.271-9.941-18.891-19.084-26.916-29.461c-3.012-3.893-2.525-10.623-3.279-16.108
			c-3.312-24.128-6.615-48.258-9.66-72.42c-1.129-8.965-1.785-18.011-2.197-27.041c-0.359-7.907,0.391-15.877-0.162-23.762
			c-1.773-25.312,2.184-49.827,9.363-73.973c0.83-2.791,1.48-5.638,2.215-8.458C1126.753,222.019,1127.101,221.956,1127.449,221.896
			z"/>
		<path style="fill-rule:evenodd;clip-rule:evenodd;fill:#42342B;" d="M1078.351,323.109c-7.289-21.806-14.336-43.695-21.973-65.378
			c-3.557-10.096-5.41-20.168-5.08-30.895c0.316-10.219-0.613-20.471-0.58-30.706c0.006-2.507,1.615-5.017,2.549-7.503
			c0.162-0.432,0.582-0.817,0.969-1.113c9.562-7.321,10.881-17.098,9.996-28.473c-1.547-19.907-2.273-39.905-2.439-59.872
			c-0.043-5.028,3.346-10.087,5.271-15.446c7.832,8.607,10.787,16.35,11.273,26.9c0.664,14.343,1.779,28.664,2.426,43.008
			c0.166,3.664,1.768,5.096,5.023,6.02c6.621,1.875,13.141,4.102,19.91,6.25c-5.117,29.404-8.32,58.861-19.836,86.521
			c-2.279,5.472-3.01,11.783-3.457,17.782c-1.314,17.603-2.125,35.241-3.131,52.866
			C1078.964,323.083,1078.658,323.097,1078.351,323.109z"/>
		<path style="fill-rule:evenodd;clip-rule:evenodd;fill:#42342B;" d="M1184.16,305.09c3.355-4.785,5.982-8.535,9.078-12.952
			c1.184,1.883,2.119,3.316,3.002,4.781c9.455,15.678,19.096,31.248,28.238,47.106c2.971,5.153,6.559,8.842,12.182,10.676
			c2.012,0.656,3.883,1.741,6.117,2.768c-7.621,16.964-15.15,33.724-22.883,50.938c-14.715-3.914-29.246-7.779-44.291-11.779
			c2.613-10.073,5.086-19.872,7.762-29.615c0.357-1.302,1.645-2.409,2.654-3.46c9.256-9.639,18.543-19.246,27.914-28.959
			C1204.054,324.805,1194.259,315.098,1184.16,305.09z"/>
		<path style="fill-rule:evenodd;clip-rule:evenodd;fill:#42342B;" d="M1252.779,389.051c1.951,13.002,3.936,25.999,5.84,39.008
			c1.477,10.089,2.9,20.188,4.217,30.299c0.166,1.278,0.006,3.114-0.785,3.926c-10.111,10.369-20.367,20.598-31.082,31.361
			c-10.455-18.603-20.58-36.62-31.418-55.905c7.182,2.017,13.301,3.424,19.188,5.495c4.119,1.448,5.947,0.388,7.816-3.483
			c8.229-17.026,16.816-33.879,25.273-50.794C1252.144,388.987,1252.462,389.02,1252.779,389.051z"/>
		<path style="fill-rule:evenodd;clip-rule:evenodd;fill:#42342B;" d="M1180.529,272.901c-8.498-8.235-17.023-16.442-25.449-24.752
			c-0.82-0.81-1.41-2.24-1.439-3.4c-0.148-5.572-0.068-11.154,0.832-17.21c8.955,14.86,17.912,29.718,26.867,44.579
			C1181.068,272.379,1180.798,272.64,1180.529,272.901z"/>
		<path style="fill-rule:evenodd;clip-rule:evenodd;fill:#42342B;" d="M1171.728,348.8c2.373-9.191,4.406-17.068,6.693-25.93
			c4.416,5.396,8.273,10.109,12.527,15.311C1184.687,341.641,1178.857,344.861,1171.728,348.8z"/>
		<path style="fill-rule:evenodd;clip-rule:evenodd;fill:#42342B;" d="M1100.353,137.588c6.482,10.772,12.965,21.546,19.447,32.319
			c-0.244,0.174-0.488,0.346-0.732,0.518c-6.598-8.07-13.43-15.969-19.611-24.347c-1.379-1.87-0.465-5.433-0.607-8.216
			C1099.351,137.771,1099.851,137.681,1100.353,137.588z"/>
	</g>
	<g>
		<path style="fill-rule:evenodd;clip-rule:evenodd;fill:#776253;" d="M1438.568,491.233c-9.041-10.683-18.082-21.366-26.264-31.035
			c8.949-9.69,17.607-19.063,26.264-28.437C1438.568,451.586,1438.568,471.409,1438.568,491.233z"/>
		<path style="fill-rule:evenodd;clip-rule:evenodd;fill:#776253;" d="M1350.585,407.26c-4.996-7.884-9.996-15.766-14.986-23.653
			c-1.764-2.789-3.383-5.681-5.295-8.366c-2.947-4.142-4.061-8.074-3.215-13.604c0.908-5.951-0.967-12.371-1.875-18.551
			c-3.824-26.058-7.74-52.103-11.623-78.15c-3.059-20.515-6.131-41.028-9.143-61.55c-0.182-1.221-0.287-2.739,0.266-3.734
			c6.225-11.192,12.584-22.31,19.676-34.8c0,12.108,0,22.698,0,33.83c8.758,0,17.082,0,25.986,0c0,4.437-0.023,8.349,0.006,12.261
			c0.051,6.771-0.68,13.671,0.359,20.291c3.32,21.165-3.775,40.376-10.717,59.502c-3.082,8.494-2.883,15.585,1.018,23.799
			c7.613,16.039,13.971,32.671,21.084,48.956c1.559,3.566,1.404,6.272-0.83,9.468c-3.396,4.856-6.002,10.274-9.494,15.05
			c-3.125,4.273-3.844,8.431-1.939,13.287c0.701,1.786,0.893,3.771,1.316,5.665C1350.98,407.061,1350.783,407.16,1350.585,407.26z"
			/>
		<path style="fill-rule:evenodd;clip-rule:evenodd;fill:#776253;" d="M1169.789,98.156c8.137,18.694,16.014,36.767,23.869,54.846
			c3.146,7.237,6.41,14.431,9.246,21.788c0.699,1.811,0.613,4.544-0.277,6.244c-4.811,9.183-9.9,18.223-15.092,27.199
			c-1.396,2.414-1.691,4.115,0.152,6.543c3.768,4.959,9.111,9.916,10.031,15.496c0.885,5.365-3.006,11.512-4.777,17.324
			c-2.861,9.389-5.707,18.783-8.822,29.044c-1.268-1.713-2.164-2.743-2.859-3.896c-8.096-13.406-16.422-26.686-24.131-40.312
			c-4.215-7.445-3.617-15.824-1.822-23.93c0.627-2.834,2.08-5.561,3.529-8.123c9.703-17.164,12.625-35.511,11.215-55.075
			c-1.1-15.28-0.682-30.669-0.926-46.011C1169.123,99.177,1169.255,99.056,1169.789,98.156z"/>
		<path style="fill-rule:evenodd;clip-rule:evenodd;fill:#776253;" d="M1243.144,159.139c3.428,2.836,6.328,5.235,9.754,8.071
			c-8.225,11.729-16.387,23.369-25.236,35.99c-1.496-10.776-2.875-20.436-4.162-30.107c-0.826-6.197-1.709-12.401-2.141-18.631
			c-0.119-1.695,0.844-4.003,2.109-5.152c3.527-3.207,7.369-6.107,11.289-8.835c2.957-2.06,4.129-4.665,4.643-8.175
			c2.09-14.316,4.414-28.602,6.85-42.863c0.305-1.77,1.807-3.334,3.486-6.275c2.834,8.214,5.146,14.846,7.408,21.495
			c3.49,10.263,6.811,20.585,10.492,30.776c1.104,3.052,0.49,4.641-2.057,6.506C1258.144,147.381,1250.933,153.13,1243.144,159.139z
			"/>
		<path style="fill-rule:evenodd;clip-rule:evenodd;fill:#776253;" d="M1405.185,312.288c2.213,10.069,4.432,20.139,6.637,30.209
			c4.531,20.701,9.008,41.416,13.631,62.097c0.812,3.635,0.6,6.448-2.541,9.073c-5.133,4.293-9.908,9.013-14.754,13.478
			c1.803-5.807-3.328-6.983-7.139-8.73c-4.012-1.841-5.738-3.789-4.32-8.597c1.809-6.137,2.432-12.613,3.801-18.893
			c0.854-3.908,1.488-7.502-3.848-9.352c1.645-1.346,2.855-2.336,4.268-3.49c-4.582-4.9-9.078-9.472-13.242-14.33
			c-1.043-1.22-1.854-3.674-1.348-5.031c5.787-15.544,11.848-30.986,17.838-46.455
			C1404.505,312.273,1404.847,312.281,1405.185,312.288z"/>
		<path style="fill-rule:evenodd;clip-rule:evenodd;fill:#776253;" d="M1244.568,360.092c-10.402-1.961-16.199-8.104-20.904-16.513
			c-9.096-16.265-19.066-32.039-28.834-48.281c8.266-11.809,16.553-23.645,25.525-36.459c1.826,12.134,3.684,23.093,5.059,34.112
			c0.934,7.464,2.756,14.31,7.232,20.622c6.195,8.732,11.803,17.895,17.352,27.06c0.961,1.586,1.051,4.325,0.414,6.134
			C1248.783,351.375,1246.515,355.758,1244.568,360.092z"/>
		<path style="fill-rule:evenodd;clip-rule:evenodd;fill:#776253;" d="M1276.013,175.402c0,11.796-0.234,22.937,0.143,34.059
			c0.115,3.354,1.377,6.976,3.09,9.903c3.154,5.393,7.123,10.304,10.539,15.554c0.766,1.177,1.379,3.289,0.842,4.349
			c-5.273,10.364-10.807,20.596-16.619,31.527c-6.924-10.137-13.404-19.614-19.873-29.098c-3.254-4.769-6.648-9.451-9.621-14.389
			c-0.789-1.311-0.984-3.899-0.209-5.094c9.889-15.204,20.002-30.264,30.072-45.35
			C1274.617,176.507,1275.033,176.268,1276.013,175.402z"/>
		<path style="fill-rule:evenodd;clip-rule:evenodd;fill:#776253;" d="M1125.185,95.079c-0.627,9.01-1.068,17.056-1.797,25.076
			c-0.342,3.762,0.355,6.665,3.814,8.762c2.092,1.266,3.652,3.449,5.787,4.596c6.492,3.488,7.098,8.387,5.336,15.087
			c-3.123,11.88-5.375,23.989-8.236,37.139c-2.938-4.11-5.494-7.291-7.621-10.735c-6.053-9.811-11.77-19.831-17.951-29.559
			c-2.656-4.18-3.34-8.135-2.361-13.012c1.777-8.848,2.791-17.846,4.268-26.758c0.209-1.255,0.939-2.996,1.922-3.453
			C1113.675,99.739,1119.162,97.59,1125.185,95.079z"/>
		<path style="fill-rule:evenodd;clip-rule:evenodd;fill:#776253;" d="M1287.003,156.763c-3.389-11.82-6.508-22.663-9.576-33.521
			c-0.16-0.565,0.02-1.289,0.215-1.882c3.271-9.944,6.57-19.88,10.264-31.026c1.996,3.523,3.473,6.095,4.918,8.684
			c4.324,7.752,8.762,15.445,12.84,23.322c0.787,1.521,0.904,4.248,0.051,5.623C1299.908,137.317,1293.757,146.462,1287.003,156.763
			z"/>
		<path style="fill-rule:evenodd;clip-rule:evenodd;fill:#776253;" d="M1410.71,283.722c-4.732-3.699-8.949-6.996-13.545-10.588
			c2.908-5.15,5.682-10.062,8.729-15.461c3.277,2.637,6.242,4.887,9.018,7.351c0.668,0.595,1.195,2.044,0.953,2.854
			C1414.337,273.015,1412.576,278.083,1410.71,283.722z"/>
	</g>
	<g>
		<path style="fill-rule:evenodd;clip-rule:evenodd;fill:#4C3B2F;" d="M1321.097,534.53c-1.922-11.194-3.932-22.374-5.744-33.586
			c-3.053-18.887-5.984-37.794-8.947-56.695c-0.1-0.637-0.014-1.303-0.014-3.17c1.225,2.481,2.029,3.951,2.693,5.482
			c8.977,20.67,17.867,41.378,26.965,61.994c1.379,3.129,1.107,5.251-1.014,7.957c-4.559,5.815-8.66,11.989-12.949,18.018
			C1321.757,534.53,1321.427,534.53,1321.097,534.53z"/>
		<path style="fill-rule:evenodd;clip-rule:evenodd;fill:#4C3B2F;" d="M1374.568,326.967c-6.773-9.657-13.066-18.526-19.193-27.507
			c-0.701-1.026-0.822-2.738-0.607-4.033c0.371-2.252,1.021-4.506,1.891-6.621c6.822-16.596,6.514-34.117,6.779-51.561
			c0.154-10.238,0.879-20.533,0.082-30.703c-0.939-11.998,3.314-22.182,9.047-33.279c1.41,7.312,2.736,13.77,3.889,20.257
			c2.475,13.927,5.438,27.805,7.012,41.836c0.703,6.271-1.25,12.901-2.371,19.304c-1.67,9.525-3.67,18.994-5.646,29.086
			c5.287,0.779,10.258,1.512,15.707,2.314C1385.648,299.644,1380.244,312.972,1374.568,326.967z"/>
		<path style="fill-rule:evenodd;clip-rule:evenodd;fill:#4C3B2F;" d="M1247.089,274.29c12.408,7.348,24.24,14.356,36.324,21.514
			c4.045-4.293,7.979-8.47,12.58-13.355c0.801,5.902,1.58,11.109,2.201,16.336c0.994,8.336,1.908,16.682,2.779,25.031
			c0.115,1.099-0.131,2.266-0.371,3.366c-2.449,11.235-5.02,22.443-7.34,33.703c-0.615,2.981-2.047,4.421-4.977,4.903
			c-5.025,0.826-10.016,1.864-15.484,2.9c0.361-8.126,0.137-16.175,1.217-24.045c1.377-10.033,0.275-18.725-7.74-25.921
			c-3.516-3.156-5.715-7.776-9.221-10.947c-7.662-6.929-9.543-15.665-9.387-25.351
			C1247.71,279.999,1247.337,277.567,1247.089,274.29z"/>
		<path style="fill-rule:evenodd;clip-rule:evenodd;fill:#4C3B2F;" d="M1331.052,467.717c-5.24-16.611-9.756-32.212-15.152-47.502
			c-2.736-7.752-3.309-14.9-0.953-22.85c3.258-10.996,5.506-22.291,8.42-34.437c4.832,7.64,9.201,14.543,13.566,21.447
			c0.881,1.394,1.631,2.894,2.664,4.163c9.258,11.376,12.545,25.081,15.213,39.009c0.281,1.467,0.33,3.42-0.41,4.571
			C1346.927,443.745,1339.269,455.251,1331.052,467.717z"/>
		<path style="fill-rule:evenodd;clip-rule:evenodd;fill:#4C3B2F;" d="M1375.128,459.775c13.051,14.122,25.543,27.639,38.307,41.451
			c-10.342,9.189-21.846,19.413-33.805,30.04c-6.271-11.493-11.717-22.761-18.383-33.251c-4.607-7.249-5.025-12.8,0.889-19.436
			C1366.796,473.35,1370.214,467.014,1375.128,459.775z"/>
		<path style="fill-rule:evenodd;clip-rule:evenodd;fill:#4C3B2F;" d="M1396.535,382.259c5.174,1.396,5.633,4.528,4.611,8.851
			c-1.662,7.045-2.715,14.231-4.287,21.299c-0.594,2.674-0.348,4.367,2.434,5.435c1.982,0.76,3.799,1.964,5.674,2.993
			c4.219,2.311,5.205,7.023,1.828,10.437c-5.553,5.613-11.373,10.964-17.314,16.648c-0.359-0.774-0.941-1.841-1.363-2.967
			c-5.289-14.141-10.475-28.322-15.898-42.41c-1.084-2.812-0.848-4.26,1.863-5.904
			C1381.798,391.955,1389.302,386.924,1396.535,382.259z"/>
	</g>
</g>
</svg>
