<?xml version="1.0" encoding="iso-8859-1"?>
<!-- Generator: Adobe Illustrator 16.0.0, SVG Export Plug-In . SVG Version: 6.00 Build 0)  -->
<!DOCTYPE svg PUBLIC "-//W3C//DTD SVG 1.1//EN" "http://www.w3.org/Graphics/SVG/1.1/DTD/svg11.dtd">
<svg version="1.1" id="Layer_1" xmlns="http://www.w3.org/2000/svg" xmlns:xlink="http://www.w3.org/1999/xlink" x="0px" y="0px"
	 width="1439.209px" height="805.093px" viewBox="0 0 1439.209 805.093" style="enable-background:new 0 0 1439.209 805.093;"
	 xml:space="preserve">
<g id="columns_1_">
	<rect x="1136.735" y="37.148" style="fill:#55483E;" width="20.866" height="79.57"/>
	<rect x="1172.736" y="37.148" style="fill:#55483E;" width="20.867" height="79.57"/>
	<rect x="1208.738" y="37.148" style="fill:#55483E;" width="20.866" height="79.57"/>
	<rect x="1244.739" y="37.148" style="fill:#55483E;" width="20.867" height="79.57"/>
	<polygon style="fill:#4C4037;" points="1150.073,49.989 1150.073,114.54 1144.265,114.54 1144.265,49.989 1141.359,49.989 
		1141.359,114.54 1141.359,116.718 1144.265,116.718 1150.073,116.718 1152.979,116.718 1152.979,114.54 1152.979,49.989 	"/>
	<polygon style="fill:#4C4037;" points="1186.074,49.989 1186.074,114.54 1180.265,114.54 1180.265,49.989 1177.36,49.989 
		1177.36,114.54 1177.36,116.718 1180.265,116.718 1186.074,116.718 1188.979,116.718 1188.979,114.54 1188.979,49.989 	"/>
	<polygon style="fill:#4C4037;" points="1222.076,49.989 1222.076,114.54 1216.268,114.54 1216.268,49.989 1213.362,49.989 
		1213.362,114.54 1213.362,116.718 1216.268,116.718 1222.076,116.718 1224.981,116.718 1224.981,114.54 1224.981,49.989 	"/>
	<polygon style="fill:#4C4037;" points="1258.077,49.989 1258.077,114.54 1252.269,114.54 1252.269,49.989 1249.363,49.989 
		1249.363,114.54 1249.363,116.718 1252.269,116.718 1258.077,116.718 1260.981,116.718 1260.981,114.54 1260.981,49.989 	"/>
</g>
<g>
	<polygon style="fill:#4C4037;" points="1265.767,27.976 1220.288,27.976 1220.288,46.32 1265.767,46.32 1265.767,116.718 
		1270.965,116.718 1270.965,46.32 1270.965,27.976 	"/>
	<polygon style="fill:#65564A;" points="1208.096,0 1148.647,0 1211.517,22.014 1220.288,22.014 1220.288,27.976 1270.965,27.976 
		1270.965,22.014 	"/>
</g>
<polygon style="fill:#8D7868;" points="1156.195,0 1148.647,0 1152.401,1.29 1091.416,22.014 1091.416,46.32 1199.421,46.32 
	1199.421,116.718 1220.288,116.718 1220.288,46.32 1220.288,37.148 1220.288,22.014 "/>
<g id="columns">
	<rect x="1083.849" y="37.148" style="fill:#9F8875;" width="20.867" height="79.57"/>
	<rect x="1119.851" y="37.148" style="fill:#9F8875;" width="20.867" height="79.57"/>
	<rect x="1155.852" y="37.148" style="fill:#9F8875;" width="20.867" height="79.57"/>
	<rect x="1191.854" y="37.148" style="fill:#9F8875;" width="20.867" height="79.57"/>
	<polygon style="fill:#79604C;" points="1097.187,49.989 1097.187,114.54 1091.378,114.54 1091.378,49.989 1088.474,49.989 
		1088.474,114.54 1088.474,116.718 1091.378,116.718 1097.187,116.718 1100.092,116.718 1100.092,114.54 1100.092,49.989 	"/>
	<polygon style="fill:#79604C;" points="1133.188,49.989 1133.188,114.54 1127.379,114.54 1127.379,49.989 1124.474,49.989 
		1124.474,114.54 1124.474,116.718 1127.379,116.718 1133.188,116.718 1136.093,116.718 1136.093,114.54 1136.093,49.989 	"/>
	<polygon style="fill:#79604C;" points="1169.19,49.989 1169.19,114.54 1163.381,114.54 1163.381,49.989 1160.477,49.989 
		1160.477,114.54 1160.477,116.718 1163.381,116.718 1169.19,116.718 1172.095,116.718 1172.095,114.54 1172.095,49.989 	"/>
	<polygon style="fill:#79604C;" points="1205.19,49.989 1205.19,114.54 1199.382,114.54 1199.382,49.989 1196.478,49.989 
		1196.478,114.54 1196.478,116.718 1199.382,116.718 1205.19,116.718 1208.096,116.718 1208.096,114.54 1208.096,49.989 	"/>
</g>
<polygon style="fill:#9F8875;" points="1148.647,0 1083.867,22.014 1083.867,46.32 1212.739,46.32 1212.739,22.014 "/>
<g>
	<g>
		<rect x="1093.48" y="32.409" style="fill:#7C624E;" width="4.738" height="9.937"/>
		<rect x="1104.716" y="32.409" style="fill:#7C624E;" width="4.738" height="9.937"/>
		<rect x="1115.951" y="32.409" style="fill:#7C624E;" width="4.738" height="9.937"/>
		<rect x="1127.187" y="32.409" style="fill:#7C624E;" width="4.738" height="9.937"/>
		<rect x="1138.422" y="32.409" style="fill:#7C624E;" width="4.738" height="9.937"/>
		<rect x="1149.657" y="32.409" style="fill:#7C624E;" width="4.738" height="9.937"/>
		<rect x="1160.892" y="32.409" style="fill:#7C624E;" width="4.739" height="9.937"/>
		<rect x="1172.127" y="32.409" style="fill:#7C624E;" width="4.739" height="9.937"/>
		<rect x="1183.362" y="32.409" style="fill:#7C624E;" width="4.738" height="9.937"/>
		<rect x="1194.598" y="32.409" style="fill:#7C624E;" width="4.738" height="9.937"/>
	</g>
	<polygon style="fill:#7C624E;" points="1148.342,5.835 1148.342,5.809 1148.304,5.822 1148.266,5.809 1148.266,5.835 
		1093.462,24.46 1093.462,27.976 1097.283,27.976 1148.304,10.867 1199.324,27.976 1203.146,27.976 1203.146,24.46 	"/>
</g>
<g id="shadow" style="opacity:0.7;">
	<polygon style="fill:#9F8875;" points="1091.378,116.718 1097.187,116.718 1100.092,116.718 1104.716,116.718 1104.716,46.32 
		1119.851,46.32 1119.851,116.718 1124.474,116.718 1127.379,116.718 1133.188,116.718 1136.093,116.718 1140.718,116.718 
		1140.718,67.797 1108.134,13.768 1083.867,22.014 1083.867,37.148 1083.849,37.148 1083.849,116.718 1088.474,116.718 	"/>
	<polygon style="fill:#9F8875;" points="1155.852,92.893 1155.852,116.718 1160.477,116.718 1163.381,116.718 1169.19,116.718 
		1170.22,116.718 	"/>
</g>
<path style="fill:#5F4836;" d="M1438.533,401.177c0,58.087,0,116.175,0,174.305c-168.057,0-336.113,0-504.515,0
	c0-97.25,0-194.546,0-291.841c0.213-1.74,0.604-3.479,0.611-5.22c0.112-22.02,0.187-44.04,0.234-66.061
	c0.031-13.994,0.006-27.988,0.006-42.283c1.901,0.13,3.237,0.002,4.438,0.339c6.266,1.763,11.977,1.342,16.351-4.033
	c1.804-2.217,3.748-4.512,4.806-7.099c4.473-10.94,8.636-22.005,12.247-31.311c7.087,6.205,14.706,12.231,21.491,19.065
	c3.879,3.906,7.085,5.772,12.018,2.406c3.351-2.286,6.57-1.896,9.974,0.335c3.096,2.028,6.559,3.507,9.876,5.237
	c6.394-14.186,4.415-29.111,6.041-43.701c7.081,0.416,13.72,0.34,20.191,1.335c4.958,0.763,7.866-0.673,9.667-5.025
	c1.254-3.03,3.457-3.752,6.704-3.43c6.891,0.685,13.864,0.631,20.736,1.435c11.327,1.325,23.229-0.437,33.712,5.846
	c0.829,0.496,2.279,0.291,3.348,0.033c13.613-3.285,27.099-1.893,40.682,0.473c5.043,0.878,10.889,1.644,15.443-0.018
	c10.889-3.973,21.791-5.933,33.34-5.443c7.412,0.314,14.854,0.005,22.28-0.158c4.165-0.091,8.37-0.562,10.132,5.062
	c10.834-6.104,21.215-11.954,31.597-17.804c0.991,0,1.982,0,2.974,0c4.799,1.522,9.599,3.045,14.808,4.697
	c0,3.317,0.292,6.745-0.065,10.105c-0.593,5.562,0.775,10.179,5.157,13.897c10.527,8.939,15.514,20.469,17.057,33.984
	c0.866,7.564,1.546,15.961,5.352,22.159c3.81,6.204,11.406,10.14,17.344,15.068c0.632,0.525,1.359,0.969,1.886,1.582
	c1.918,2.236,3.991,2.041,6.57,1.024c8.233-3.246,16.563-6.255,24.921-9.381c7.591,9.783,15.402,18.776,17.466,31.481
	c1.815,11.18,5.44,22.072,8.487,33.952c5.063-5.292,9.534-9.963,14.678-15.339c0.48,2.979,0.838,4.988,1.125,7.008
	c2.354,16.627,3.687,33.473,7.309,49.825c4.094,18.48,6.395,36.81,4.893,55.707c-0.903,11.371,0.052,22.91-1.217,34.22
	C1427.692,392.47,1430.643,397.841,1438.533,401.177z"/>
<path style="fill-rule:evenodd;clip-rule:evenodd;fill:#49382D;" d="M1437.772,561.498l-127.755-42.099
	c-4.95-31.419-9.87-62.842-14.744-94.272c-0.476-3.076-1.751-4.84-4.692-6.137c-19.915-8.784-39.798-17.646-59.535-26.818
	c-3.029-1.407-6.021-4.074-7.748-6.933c-55.014-91.107-109.868-182.311-164.75-273.498c-1.015-1.688-2.056-3.36-2.685-4.388
	c-9.626-0.543-18.719-1.055-28.071-1.583c-1.47,14.863,0.264,29.801-5.974,44.148c-2.808-1.475-5.836-2.726-8.485-4.534
	c-4.212-2.875-8.303-3.516-12.671-0.581c-3.816,2.564-6.396,1.378-9.609-1.804c-7.264-7.19-15.172-13.729-22.637-20.371
	c-3.569,9.298-7.737,20.492-12.208,31.563c-1.059,2.623-2.974,4.966-4.777,7.21c-4.362,5.429-10.058,5.961-16.347,4.141
	c-1.211-0.351-2.554-0.243-4.422-0.394c0,5.7,0.013,11.114-0.002,16.528c-0.048,16.069-0.096,32.137-0.147,48.205
	c-7.651-6.188-15.488-12.184-23.559-18.467c-7.727,11.716-15.059,23.061-22.693,34.197c-1.342,1.956-3.745,3.728-6.013,4.415
	c-15.146,4.593-30.629,8.192-45.523,13.47c-10.997,3.897-20.886,4.427-30.74-2.233c-1.335-0.902-3.013-1.295-5.031-2.13
	c-1.684,9.1-3.558,17.939-4.863,26.862c-0.614,4.201-2.364,6.654-6.196,8.526c-8.296,4.05-16.267,8.764-24.53,12.887
	c-3.391,1.692-5.163,3.917-6.078,7.622c-10.476,42.424-21.142,84.801-31.633,127.222c-0.732,2.962-1.957,4.41-4.998,5.068
	c-9.508,2.059-18.941,4.453-28.412,6.685c-14.23,3.354-28.469,6.678-42.954,10.073c-4.062-12.052-7.991-23.709-11.968-35.507
	c-1.718,0.648-2.942,1.086-4.15,1.568c-36.905,14.732-73.79,29.519-110.759,44.094c-2.484,0.979-5.816,1.15-8.373,0.399
	c-26.896-7.89-53.726-16.003-80.534-24.184c-3.04-0.928-4.967-0.705-7.194,1.92c-6.727,7.932-13.753,15.617-20.86,23.214
	c-1.144,1.222-3.363,2.25-4.972,2.106c-29.597-2.641-59.184-5.413-88.752-8.365c-2.954-0.294-6.068-1.46-8.605-3.031
	c-11.5-7.132-22.79-14.603-34.237-21.822c-1.729-1.09-3.853-2.002-5.854-2.141c-11.859-0.827-23.738-1.385-35.609-2.067
	c-11.82-0.682-23.638-1.402-35.843-2.13c1.555-9.434,3.271-18.345,4.383-27.329c0.449-3.626,2.033-5.471,5.086-7.039
	c8.656-4.447,17.24-9.049,25.697-13.859c1.799-1.024,3.501-2.97,4.289-4.887c2.821-6.856,6.001-13.708,7.621-20.884
	c2.798-12.405,9.42-20.408,21.979-23.374c2.683-0.633,5.187-2.112,7.695-3.357c1.121-0.554,2.709-1.312,2.97-2.281
	c2.331-8.673,4.413-17.414,6.679-26.582c-46.451-2.973-92.198-5.902-138.48-8.866c1.015-2.207,1.704-3.849,2.508-5.432
	c12.627-24.852,25.222-49.721,37.974-74.509c1.51-2.936,1.675-5.355,0.316-8.355c-4.49-9.913-8.852-19.887-13-29.947
	c-1.021-2.477-1.613-5.403-1.437-8.059c1.687-25.538,3.528-51.065,5.482-76.584c0.238-3.119-0.604-5.187-2.873-7.319
	c-12.636-11.88-25.128-23.911-37.63-35.933c-1.13-1.087-1.977-2.47-2.955-3.715c-0.331,0-0.661,0-0.991,0
	c-8.403,9.307-16.382,19.043-25.293,27.834c-20.344,20.069-34.356,44.6-49.135,68.565c-5.755,9.332-12.526,16.967-21.975,22.708
	C18.644,174.911,9.468,181.99,0,188.588c0,128.524,0,257.048,0,385.573c0.161,0,0.326,0,0.488,0v230.932h1438.721V561.498H1437.772z
	"/>
<g>
	<g>
		<path style="fill-rule:evenodd;clip-rule:evenodd;fill:#6E5C4F;" d="M947.714,575.482c5.641-16.295,11.282-32.59,17.152-49.552
			c-11.674-3.396-23.098-6.72-34.77-10.115c4.68-26.863,9.303-53.399,13.925-79.937c0.37-0.052,0.737-0.104,1.107-0.155
			c2.465,18.428,4.932,36.856,7.488,55.954c9.334,0,18.217,0,27.487,0c2.653,12.134,5.19,23.626,7.682,35.13
			c3.511,16.221,6.987,32.449,10.479,48.675C981.415,575.482,964.564,575.482,947.714,575.482z"/>
		<path style="fill-rule:evenodd;clip-rule:evenodd;fill:#6E5C4F;" d="M900.137,298.94c2.663-4.643,5.43-9.23,7.968-13.94
			c4.432-8.227,8.723-16.53,13.716-26.021c1.849,10.961,2.952,20.741,5.23,30.24c3.214,13.397-1.247,26.074-2.57,39.036
			c-0.767,7.519-2.354,14.951-3.324,22.454c-0.215,1.655,0.464,3.493,1.007,5.157c0.4,1.226,1.109,2.418,1.92,3.434
			c8.503,10.678,10.658,22.817,8.803,36.07c-0.797,5.699-0.885,11.498-1.358,18.159c-5.041-2.852-10.098-5.147-14.397-8.434
			c-1.61-1.229-1.69-4.729-2.071-7.254c-4.765-31.559-9.454-63.127-14.189-94.691c-0.066-0.438-0.48-0.825-0.732-1.236
			C900.137,300.922,900.137,299.931,900.137,298.94z"/>
		<path style="fill-rule:evenodd;clip-rule:evenodd;fill:#6E5C4F;" d="M1011.15,240.46c-2.927,10.5-5.854,20.999-9.125,32.731
			c-6.617-16.926-12.793-32.644-18.854-48.405c-0.421-1.092-0.176-2.543,0.063-3.769c3.395-17.425,6.842-34.841,11.232-52.411
			c0.598,3.503,1.498,6.987,1.744,10.515c1.403,20.226,6.685,39.497,14.053,58.271c0.162,0.414,0.585,0.726,0.887,1.085
			C1011.15,239.139,1011.15,239.799,1011.15,240.46z"/>
		<path style="fill-rule:evenodd;clip-rule:evenodd;fill:#6E5C4F;" d="M955.346,197.981c1.758,13.997,3.75,27.971,5.143,42.004
			c0.466,4.687,1.735,7.954,6.519,8.974c8.983,1.917,10.698,7.455,10.682,16.223c-0.121,61.608,0.416,123.218,0.741,184.828
			c0.01,1.628,0.002,3.256,0.002,5.219c-4.623,0.388-8.979,0.752-13.581,1.138c-0.431-10.043-0.921-19.908-1.262-29.779
			c-0.486-14.027,0.01-28.155-1.518-42.063c-1.701-15.476-5.067-30.779-7.97-46.108c-1.742-9.202-4.655-18.229-5.774-27.488
			c-0.839-6.938,0.25-14.125,0.651-21.192c1.182-20.761,2.439-41.517,3.688-62.274c0.592-9.835,1.23-19.666,1.848-29.499
			C954.791,197.968,955.067,197.975,955.346,197.981z"/>
	</g>
	<g>
		<path style="fill-rule:evenodd;clip-rule:evenodd;fill:#42342B;" d="M996.964,304.885c3.844,4.429,7.688,8.859,12.033,13.868
			c5.42-16.177,10.666-31.834,15.913-47.491c0.268-0.002,0.535-0.004,0.802-0.006c0.972,7.845,2.668,15.683,2.748,23.538
			c0.127,12.447,3.579,23.414,12.23,32.293c6.412,6.581,6.406,13.79,4.877,22.121c-3.627,19.736-6.189,39.672-10.056,59.357
			c-1.496,7.615-4.533,15.222-8.312,22.03c-7.051,12.706-7.734,24.923-1.778,38.256c3.588,8.033,7.443,16.924,7.307,25.366
			c-0.136,8.446-5.087,16.816-7.94,25.215c-1.133,3.334-2.301,6.655-4.396,9.982c-2.095-8.204-4.229-16.398-6.274-24.613
			c-4.528-18.183-9.02-36.374-13.495-54.569c-0.35-1.421-0.632-2.897-0.658-4.354c-0.741-38.959-1.427-77.92-2.182-116.879
			c-0.066-3.417-0.535-6.825-0.817-10.237C996.964,314.137,996.964,309.51,996.964,304.885z"/>
		<path style="fill-rule:evenodd;clip-rule:evenodd;fill:#42342B;" d="M1037.603,575.48c4.783-15.697,9.543-31.401,14.36-47.088
			c3.038-9.892,6.361-19.702,9.116-29.672c0.761-2.753,0.665-6.196-0.278-8.89c-4.621-13.179-9.747-26.18-14.469-39.325
			c-0.829-2.308-1.204-5.129-0.725-7.498c3.168-15.615,6.619-31.175,10.01-46.745c0.203-0.933,0.675-1.808,1.238-3.271
			c6.71,9.278,13.655,17.901,19.375,27.271c2.305,3.775,2.097,9.166,2.744,13.861c3.464,25.103,6.796,50.222,10.252,75.325
			c2.806,20.374,5.732,40.733,8.571,61.104c0.227,1.623,0.184,3.283,0.268,4.927C1077.91,575.48,1057.757,575.48,1037.603,575.48z"
			/>
		<path style="fill-rule:evenodd;clip-rule:evenodd;fill:#42342B;" d="M1270.532,575.48c-4.731-5.64-9.26-11.469-14.273-16.845
			c-2.813-3.016-2.861-4.963-0.259-8.246c8.604-10.853,16.917-21.942,25.044-33.158c1.463-2.021,2.335-5.144,2.095-7.625
			c-1.973-20.474-4.273-40.918-6.521-61.788c4.343-1.889,8.669-3.771,13.515-5.879c2.07,4.621,3.729,9.253,6.11,13.479
			c11.479,20.38,13.279,43.204,16.853,65.583c2.756,17.257,5.406,34.53,8.137,51.791c0.094,0.596,0.553,1.133,0.841,1.696
			c-0.991,0.33-1.981,0.944-2.974,0.948C1302.91,575.497,1286.722,575.48,1270.532,575.48z"/>
		<path style="fill-rule:evenodd;clip-rule:evenodd;fill:#42342B;" d="M1177.36,575.48c-1.629-15.707,1.674-30.732,6.208-45.606
			c1.622-5.322,2.999-10.719,4.824-17.3c13.221,21.585,25.874,42.246,38.526,62.906C1210.4,575.48,1193.879,575.48,1177.36,575.48z"
			/>
		<path style="fill-rule:evenodd;clip-rule:evenodd;fill:#42342B;" d="M1120.862,575.48c-0.974-8.646-2.062-17.28-2.893-25.94
			c-0.987-10.299-1.753-20.619-2.706-32.023c14.575,10.914,28.526,21.36,42.954,32.163c-3.656,4.218-6.848,8.365-10.535,12.011
			c-3.22,3.183-4.98,6.346-3.108,10.854c0.351,0.844,0.067,1.949,0.077,2.936C1136.722,575.48,1128.792,575.48,1120.862,575.48z"/>
		<path style="fill-rule:evenodd;clip-rule:evenodd;fill:#42342B;" d="M1127.45,260.871c3.908,12,7.684,24.046,11.837,35.96
			c0.84,2.407,2.745,4.809,4.806,6.35c5.003,3.742,12.408,5.877,15.043,10.727c2.579,4.747,0.502,12.051,0.387,18.231
			c-0.56,30.02-3.161,59.829-9.245,89.281c-0.93,4.507-1.899,9.03-2.362,13.596c-0.171,1.688,0.652,3.844,1.734,5.232
			c5.577,7.155,11.48,14.059,17.036,21.229c1.133,1.462,2.108,3.885,1.732,5.542c-3.27,14.411-6.858,28.749-10.376,43.104
			c-0.142,0.577-0.504,1.101-0.999,2.154c-9.271-9.941-18.891-19.084-26.915-29.461c-3.013-3.893-2.526-10.623-3.279-16.108
			c-3.312-24.128-6.616-48.258-9.66-72.42c-1.129-8.965-1.786-18.011-2.197-27.041c-0.36-7.907,0.391-15.876-0.162-23.761
			c-1.774-25.312,2.184-49.828,9.363-73.973c0.83-2.792,1.48-5.638,2.215-8.458C1126.754,260.994,1127.102,260.932,1127.45,260.871z
			"/>
		<path style="fill-rule:evenodd;clip-rule:evenodd;fill:#42342B;" d="M1078.352,362.085c-7.289-21.805-14.335-43.695-21.973-65.377
			c-3.556-10.096-5.41-20.168-5.079-30.896c0.316-10.218-0.614-20.47-0.581-30.706c0.007-2.507,1.615-5.017,2.549-7.502
			c0.163-0.433,0.582-0.818,0.969-1.114c9.563-7.321,10.882-17.097,9.997-28.472c-1.547-19.907-2.274-39.905-2.439-59.872
			c-0.043-5.029,3.345-10.087,5.271-15.447c7.833,8.608,10.787,16.351,11.273,26.9c0.664,14.343,1.779,28.665,2.426,43.008
			c0.166,3.665,1.768,5.095,5.023,6.019c6.621,1.875,13.142,4.102,19.91,6.25c-5.117,29.405-8.319,58.861-19.836,86.522
			c-2.278,5.471-3.009,11.783-3.457,17.782c-1.313,17.602-2.124,35.241-3.131,52.866
			C1078.966,362.06,1078.658,362.072,1078.352,362.085z"/>
		<path style="fill-rule:evenodd;clip-rule:evenodd;fill:#42342B;" d="M1184.161,344.066c3.354-4.785,5.981-8.535,9.078-12.952
			c1.184,1.883,2.118,3.316,3.002,4.781c9.454,15.678,19.096,31.249,28.238,47.107c2.971,5.153,6.558,8.842,12.182,10.676
			c2.012,0.656,3.883,1.741,6.117,2.768c-7.621,16.964-15.15,33.724-22.883,50.938c-14.715-3.914-29.247-7.779-44.291-11.779
			c2.613-10.073,5.086-19.872,7.762-29.615c0.357-1.302,1.645-2.409,2.654-3.46c9.255-9.639,18.542-19.246,27.913-28.958
			C1204.055,363.781,1194.26,354.074,1184.161,344.066z"/>
		<path style="fill-rule:evenodd;clip-rule:evenodd;fill:#42342B;" d="M1252.779,428.027c1.951,13.002,3.936,25.999,5.841,39.008
			c1.477,10.089,2.9,20.188,4.217,30.299c0.166,1.278,0.006,3.114-0.786,3.926c-10.111,10.369-20.366,20.598-31.082,31.361
			c-10.454-18.603-20.58-36.62-31.417-55.905c7.181,2.017,13.301,3.424,19.187,5.495c4.12,1.448,5.947,0.388,7.817-3.483
			c8.228-17.026,16.815-33.879,25.273-50.794C1252.146,427.963,1252.463,427.996,1252.779,428.027z"/>
		<path style="fill-rule:evenodd;clip-rule:evenodd;fill:#42342B;" d="M1180.529,311.877c-8.498-8.235-17.022-16.442-25.448-24.751
			c-0.82-0.81-1.41-2.241-1.44-3.4c-0.148-5.573-0.067-11.155,0.833-17.21c8.955,14.86,17.911,29.718,26.867,44.579
			C1181.069,311.355,1180.799,311.616,1180.529,311.877z"/>
		<path style="fill-rule:evenodd;clip-rule:evenodd;fill:#42342B;" d="M1171.729,387.776c2.373-9.191,4.406-17.068,6.694-25.93
			c4.416,5.397,8.272,10.11,12.527,15.311C1184.688,380.617,1178.858,383.837,1171.729,387.776z"/>
		<path style="fill-rule:evenodd;clip-rule:evenodd;fill:#42342B;" d="M1100.354,176.564c6.482,10.772,12.965,21.546,19.448,32.319
			c-0.244,0.173-0.488,0.345-0.732,0.518c-6.598-8.071-13.431-15.968-19.611-24.347c-1.379-1.87-0.465-5.432-0.607-8.215
			C1099.353,176.747,1099.852,176.656,1100.354,176.564z"/>
	</g>
	<g>
		<path style="fill-rule:evenodd;clip-rule:evenodd;fill:#776253;" d="M1438.569,530.209c-9.041-10.683-18.082-21.366-26.265-31.035
			c8.95-9.69,17.607-19.063,26.265-28.437C1438.569,490.562,1438.569,510.385,1438.569,530.209z"/>
		<path style="fill-rule:evenodd;clip-rule:evenodd;fill:#776253;" d="M1350.586,446.236c-4.996-7.884-9.995-15.766-14.985-23.653
			c-1.765-2.789-3.384-5.681-5.295-8.366c-2.947-4.142-4.061-8.074-3.215-13.604c0.908-5.951-0.968-12.371-1.875-18.551
			c-3.824-26.057-7.74-52.102-11.623-78.15c-3.06-20.515-6.132-41.028-9.144-61.55c-0.181-1.221-0.287-2.739,0.267-3.734
			c6.225-11.192,12.584-22.31,19.676-34.8c0,12.108,0,22.699,0,33.83c8.758,0,17.082,0,25.986,0c0,4.437-0.024,8.349,0.005,12.26
			c0.052,6.771-0.68,13.671,0.359,20.292c3.32,21.165-3.774,40.375-10.716,59.501c-3.082,8.494-2.883,15.585,1.018,23.799
			c7.613,16.039,13.971,32.671,21.084,48.956c1.559,3.566,1.404,6.272-0.831,9.468c-3.396,4.856-6.001,10.274-9.493,15.05
			c-3.125,4.273-3.845,8.431-1.94,13.287c0.701,1.786,0.893,3.771,1.316,5.665C1350.981,446.037,1350.783,446.136,1350.586,446.236z
			"/>
		<path style="fill-rule:evenodd;clip-rule:evenodd;fill:#776253;" d="M1169.789,137.132c8.138,18.694,16.015,36.766,23.87,54.846
			c3.146,7.237,6.41,14.43,9.246,21.788c0.698,1.811,0.613,4.544-0.277,6.244c-4.811,9.183-9.901,18.224-15.093,27.2
			c-1.396,2.414-1.69,4.116,0.153,6.543c3.767,4.958,9.11,9.916,10.03,15.495c0.886,5.366-3.005,11.513-4.776,17.324
			c-2.861,9.389-5.707,18.784-8.823,29.044c-1.267-1.713-2.163-2.743-2.858-3.895c-8.096-13.407-16.422-26.686-24.132-40.312
			c-4.214-7.446-3.617-15.824-1.821-23.931c0.627-2.834,2.08-5.56,3.529-8.123c9.703-17.163,12.624-35.51,11.215-55.075
			c-1.1-15.28-0.682-30.669-0.927-46.01C1169.123,138.153,1169.257,138.032,1169.789,137.132z"/>
		<path style="fill-rule:evenodd;clip-rule:evenodd;fill:#776253;" d="M1243.145,198.115c3.428,2.836,6.328,5.236,9.754,8.071
			c-8.225,11.729-16.387,23.369-25.235,35.991c-1.496-10.776-2.875-20.436-4.163-30.107c-0.826-6.198-1.709-12.401-2.141-18.631
			c-0.118-1.695,0.845-4.002,2.109-5.151c3.528-3.208,7.369-6.108,11.289-8.835c2.958-2.06,4.13-4.666,4.643-8.175
			c2.091-14.316,4.414-28.602,6.851-42.863c0.304-1.77,1.807-3.333,3.486-6.274c2.833,8.213,5.146,14.845,7.407,21.495
			c3.491,10.262,6.812,20.584,10.493,30.777c1.103,3.051,0.49,4.641-2.058,6.506
			C1258.146,186.357,1250.935,192.105,1243.145,198.115z"/>
		<path style="fill-rule:evenodd;clip-rule:evenodd;fill:#776253;" d="M1405.187,351.265c2.213,10.069,4.431,20.138,6.636,30.208
			c4.532,20.701,9.008,41.416,13.631,62.097c0.813,3.635,0.6,6.448-2.54,9.073c-5.134,4.293-9.908,9.013-14.754,13.478
			c1.802-5.807-3.329-6.983-7.14-8.73c-4.011-1.841-5.737-3.789-4.32-8.597c1.81-6.137,2.432-12.613,3.802-18.893
			c0.854-3.908,1.487-7.502-3.849-9.352c1.646-1.346,2.855-2.336,4.269-3.49c-4.582-4.9-9.079-9.472-13.242-14.33
			c-1.044-1.22-1.854-3.674-1.349-5.031c5.788-15.544,11.849-30.986,17.838-46.455
			C1404.507,351.25,1404.848,351.257,1405.187,351.265z"/>
		<path style="fill-rule:evenodd;clip-rule:evenodd;fill:#776253;" d="M1244.568,399.068c-10.402-1.961-16.199-8.104-20.903-16.513
			c-9.097-16.265-19.067-32.04-28.835-48.282c8.267-11.808,16.554-23.644,25.526-36.459c1.826,12.134,3.683,23.093,5.059,34.113
			c0.933,7.464,2.755,14.31,7.232,20.622c6.194,8.733,11.802,17.895,17.352,27.06c0.961,1.586,1.051,4.325,0.413,6.134
			C1248.784,390.351,1246.517,394.734,1244.568,399.068z"/>
		<path style="fill-rule:evenodd;clip-rule:evenodd;fill:#776253;" d="M1276.015,214.378c0,11.795-0.235,22.937,0.143,34.059
			c0.114,3.355,1.377,6.975,3.09,9.903c3.154,5.393,7.122,10.304,10.539,15.554c0.766,1.177,1.379,3.289,0.841,4.348
			c-5.273,10.365-10.807,20.596-16.619,31.528c-6.924-10.137-13.403-19.615-19.873-29.099c-3.253-4.768-6.648-9.451-9.62-14.388
			c-0.789-1.312-0.985-3.9-0.209-5.094c9.889-15.205,20.002-30.264,30.072-45.35
			C1274.617,215.483,1275.034,215.244,1276.015,214.378z"/>
		<path style="fill-rule:evenodd;clip-rule:evenodd;fill:#776253;" d="M1125.186,134.055c-0.627,9.01-1.067,17.056-1.797,25.076
			c-0.342,3.762,0.356,6.665,3.815,8.762c2.091,1.266,3.652,3.45,5.787,4.596c6.492,3.488,7.097,8.387,5.335,15.087
			c-3.122,11.88-5.374,23.99-8.236,37.139c-2.938-4.11-5.493-7.291-7.62-10.736c-6.053-9.81-11.771-19.831-17.952-29.559
			c-2.656-4.18-3.339-8.135-2.36-13.011c1.777-8.847,2.791-17.846,4.268-26.758c0.208-1.254,0.938-2.996,1.921-3.453
			C1113.677,138.715,1119.163,136.566,1125.186,134.055z"/>
		<path style="fill-rule:evenodd;clip-rule:evenodd;fill:#776253;" d="M1287.005,195.739c-3.39-11.821-6.509-22.664-9.577-33.522
			c-0.16-0.565,0.021-1.288,0.215-1.881c3.271-9.945,6.57-19.88,10.264-31.027c1.997,3.524,3.474,6.095,4.918,8.684
			c4.324,7.751,8.762,15.445,12.841,23.322c0.787,1.521,0.904,4.248,0.05,5.623C1299.908,176.294,1293.759,185.438,1287.005,195.739
			z"/>
		<path style="fill-rule:evenodd;clip-rule:evenodd;fill:#776253;" d="M1410.711,322.698c-4.731-3.699-8.949-6.996-13.544-10.588
			c2.907-5.15,5.681-10.062,8.729-15.461c3.276,2.637,6.242,4.886,9.017,7.351c0.668,0.594,1.195,2.044,0.954,2.854
			C1414.339,311.991,1412.576,317.059,1410.711,322.698z"/>
	</g>
	<g>
		<path style="fill-rule:evenodd;clip-rule:evenodd;fill:#4C3B2F;" d="M1321.098,573.506c-1.921-11.194-3.932-22.374-5.743-33.586
			c-3.054-18.887-5.984-37.794-8.948-56.695c-0.1-0.637-0.013-1.303-0.013-3.17c1.225,2.481,2.028,3.951,2.693,5.482
			c8.976,20.67,17.867,41.378,26.964,61.994c1.38,3.129,1.107,5.251-1.013,7.957c-4.559,5.815-8.661,11.989-12.949,18.018
			C1321.758,573.506,1321.429,573.506,1321.098,573.506z"/>
		<path style="fill-rule:evenodd;clip-rule:evenodd;fill:#4C3B2F;" d="M1374.569,365.943c-6.773-9.657-13.067-18.526-19.194-27.507
			c-0.7-1.026-0.822-2.738-0.607-4.033c0.371-2.252,1.021-4.506,1.892-6.621c6.821-16.597,6.514-34.118,6.779-51.561
			c0.154-10.238,0.879-20.533,0.082-30.704c-0.939-11.997,3.313-22.181,9.046-33.279c1.41,7.313,2.737,13.77,3.889,20.257
			c2.475,13.927,5.438,27.805,7.012,41.836c0.704,6.271-1.25,12.902-2.371,19.304c-1.669,9.525-3.669,18.993-5.646,29.085
			c5.287,0.779,10.257,1.512,15.706,2.315C1385.649,338.62,1380.245,351.947,1374.569,365.943z"/>
		<path style="fill-rule:evenodd;clip-rule:evenodd;fill:#4C3B2F;" d="M1247.09,313.266c12.409,7.349,24.241,14.357,36.325,21.514
			c4.044-4.293,7.979-8.47,12.58-13.356c0.801,5.902,1.579,11.11,2.201,16.336c0.993,8.336,1.908,16.682,2.779,25.032
			c0.115,1.099-0.131,2.266-0.371,3.366c-2.449,11.235-5.02,22.443-7.341,33.703c-0.615,2.981-2.047,4.421-4.976,4.903
			c-5.025,0.826-10.017,1.864-15.485,2.9c0.362-8.126,0.138-16.175,1.218-24.045c1.376-10.034,0.274-18.724-7.74-25.921
			c-3.516-3.156-5.715-7.776-9.222-10.947c-7.662-6.929-9.542-15.666-9.386-25.35
			C1247.712,318.976,1247.338,316.543,1247.09,313.266z"/>
		<path style="fill-rule:evenodd;clip-rule:evenodd;fill:#4C3B2F;" d="M1331.053,506.693c-5.24-16.611-9.756-32.212-15.151-47.502
			c-2.736-7.752-3.31-14.9-0.954-22.85c3.259-10.996,5.506-22.291,8.421-34.437c4.832,7.64,9.2,14.543,13.565,21.447
			c0.881,1.394,1.631,2.894,2.664,4.163c9.259,11.376,12.546,25.081,15.214,39.009c0.281,1.467,0.33,3.42-0.41,4.571
			C1346.929,482.721,1339.27,494.227,1331.053,506.693z"/>
		<path style="fill-rule:evenodd;clip-rule:evenodd;fill:#4C3B2F;" d="M1375.13,498.751c13.051,14.122,25.542,27.639,38.306,41.451
			c-10.341,9.189-21.845,19.413-33.804,30.04c-6.271-11.493-11.718-22.761-18.384-33.251c-4.606-7.249-5.025-12.8,0.89-19.436
			C1366.797,512.326,1370.215,505.99,1375.13,498.751z"/>
		<path style="fill-rule:evenodd;clip-rule:evenodd;fill:#4C3B2F;" d="M1396.536,421.235c5.173,1.396,5.633,4.528,4.611,8.851
			c-1.662,7.045-2.716,14.231-4.287,21.299c-0.595,2.674-0.349,4.367,2.434,5.435c1.982,0.76,3.798,1.964,5.674,2.993
			c4.218,2.311,5.205,7.023,1.828,10.437c-5.554,5.613-11.374,10.964-17.315,16.648c-0.359-0.774-0.941-1.841-1.362-2.967
			c-5.29-14.141-10.475-28.322-15.899-42.41c-1.083-2.812-0.847-4.26,1.863-5.904C1381.799,430.931,1389.304,425.9,1396.536,421.235
			z"/>
	</g>
</g>
</svg>
