<?xml version="1.0" encoding="iso-8859-1"?>
<!-- Generator: Adobe Illustrator 16.0.0, SVG Export Plug-In . SVG Version: 6.00 Build 0)  -->
<!DOCTYPE svg PUBLIC "-//W3C//DTD SVG 1.1//EN" "http://www.w3.org/Graphics/SVG/1.1/DTD/svg11.dtd">
<svg version="1.1" xmlns="http://www.w3.org/2000/svg" xmlns:xlink="http://www.w3.org/1999/xlink" x="0px" y="0px"
	 width="637.544px" height="475.7px" viewBox="0 0 637.544 475.7" style="enable-background:new 0 0 637.544 475.7;"
	 xml:space="preserve">
<g id="Layer_1" style="display:none;">
	<rect x="-130.897" y="-210.423" style="display:inline;fill:#15110E;" width="899.779" height="900"/>
	<path style="display:inline;fill:none;stroke:#996928;stroke-width:5;stroke-miterlimit:10;" d="M441.216,44.98l-45.238,79.168
		l18.5-54h-12.5l15.356-40.967c-29.067-16.375-62.617-25.728-98.356-25.728c-110.84,0-200.694,89.854-200.694,200.694
		s89.854,200.694,200.694,200.694c110.841,0,200.694-89.854,200.694-200.694C519.672,139.313,488.92,81.671,441.216,44.98z"/>
	<polyline style="display:inline;fill:none;stroke:#996928;stroke-width:5;stroke-miterlimit:10;" points="473.845,331.808 
		318.978,141.037 164.112,331.806 	"/>
	<polyline style="display:inline;fill:none;stroke:#996928;stroke-width:5;stroke-miterlimit:10;" points="457.773,349.107 
		318.978,178.135 180.184,349.107 	"/>
	<g style="display:inline;">
		<path style="fill:#996928;" d="M564.175,73.47c0,0,40.562,18.455,20.545,54.783C545.751,114.046,564.175,73.47,564.175,73.47z"/>
		<path style="fill:#996928;" d="M542.977,135.453c0,0,43.792-8.248,48.327,32.98C551.258,179.24,542.977,135.453,542.977,135.453z"
			/>
		<path style="fill:#996928;" d="M546.998,177.918c0,0,43.793-8.248,48.327,32.98C555.28,221.705,546.998,177.918,546.998,177.918z"
			/>
		<path style="fill:#996928;" d="M539.748,219.038c0,0,43.793-8.248,48.327,32.981C548.029,262.824,539.748,219.038,539.748,219.038
			z"/>
		<path style="fill:#996928;" d="M538.866,256.546c0,0,38.284-0.697,36.128,34.971C539.512,294.923,538.866,256.546,538.866,256.546
			z"/>
		<path style="fill:#996928;" d="M624.587,116.804c0,0-43.059,11.478-29.34,50.622C636.032,159.873,624.587,116.804,624.587,116.804
			z"/>
		<path style="fill:#996928;" d="M637.764,171.27c0,0-44.519-1.979-43.184,39.478C635.75,215.787,637.764,171.27,637.764,171.27z"/>
		<path style="fill:#996928;" d="M638.25,218.752c0,0-43.866-7.855-48.031,33.412C630.36,262.611,638.25,218.752,638.25,218.752z"/>
		<path style="fill:#996928;" d="M620.625,264.664c0,0-37.673-6.748-41.271,28.812C613.829,302.457,620.625,264.664,620.625,264.664
			z"/>
		<path style="fill:#996928;" d="M530.552,287.166c0,0,37.507,7.713,27.584,42.041C522.773,324.753,530.552,287.166,530.552,287.166
			z"/>
		<path style="fill:#996928;" d="M606.75,311.673c0,0-35.278-14.84-46.583,19.068C591.834,347.06,606.75,311.673,606.75,311.673z"/>
		<path style="fill:#996928;" d="M514.915,315.429c0,0,35.717,13.803,20.258,46.021
			C501.029,351.214,514.915,315.429,514.915,315.429z"/>
		<path style="fill:#996928;" d="M586.014,352.191c0,0-32.341-20.465-49.093,11.109
			C565.456,384.626,586.014,352.191,586.014,352.191z"/>
		<path style="fill:#996928;" d="M499.85,348.724c0,0,26.479,16.553,9.139,39.975C483.22,375.246,499.85,348.724,499.85,348.724z"/>
		<path style="fill:#996928;" d="M551.131,389.113c0,0-22.75-21.371-41.027,1.336C529.674,411.923,551.131,389.113,551.131,389.113z
			"/>
		<path style="fill:#996928;" d="M476.604,370.558c0,0,24.621,19.207,4.947,40.707C457.316,395.216,476.604,370.558,476.604,370.558
			z"/>
		<path style="fill:#996928;" d="M523.426,416.042c0,0-20.415-23.611-40.946-2.92C499.72,436.507,523.426,416.042,523.426,416.042z"
			/>
		<path style="fill:#996928;" d="M456.117,395.863c0,0,14.335,19.684-5.029,31.578C436.366,410.205,456.117,395.863,456.117,395.863
			z"/>
		<path style="fill:#996928;" d="M481.452,440.011c0,0-10.233-22.084-30.066-10.98C459.287,450.263,481.452,440.011,481.452,440.011
			z"/>
		<path style="fill:#996928;" d="M428.473,416.726c0,0,10.751,14.764-3.772,23.684C413.659,427.482,428.473,416.726,428.473,416.726
			z"/>
		<path style="fill:#996928;" d="M447.474,449.837c0,0-7.676-16.562-22.551-8.234C430.85,457.527,447.474,449.837,447.474,449.837z"
			/>
	</g>
	<path style="display:inline;fill:none;stroke:#996928;stroke-width:5;stroke-miterlimit:10;" d="M584.917,128.201
		c9.829,35.906,12.062,74.501,5.168,113.597c-17.99,102.023-93.212,179.582-186.827,205.475"/>
	<g id="laurel" style="display:inline;">
		<path style="fill:#996928;" d="M73.589,73.611c0,0-40.562,18.455-20.545,54.783C92.013,114.188,73.589,73.611,73.589,73.611z"/>
		<path style="fill:#996928;" d="M94.787,135.595c0,0-43.793-8.248-48.328,32.981C86.505,179.381,94.787,135.595,94.787,135.595z"/>
		<path style="fill:#996928;" d="M90.766,178.06c0,0-43.793-8.248-48.328,32.981C82.484,221.846,90.766,178.06,90.766,178.06z"/>
		<path style="fill:#996928;" d="M98.017,219.18c0,0-43.793-8.248-48.328,32.98C89.734,262.966,98.017,219.18,98.017,219.18z"/>
		<path style="fill:#996928;" d="M98.898,256.687c0,0-38.284-0.697-36.127,34.971C98.251,295.066,98.898,256.687,98.898,256.687z"/>
		<path style="fill:#996928;" d="M13.176,116.946c0,0,43.06,11.478,29.34,50.621C1.732,160.014,13.176,116.946,13.176,116.946z"/>
		<path style="fill:#996928;" d="M0,171.41c0,0,44.519-1.978,43.183,39.479C2.013,215.928,0,171.41,0,171.41z"/>
		<path style="fill:#996928;" d="M-0.485,218.894c0,0,43.865-7.855,48.03,33.413C7.404,262.751-0.485,218.894-0.485,218.894z"/>
		<path style="fill:#996928;" d="M17.138,264.804c0,0,37.673-6.748,41.271,28.814C23.936,302.599,17.138,264.804,17.138,264.804z"/>
		<path style="fill:#996928;" d="M107.211,287.308c0,0-37.506,7.711-27.584,42.039C114.992,324.896,107.211,287.308,107.211,287.308
			z"/>
		<path style="fill:#996928;" d="M31.014,311.816c0,0,35.279-14.84,46.583,19.068C45.93,347.201,31.014,311.816,31.014,311.816z"/>
		<path style="fill:#996928;" d="M122.849,315.572c0,0-35.716,13.803-20.257,46.02C136.734,351.355,122.849,315.572,122.849,315.572
			z"/>
		<path style="fill:#996928;" d="M51.75,352.333c0,0,32.341-20.467,49.093,11.107C72.308,384.767,51.75,352.333,51.75,352.333z"/>
		<path style="fill:#996928;" d="M137.915,348.865c0,0-26.479,16.553-9.139,39.975C154.544,375.386,137.915,348.865,137.915,348.865
			z"/>
		<path style="fill:#996928;" d="M86.632,389.253c0,0,22.75-21.369,41.028,1.338C108.09,412.064,86.632,389.253,86.632,389.253z"/>
		<path style="fill:#996928;" d="M161.161,370.701c0,0-24.622,19.207-4.948,40.707C180.449,395.357,161.161,370.701,161.161,370.701
			z"/>
		<path style="fill:#996928;" d="M114.338,416.183c0,0,20.415-23.611,40.946-2.918C138.043,436.65,114.338,416.183,114.338,416.183z
			"/>
		<path style="fill:#996928;" d="M181.646,396.003c0,0-14.334,19.686,5.03,31.58C201.399,410.347,181.646,396.003,181.646,396.003z"
			/>
		<path style="fill:#996928;" d="M156.312,440.152c0,0,10.233-22.082,30.067-10.979
			C178.476,450.406,156.312,440.152,156.312,440.152z"/>
		<path style="fill:#996928;" d="M209.291,416.867c0,0-10.75,14.764,3.772,23.684C224.104,427.625,209.291,416.867,209.291,416.867z
			"/>
		<path style="fill:#996928;" d="M190.29,449.978c0,0,7.676-16.562,22.551-8.232C206.914,457.667,190.29,449.978,190.29,449.978z"/>
		<path style="fill:none;stroke:#996928;stroke-width:5;stroke-miterlimit:10;" d="M53.025,128.39
			c-9.81,35.883-12.033,74.449-5.145,113.514c18.087,102.576,94.028,180.42,188.349,205.893"/>
	</g>
	<g style="display:inline;">
		<polyline style="fill:none;stroke:#996928;stroke-width:5;stroke-miterlimit:10;" points="306.951,438.044 288.882,452.834 
			306.951,467.625 		"/>
		<polyline style="fill:none;stroke:#996928;stroke-width:5;stroke-miterlimit:10;" points="330.816,438.044 348.882,452.834 
			330.816,467.625 		"/>
	</g>
	
		<line style="display:inline;fill:none;stroke:#996928;stroke-width:5;stroke-miterlimit:10;" x1="326.36" y1="429.97" x2="311.407" y2="475.7"/>
</g>
<g id="bg" style="display:none;">
	<rect x="-132.696" y="-210.423" style="display:inline;fill:#15110E;" width="900" height="900"/>
</g>
<g id="supertech">
	<g>
		<path style="fill:none;stroke:#CC9548;stroke-width:3;stroke-miterlimit:10;" d="M363.833,346.677
			c25.359-8.726,47.644-24.058,64.797-43.941"/>
		<path style="fill:none;stroke:#CC9548;stroke-width:3;stroke-miterlimit:10;" d="M383.342,324.474
			c14.341-8.044,27.093-18.583,37.667-31.03"/>
		<path style="fill:none;stroke:#CC9548;stroke-width:3;stroke-miterlimit:10;" d="M355.842,323.704
			c21.96-7.552,41.155-21.05,55.662-38.571"/>
		<path style="fill:none;stroke:#CC9548;stroke-width:3;stroke-miterlimit:10;" d="M333.04,318.242
			c28.862-4.242,54.237-19.207,71.951-40.718"/>
		<circle style="fill:#CC9548;" cx="333.054" cy="318.327" r="4.75"/>
		<circle style="fill:#CC9548;" cx="349.887" cy="350.993" r="4.75"/>
		<circle style="fill:#CC9548;" cx="304.054" cy="340.577" r="4.75"/>
		<circle style="fill:#CC9548;" cx="383.554" cy="324.827" r="4.75"/>
		
			<line style="fill:none;stroke:#CC9548;stroke-width:3;stroke-miterlimit:10;" x1="356.804" y1="322.578" x2="364.971" y2="346.244"/>
		<path style="fill:none;stroke:#CC9548;stroke-width:3;stroke-miterlimit:10;" d="M304.05,340.657
			c3.777,0.317,7.598,0.479,11.457,0.479c15.375,0,30.152-2.571,43.922-7.307"/>
		<path style="fill:none;stroke:#CC9548;stroke-width:3;stroke-miterlimit:10;" d="M322.471,341.244l1.167,13.5
			c0,0,14.332,0.167,26.166-3.833"/>
		<circle style="fill:#EDB066;" cx="333.054" cy="318.327" r="2.5"/>
		<circle style="fill:#EDB066;" cx="349.887" cy="350.993" r="2.5"/>
		<circle style="fill:#EDB066;" cx="304.054" cy="340.577" r="2.5"/>
		<circle style="fill:#EDB066;" cx="383.554" cy="324.827" r="2.5"/>
	</g>
	<path style="fill:#CC9548;" d="M316.173,104.469c-55.229,0-100,44.771-100,100c0,55.229,44.771,100,100,100
		c55.228,0,100-44.771,100-100C416.173,149.24,371.401,104.469,316.173,104.469z"/>
	<path style="display:none;fill:#744921;" d="M316.173,38.178c-91.84,0-166.291,74.451-166.291,166.292
		s74.451,166.292,166.291,166.292c91.841,0,166.292-74.451,166.292-166.292S408.014,38.178,316.173,38.178z"/>
	<g>
		<path style="fill:#996928;" d="M315.554,311.077c-40.75-0.75-62.104-18.066-72.007-30.25l-11.993,15.5
			c12.84,15.419,41.75,33.25,81.75,34L315.554,311.077z"/>
		<path style="fill:#CC9548;" d="M277.583,336.495l-1.154,2.957l-2.75-1.125l0.71-2.84c-0.732-0.246-1.464-0.49-2.194-0.755
			l-1.266,2.595l-2.875-1.375l1.273-2.303c-28.936-11.406-55.273-35.697-55.273-35.697l-7,6c29.333,32.333,71,43.333,71,43.333
			l3.667-9.666C280.342,337.288,278.962,336.903,277.583,336.495z"/>
		<path style="fill:none;stroke:#EDB066;stroke-width:3;stroke-miterlimit:10;" d="M350.971,282.077
			c-10.667,5.5-28.167,6.667-28.167,6.667l-0.833-13.833c0,0,16.833-1.5,25.666-6.834l2.667,4.5"/>
		<path style="fill:none;stroke:#EDB066;stroke-width:3;stroke-miterlimit:10;" d="M353.054,286.077l-4.25-8c0,0,4.375-1.5,15-8.5"
			/>
		<path style="fill:none;stroke:#EDB066;stroke-width:3;stroke-miterlimit:10;" d="M305.554,293.952l1.75-13.625
			c0,0-23.875-2.75-35.25-15"/>
		<circle style="fill:#EDB066;" cx="332.367" cy="259.514" r="3.188"/>
		<path style="fill:none;stroke:#EDB066;stroke-width:3;stroke-miterlimit:10;" d="M316.173,114.469c-49.706,0-90,40.294-90,90
			s40.294,90,90,90c49.705,0,90-40.293,90-90S365.878,114.469,316.173,114.469z"/>
		<path style="fill:none;stroke:#EDB066;stroke-width:3;stroke-miterlimit:10;" d="M316.173,139.469c-35.899,0-65,29.101-65,65
			c0,35.899,29.101,65,65,65c35.898,0,65-29.101,65-65C381.173,168.57,352.072,139.469,316.173,139.469z"/>
		<path style="fill:none;stroke:#EDB066;stroke-width:3;stroke-miterlimit:10;" d="M297.471,266.077l4.833-19.833
			c0,0,10.168,4,26.334,0.333l3.666,12.667"/>
		
			<line style="fill:none;stroke:#EDB066;stroke-width:3;stroke-miterlimit:10;" x1="336.804" y1="272.244" x2="338.471" y2="276.91"/>
		
			<line style="fill:none;stroke:#EDB066;stroke-width:3;stroke-miterlimit:10;" x1="343.304" y1="270.244" x2="344.971" y2="274.91"/>
		
			<line style="fill:none;stroke:#EDB066;stroke-width:3;stroke-miterlimit:10;" x1="330.971" y1="273.911" x2="332.638" y2="278.577"/>
		<circle style="fill:#CC9548;" cx="332.367" cy="259.514" r="1.5"/>
		<path style="fill:none;stroke:#EDB066;stroke-width:3;stroke-miterlimit:10;" d="M299.471,257.244c0,0,12.105,4.917,22.5,2"/>
		<g>
			<path style="fill:#CC9548;" d="M295.517,309.202l-1.019,8.785c-4.58-0.867-18.415-3.84-28.543-9.736l2.676-7.692
				c-0.918-0.458-1.82-0.923-2.691-1.396l-3.614,10.392l1.023,0.632c5.867,3.629,12.971,6.225,19.019,7.985l-2.166,7.321
				c0.956,0.271,1.92,0.532,2.897,0.783l2.16-7.302c5.709,1.51,9.945,2.194,10.312,2.252l1.544,0.244l0.633-5.456l8.548,0.755
				l-1.59,13.116c0.991,0.081,1.99,0.151,2.997,0.211l1.945-16.044l-11.554-1.02l0.388-3.348
				C297.477,309.535,296.491,309.373,295.517,309.202z"/>
			<path style="fill:#CC9548;" d="M239.019,286.679l-1.895,2.448c6.344,8.138,15.845,14.37,19.309,16.485l-4.435,7.73
				c0.845,0.514,1.705,1.021,2.585,1.522l5.938-10.352l-1.312-0.743C259.066,303.69,246.312,296.391,239.019,286.679z"/>
		</g>
	</g>
</g>
<g id="shield">
	<path style="fill:#8C5B29;" d="M454.637,52.468l-10.135,3.438l-1.365-11.771l-17.166,6.608l1.5-19.167
		C397.162,11.814,353.726,0,317.213,0c-0.573,0-1.142,0.017-1.713,0.021C203.051,0.941,112.17,92.414,112.17,205.137
		c0,17.626,2.239,34.726,6.422,51.045l13.281,6.408l-6.231,13.386l16.966,2.575l-7.62,20.709
		c33.852,65.47,101.907,110.354,180.511,110.999c0.57,0.003,1.14,0.016,1.713,0.016c113.241,0,205.04-91.845,205.04-205.138
		C522.253,145.037,495.802,89.986,454.637,52.468z M315.804,369.077c-63.5,0-108-42-108-42l108-104l107.5,105.5
		C423.304,328.577,379.304,369.077,315.804,369.077z"/>
	<path style="fill:#CC9548;" d="M452.321,56.751l-10.351,3.825l-1.666-11.667l-18,7l2.001-21
		C394.638,15.577,352.952,4.443,317.213,4.443c-0.56,0-1.115,0.017-1.674,0.021C205.472,5.365,116.519,94.856,116.519,205.137
		c0,17.244,2.19,33.974,6.284,49.94l13.347,5.488l-5.584,12.633l16.259,2.367l-7.972,21.655
		c33.135,64.047,99.749,107.965,176.687,108.595c0.558,0.004,1.114,0.015,1.674,0.015c110.84,0,200.693-89.854,200.693-200.693
		C517.907,146.338,492.613,93.457,452.321,56.751z M315.804,369.077c-63.5,0-108-42-108-42l108-104l107.5,105.5
		C423.304,328.577,379.304,369.077,315.804,369.077z"/>
	<path style="fill:#744921;" d="M316.508,38.844c-91.84,0-166.292,74.451-166.292,166.292s74.451,166.292,166.292,166.292
		s166.292-74.451,166.292-166.292S408.348,38.844,316.508,38.844z M316.508,366.138c-0.313,0-0.625-0.01-0.938-0.012
		c-88.484-0.506-160.062-72.387-160.062-160.99c0-88.604,71.577-160.483,160.062-160.989c0.313-0.002,0.625-0.012,0.938-0.012
		c88.916,0,160.999,72.083,160.999,161.001C477.507,294.053,405.424,366.138,316.508,366.138z"/>
	<path style="fill:#8C5B29;" d="M314.962,176.775L179.303,309.932c6.921,9.955,14.899,19.119,23.777,27.326l111.882-109.782
		l112.825,110.71c8.941-8.133,16.989-17.229,23.987-27.121L314.962,176.775z"/>
	<path style="fill:#CC9548;" d="M452.352,301.065L315.54,166.775L179.88,299.932l-24.436,23.984
		c0.021,0.029,0.042,0.058,0.063,0.086c0.854,1.159,1.719,2.309,2.596,3.448c0.036,0.047,0.072,0.095,0.108,0.142
		c1.779,2.307,3.608,4.573,5.483,6.8c0.138,0.162,0.276,0.325,0.414,0.487c0.805,0.949,1.619,1.891,2.44,2.825
		c0.139,0.156,0.275,0.314,0.414,0.471c0.934,1.055,1.877,2.1,2.833,3.135c0.116,0.125,0.234,0.248,0.351,0.373
		c0.801,0.863,1.611,1.719,2.428,2.567c0.293,0.306,0.588,0.608,0.884,0.912c0.694,0.714,1.396,1.421,2.101,2.124
		c0.279,0.278,0.557,0.56,0.838,0.837c0.92,0.905,1.848,1.803,2.784,2.69c0.08,0.075,0.161,0.149,0.24,0.225l24.235-23.78
		L315.54,217.476l112.825,110.71l24.922,24.454c8.872-8.188,17.006-17.163,24.285-26.82L452.352,301.065z"/>
	<g id="buttons">
		<g>
			<circle style="fill:#744921;" cx="226.184" cy="47.469" r="5"/>
			<circle style="fill:#744921;" cx="159.545" cy="114.107" r="5"/>
			<circle style="fill:#744921;" cx="135.154" cy="205.137" r="5"/>
			<circle style="fill:#744921;" cx="159.546" cy="296.166" r="5.001"/>
			<circle style="fill:#744921;" cx="226.185" cy="362.804" r="5.001"/>
		</g>
		<g>
			<circle style="fill:#EDB066;" cx="315.57" cy="23.077" r="5"/>
			<circle style="fill:#EDB066;" cx="315.539" cy="387.195" r="5.001"/>
			<path style="fill:#EDB066;" d="M403.912,365.305c-1.377-2.392-0.559-5.452,1.832-6.832c2.391-1.381,5.449-0.562,6.83,1.83
				c1.379,2.394,0.561,5.449-1.83,6.83C408.353,368.513,405.292,367.697,403.912,365.305z"/>
			<path style="fill:#EDB066;" d="M472.38,300.498c-2.389-1.383-3.209-4.442-1.83-6.833c1.381-2.391,4.439-3.211,6.83-1.83
				c2.393,1.384,3.211,4.439,1.83,6.83C477.832,301.055,474.773,301.878,472.38,300.498z"/>
			<circle style="fill:#EDB066;" cx="499.272" cy="205.137" r="5.001"/>
			<path style="fill:#EDB066;" d="M477.382,118.438c-2.391,1.377-5.451,0.558-6.832-1.832c-1.381-2.391-0.561-5.451,1.83-6.83
				c2.395-1.38,5.449-0.561,6.83,1.83C480.591,113.996,479.775,117.057,477.382,118.438z"/>
			<path style="fill:#EDB066;" d="M412.576,49.969c-1.383,2.388-4.443,3.208-6.834,1.83c-2.391-1.38-3.209-4.44-1.83-6.83
				c1.385-2.393,4.439-3.21,6.83-1.83C413.132,44.518,413.957,47.577,412.576,49.969z"/>
		</g>
	</g>
</g>
<g id="shield_copy">
	<path style="fill:#996928;" d="M448.52,297.303c18.264-26.111,28.987-57.885,28.987-92.167
		c0-88.918-72.083-161.001-160.999-161.001c-0.313,0-0.625,0.01-0.938,0.012c-88.484,0.506-160.062,72.385-160.062,160.989
		c0,33.789,10.418,65.14,28.205,91.033L315.54,166.775L448.52,297.303z"/>
	<path style="fill:#CC9548;" d="M183.713,296.169l-3.833,3.763l-24.436,23.984c0.021,0.029,0.042,0.058,0.063,0.086
		c0.854,1.159,1.719,2.309,2.596,3.448c0.036,0.047,0.072,0.095,0.108,0.142c1.779,2.307,3.608,4.573,5.483,6.8
		c0.138,0.162,0.276,0.325,0.414,0.487c0.805,0.949,1.619,1.891,2.44,2.825c0.139,0.156,0.275,0.314,0.414,0.471
		c0.934,1.055,1.877,2.1,2.833,3.135c0.116,0.125,0.234,0.248,0.351,0.373c0.801,0.863,1.611,1.719,2.428,2.567
		c0.293,0.306,0.588,0.608,0.884,0.912c0.694,0.714,1.396,1.421,2.101,2.124c0.279,0.278,0.557,0.56,0.838,0.837
		c0.92,0.905,1.848,1.803,2.784,2.69c0.08,0.075,0.161,0.149,0.24,0.225l24.235-23.78l3.78-3.709
		C198.544,315.354,190.582,306.168,183.713,296.169z"/>
	<path style="fill:#CC9548;" d="M452.352,301.065l-3.832-3.762c-6.948,9.934-14.981,19.051-23.94,27.169l3.785,3.714l24.922,24.454
		c8.872-8.188,17.006-17.163,24.285-26.82L452.352,301.065z"/>
	<g id="buttons_copy">
		<g>
			<circle style="fill:#744921;" cx="226.184" cy="47.469" r="5"/>
			<circle style="fill:#744921;" cx="159.545" cy="114.107" r="5"/>
			<circle style="fill:#744921;" cx="135.154" cy="205.137" r="5"/>
			<circle style="fill:#744921;" cx="159.546" cy="296.166" r="5.001"/>
			<circle style="fill:#744921;" cx="226.185" cy="362.804" r="5.001"/>
		</g>
		<g>
			<circle style="fill:#EDB066;" cx="315.57" cy="23.077" r="5"/>
			<circle style="fill:#EDB066;" cx="315.539" cy="387.195" r="5.001"/>
			<path style="fill:#EDB066;" d="M403.912,365.305c-1.377-2.392-0.559-5.452,1.832-6.832c2.391-1.381,5.449-0.562,6.83,1.83
				c1.379,2.394,0.561,5.449-1.83,6.83C408.353,368.513,405.292,367.697,403.912,365.305z"/>
			<path style="fill:#EDB066;" d="M472.38,300.498c-2.389-1.383-3.209-4.442-1.83-6.833c1.381-2.391,4.439-3.211,6.83-1.83
				c2.393,1.384,3.211,4.439,1.83,6.83C477.832,301.055,474.773,301.878,472.38,300.498z"/>
			<circle style="fill:#EDB066;" cx="499.272" cy="205.137" r="5.001"/>
			<path style="fill:#EDB066;" d="M477.382,118.438c-2.391,1.377-5.451,0.558-6.832-1.832c-1.381-2.391-0.561-5.451,1.83-6.83
				c2.395-1.38,5.449-0.561,6.83,1.83C480.591,113.996,479.775,117.057,477.382,118.438z"/>
			<path style="fill:#EDB066;" d="M412.576,49.969c-1.383,2.388-4.443,3.208-6.834,1.83c-2.391-1.38-3.209-4.44-1.83-6.83
				c1.385-2.393,4.439-3.21,6.83-1.83C413.132,44.518,413.957,47.577,412.576,49.969z"/>
		</g>
	</g>
</g>
<g id="scratches">
	<path style="display:none;fill:#744921;" d="M259.792,125.754c0,0,21.731-41.171,82.516-51.229
		C342.308,74.526,295.829,88.024,259.792,125.754z"/>
	<polygon style="fill:#744921;" points="341.748,126.95 397.707,159.577 361.245,145.366 	"/>
	<path style="fill:#744921;" d="M387.438,153.59l10.27-68.816C397.708,84.773,406.469,113.384,387.438,153.59z"/>
	<polygon style="display:none;fill:#744921;" points="420.392,135.243 382.304,176.775 376.971,215.243 390.971,176.775 	"/>
	<path style="display:none;fill:#744921;" d="M371.638,135.243c0,0,54,34.195,66,56.098L371.638,135.243z"/>
	<polygon style="fill:#744921;" points="277.25,120.584 214.424,185.214 245.657,142.872 	"/>
	<path style="fill:#744921;" d="M249.646,129.765l-33.823,31.177c0,0,2.807-9.434,13.872-19.793
		C240.76,130.788,249.646,129.765,249.646,129.765z"/>
	<g style="display:none;">
		<polyline style="display:inline;fill:#996928;" points="227.871,249.106 243.971,263.077 233.828,243.259 		"/>
		<polyline style="display:inline;fill:#996928;" points="235.921,238.577 240.801,249.569 243.971,251.077 246.054,255.327 
			253.304,263.077 245.804,246.827 242.554,244.327 241.054,236.077 		"/>
	</g>
</g>
<g id="Layer_8">
	<g>
		<path style="opacity:0.3;fill:#996928;" d="M308.657,339.456c-0.506-2.079-2.368-3.629-4.603-3.629c-2.623,0-4.75,2.127-4.75,4.75
			s2.127,4.75,4.75,4.75c1.958,0,3.638-1.187,4.365-2.879c2.361,0.12,4.731,0.188,7.088,0.188c0.021,0,0.042-0.001,0.062-0.001v-3
			c-0.021,0-0.042,0.001-0.062,0.001C313.229,339.636,310.939,339.571,308.657,339.456z"/>
		<path style="opacity:0.3;fill:#996928;" d="M315.57,366.126c-39.287-0.225-75.234-14.528-103.07-38.11l9.898-9.713
			c26.648,21.319,55.656,28.981,55.656,28.981l3.667-9.666c-1.378-0.331-2.758-0.716-4.138-1.124l-1.154,2.957l-2.75-1.125
			l0.71-2.84c-0.732-0.246-1.464-0.49-2.194-0.755l-1.266,2.595l-2.875-1.375l1.273-2.303c-14.89-5.869-29.081-15.146-39.359-22.773
			l8.033-7.883c4.498,4.082,10.025,8.139,16.509,11.83c0.025,0.014,0.048,0.029,0.073,0.043h0
			c7.359,4.182,15.944,7.887,25.617,10.626c0.014,0.004,0.028,0.008,0.042,0.012c0.939,0.266,1.888,0.522,2.848,0.77
			c0.002,0.001,0.005,0.001,0.007,0.002c9.174,2.359,19.272,3.847,30.206,4.052l2.25-19.25c-6.123-0.112-11.799-0.605-17.073-1.393
			c-0.981-0.146-1.944-0.305-2.897-0.472c-10.667-1.866-19.576-4.972-26.965-8.661c-0.894-0.446-1.772-0.899-2.623-1.36
			c-5.626-3.059-10.299-6.435-14.143-9.79l4.718-4.63c16.494,12.262,36.896,19.555,58.998,19.686V0.02
			c-0.023,0-0.046,0.001-0.069,0.001C203.051,0.941,112.17,92.414,112.17,205.137c0,17.626,2.239,34.726,6.422,51.045l13.281,6.408
			l-6.231,13.386l16.966,2.575l-7.62,20.709c33.852,65.47,101.907,110.354,180.511,110.999c0.023,0,0.046,0.001,0.069,0.001V366.126
			z"/>
	</g>
</g>
<g id="extras">
	<polyline style="fill:none;stroke:#CC9548;stroke-width:5;stroke-miterlimit:10;" points="306.951,438.044 288.882,452.834 
		306.951,467.625 	"/>
	<line style="fill:none;stroke:#CC9548;stroke-width:5;stroke-miterlimit:10;" x1="326.36" y1="429.97" x2="311.407" y2="475.7"/>
	<polyline style="fill:none;stroke:#CC9548;stroke-width:5;stroke-miterlimit:10;" points="330.816,438.044 348.882,452.834 
		330.816,467.625 	"/>
	<g id="plug" style="display:none;">
		<g style="display:inline;">
			<path style="fill:#CC9548;" d="M223.179,145.452c-12.245-78.57-10.535-128.545,6.625-137.125
				c6.68-3.339,16.527,3.995,16.833,4.25l-6.208,2.625c-0.045-0.037-4.387-3.054-7.5-1.5c-5.323,2.662-20.993,20.589-4,129.625
				L223.179,145.452z"/>
		</g>
		<g style="display:inline;">
			
				<rect x="223.679" y="138.184" transform="matrix(0.4033 0.9151 -0.9151 0.4033 269.0743 -120.1645)" style="fill:#CC9548;" width="6" height="16.119"/>
		</g>
		<g style="display:inline;">
			
				<rect x="226.054" y="145.075" transform="matrix(0.3511 0.9363 -0.9363 0.3511 292.4809 -114.787)" style="fill:#CC9548;" width="6" height="17.088"/>
		</g>
		<g style="display:inline;">
			
				<rect x="235.772" y="179.355" transform="matrix(0.9065 -0.4222 0.4222 0.9065 -57.5985 118.4734)" style="fill:#744921;" width="5.875" height="19.875"/>
			
				<rect x="244.836" y="175.133" transform="matrix(0.9065 -0.4222 0.4222 0.9065 -54.9688 121.9056)" style="fill:#744921;" width="5.875" height="19.875"/>
		</g>
		<path style="display:inline;fill:#CC9548;" d="M241.971,183.243c-5.667,2.167-10.051,5.475-12.333,2.792
			c-1.667-1.958-8.083-18.125-7.833-21.625s4.458-4.875,8.958-6.75s10.042-3.5,11.542-1.25s8.583,15.4,8.958,19.75
			C251.471,178.577,247.638,181.077,241.971,183.243z"/>
		<path style="display:inline;fill:#EDB066;" d="M232.804,159.577c0,0,7.375-4.125,8.625-1.375s6.75,15.875,6.75,15.875
			s0,1.875-1.125,0.75s-5.625-15.5-6.875-15.875S231.679,162.327,232.804,159.577z"/>
	</g>
	<g id="thicker_plug" style="display:none;">
		<g style="display:inline;">
			<path style="fill:#CC9548;stroke:#CC9548;stroke-width:4;stroke-miterlimit:10;" d="M221.054,134.202
				c-12.245-78.57-8.41-117.295,8.75-125.875c6.68-3.339,16.527,3.995,16.833,4.25l-6.208,2.625c-0.045-0.037-4.387-3.054-7.5-1.5
				c-5.323,2.662-23.118,9.339-6.125,118.375L221.054,134.202z"/>
		</g>
		<g style="display:inline;">
			
				<rect x="222.179" y="134.934" transform="matrix(0.4033 0.9151 -0.9151 0.4033 265.2054 -120.7311)" style="fill:#CC9548;stroke:#CC9548;stroke-width:3;stroke-miterlimit:10;" width="6" height="16.119"/>
		</g>
		<g style="display:inline;">
			
				<rect x="226.054" y="145.075" transform="matrix(0.3511 0.9363 -0.9363 0.3511 292.4809 -114.787)" style="fill:#CC9548;stroke:#CC9548;stroke-width:3;stroke-miterlimit:10;" width="6" height="17.088"/>
		</g>
		<g style="display:inline;">
			
				<rect x="237.843" y="182.619" transform="matrix(0.8826 -0.4702 0.4702 0.8826 -62.59 136.0264)" style="fill:#744921;" width="6.319" height="21.372"/>
			
				<rect x="247.333" y="177.562" transform="matrix(0.8825 -0.4702 0.4702 0.8825 -59.0992 139.9059)" style="fill:#744921;" width="6.318" height="21.373"/>
		</g>
		<path style="display:inline;fill:#CC9548;" d="M244.155,186.622c-5.959,2.654-10.476,6.459-13.083,3.71
			c-1.902-2.006-9.727-18.996-9.661-22.769c0.066-3.773,4.506-5.493,9.23-7.766s10.581-4.338,12.322-2.009
			c1.74,2.329,10.106,16.041,10.761,20.69C254.087,181.062,250.115,183.968,244.155,186.622z"/>
		<path style="display:inline;fill:#EDB066;" d="M232.944,161.738c0,0,7.682-4.856,9.183-1.975
			c1.501,2.881,8.166,16.657,8.166,16.657s0.108,2.014-1.165,0.871c-1.273-1.144-6.936-16.32-8.299-16.65
			S231.896,164.755,232.944,161.738z"/>
	</g>
</g>
<g id="laurels">
	<g id="laurel_1_">
		<g>
			<path style="fill:#996928;" d="M10.558,118.997c0,0,43.717,8.644,32.58,48.599C1.947,162.719,10.558,118.997,10.558,118.997z"/>
			<path style="fill:#744921;" d="M43.138,167.595l-32.58-48.599C10.558,118.997,1.947,162.719,43.138,167.595z"/>
		</g>
		<g>
			<path style="fill:#996928;" d="M0,171.41c0,0,44.519-1.978,43.183,39.479C2.013,215.928,0,171.41,0,171.41z"/>
			<path style="fill:#744921;" d="M43.183,210.889L0,171.41C0,171.41,2.013,215.928,43.183,210.889z"/>
		</g>
		<g>
			<path style="fill:#996928;" d="M-0.485,218.894c0,0,43.865-7.855,48.03,33.413C7.404,262.751-0.485,218.894-0.485,218.894z"/>
			<path style="fill:#744921;" d="M47.545,252.306l-48.03-33.413C-0.485,218.894,7.404,262.751,47.545,252.306z"/>
		</g>
		<g>
			<path style="fill:#996928;" d="M15.212,269.929c0,0,36.308-12.104,44.991,22.57C27.382,306.352,15.212,269.929,15.212,269.929z"
				/>
			<path style="fill:#744921;" d="M60.203,292.5l-44.991-22.57C15.212,269.929,27.382,306.352,60.203,292.5z"/>
		</g>
		<g>
			<path style="fill:#996928;" d="M29.477,313.165c0,0,34.372-16.834,47.598,16.371C46.393,347.638,29.477,313.165,29.477,313.165z"
				/>
			<path style="fill:#744921;" d="M77.075,329.536l-47.598-16.371C29.477,313.165,46.393,347.638,77.075,329.536z"/>
		</g>
		<g>
			<path style="fill:#996928;" d="M51.75,352.333c0,0,32.341-20.467,49.093,11.107C72.308,384.767,51.75,352.333,51.75,352.333z"/>
			<path style="fill:#744921;" d="M100.843,363.441L51.75,352.333C51.75,352.333,72.308,384.767,100.843,363.441z"/>
		</g>
		<g>
			<path style="fill:#996928;" d="M85.632,389.253c0,0,22.75-21.369,41.028,1.338C107.09,412.064,85.632,389.253,85.632,389.253z"/>
			<path style="fill:#744921;" d="M126.66,390.591l-41.028-1.338C85.632,389.253,107.09,412.064,126.66,390.591z"/>
		</g>
		<g>
			<path style="fill:#996928;" d="M114.338,416.183c0,0,20.415-23.611,40.946-2.918C138.043,436.65,114.338,416.183,114.338,416.183
				z"/>
			<path style="fill:#744921;" d="M155.284,413.265l-40.946,2.918C114.338,416.183,138.043,436.65,155.284,413.265z"/>
		</g>
		<g>
			<path style="fill:#996928;" d="M156.312,440.152c0,0,10.233-22.082,30.067-10.979
				C178.476,450.406,156.312,440.152,156.312,440.152z"/>
			<path style="fill:#744921;" d="M186.379,429.173l-30.067,10.979C156.312,440.152,178.476,450.406,186.379,429.173z"/>
		</g>
		<g>
			<path style="fill:#996928;" d="M190.29,449.978c0,0,7.676-16.562,22.551-8.232C206.914,457.667,190.29,449.978,190.29,449.978z"
				/>
			<path style="fill:#744921;" d="M212.84,441.746l-22.551,8.232C190.29,449.978,206.914,457.667,212.84,441.746z"/>
		</g>
		<g>
			<path style="fill:#996928;" d="M92.574,131.991c0,0-44.252-5.25-45.973,36.192C87.29,176.239,92.574,131.991,92.574,131.991z"/>
			<path style="fill:#CC9548;" d="M46.602,168.183l45.973-36.192C92.574,131.991,48.322,126.74,46.602,168.183z"/>
		</g>
		<g>
			<path style="fill:#996928;" d="M90.04,173.84c0,0-44.378-4.048-44.974,37.426C85.957,218.215,90.04,173.84,90.04,173.84z"/>
			<path style="fill:#CC9548;" d="M45.189,208.384c0.311,1.662,0.604,2.659,0.604,2.659L90.04,173.84
				C90.04,173.84,47.759,169.991,45.189,208.384z"/>
		</g>
		<g>
			<path style="fill:#996928;" d="M92.472,210.022c0,0-44.563-0.046-41.431,41.312C92.392,254.585,92.472,210.022,92.472,210.022z"
				/>
			<path style="fill:#CC9548;" d="M51.042,251.334l41.431-41.312C92.472,210.022,47.909,209.977,51.042,251.334z"/>
		</g>
		<g>
			<path style="fill:#996928;" d="M90.018,248.776c0,0-37.281,8.734-26.423,42.778C98.825,286.136,90.018,248.776,90.018,248.776z"
				/>
			<path style="fill:#CC9548;" d="M63.595,291.554l26.423-42.778C90.018,248.776,52.737,257.51,63.595,291.554z"/>
		</g>
		<g>
			<path style="fill:#996928;" d="M107.211,287.308c0,0-37.506,7.711-27.584,42.039
				C114.992,324.896,107.211,287.308,107.211,287.308z"/>
			<path style="fill:#CC9548;" d="M79.627,329.347l27.584-42.039C107.211,287.308,69.705,295.019,79.627,329.347z"/>
		</g>
		<g>
			<path style="fill:#996928;" d="M122.849,315.572c0,0-35.716,13.803-20.257,46.02
				C136.734,351.355,122.849,315.572,122.849,315.572z"/>
			<path style="fill:#CC9548;" d="M102.592,361.591l20.257-46.02C122.849,315.572,87.133,329.375,102.592,361.591z"/>
		</g>
		<g>
			<path style="fill:#996928;" d="M137.915,348.865c0,0-26.479,16.553-9.139,39.975
				C154.544,375.386,137.915,348.865,137.915,348.865z"/>
			<path style="fill:#CC9548;" d="M128.776,388.839l9.139-39.975C137.915,348.865,111.436,365.417,128.776,388.839z"/>
		</g>
		<g>
			<path style="fill:#996928;" d="M161.161,370.701c0,0-24.622,19.207-4.948,40.707
				C180.449,395.357,161.161,370.701,161.161,370.701z"/>
			<path style="fill:#CC9548;" d="M156.212,411.408l4.948-40.707C161.161,370.701,136.539,389.908,156.212,411.408z"/>
		</g>
		<g>
			<path style="fill:#996928;" d="M181.646,396.003c0,0-14.334,19.686,5.03,31.58C201.399,410.347,181.646,396.003,181.646,396.003z
				"/>
			<path style="fill:#CC9548;" d="M186.676,427.583l-5.03-31.58C181.646,396.003,167.312,415.689,186.676,427.583z"/>
		</g>
		<g>
			<path style="fill:#996928;" d="M209.291,416.867c0,0-10.75,14.764,3.772,23.684C224.104,427.625,209.291,416.867,209.291,416.867
				z"/>
			<path style="fill:#CC9548;" d="M213.063,440.55l-3.772-23.684C209.291,416.867,198.541,431.63,213.063,440.55z"/>
		</g>
		<path style="fill:none;stroke:#CC9548;stroke-width:5;stroke-miterlimit:10;" d="M53.025,128.39
			c-9.81,35.883-12.033,74.449-5.145,113.514c18.087,102.576,94.028,180.42,188.349,205.893"/>
		<g>
			<path style="fill:#744921;" d="M50.529,131.395l20.545-54.783C71.075,76.611,30.513,95.066,50.529,131.395z"/>
			<path style="fill:#CC9548;" d="M50.526,131.388c0.006,0,0.01-0.001,0.028-0.003C89.49,117.17,71.075,76.611,71.075,76.611
				l-20.557,54.761C50.521,131.378,50.523,131.383,50.526,131.388z"/>
		</g>
	</g>
	<g id="laurel_2_">
		<g>
			<path style="fill:#996928;" d="M626.986,118.997c0,0-43.717,8.644-32.58,48.599C635.597,162.719,626.986,118.997,626.986,118.997
				z"/>
			<path style="fill:#744921;" d="M594.406,167.595l32.58-48.599C626.986,118.997,635.597,162.719,594.406,167.595z"/>
		</g>
		<g>
			<path style="fill:#996928;" d="M637.544,171.41c0,0-44.52-1.978-43.184,39.479C635.531,215.928,637.544,171.41,637.544,171.41z"
				/>
			<path style="fill:#744921;" d="M594.361,210.889l43.184-39.479C637.544,171.41,635.531,215.928,594.361,210.889z"/>
		</g>
		<g>
			<path style="fill:#996928;" d="M638.029,218.894c0,0-43.865-7.855-48.029,33.413C630.14,262.751,638.029,218.894,638.029,218.894
				z"/>
			<path style="fill:#744921;" d="M590,252.306l48.029-33.413C638.029,218.894,630.14,262.751,590,252.306z"/>
		</g>
		<g>
			<path style="fill:#996928;" d="M622.332,269.929c0,0-36.308-12.104-44.99,22.57C610.162,306.352,622.332,269.929,622.332,269.929
				z"/>
			<path style="fill:#744921;" d="M577.341,292.5l44.99-22.57C622.332,269.929,610.162,306.352,577.341,292.5z"/>
		</g>
		<g>
			<path style="fill:#996928;" d="M608.068,313.165c0,0-34.372-16.834-47.599,16.371
				C591.151,347.638,608.068,313.165,608.068,313.165z"/>
			<path style="fill:#744921;" d="M560.469,329.536l47.599-16.371C608.068,313.165,591.151,347.638,560.469,329.536z"/>
		</g>
		<g>
			<path style="fill:#996928;" d="M585.794,352.333c0,0-32.342-20.467-49.094,11.107
				C565.236,384.767,585.794,352.333,585.794,352.333z"/>
			<path style="fill:#744921;" d="M536.701,363.441l49.094-11.107C585.794,352.333,565.236,384.767,536.701,363.441z"/>
		</g>
		<g>
			<path style="fill:#996928;" d="M551.912,389.253c0,0-22.75-21.369-41.027,1.338C530.454,412.064,551.912,389.253,551.912,389.253
				z"/>
			<path style="fill:#744921;" d="M510.884,390.591l41.027-1.338C551.912,389.253,530.454,412.064,510.884,390.591z"/>
		</g>
		<g>
			<path style="fill:#996928;" d="M523.207,416.183c0,0-20.415-23.611-40.946-2.918C499.5,436.65,523.207,416.183,523.207,416.183z"
				/>
			<path style="fill:#744921;" d="M482.26,413.265l40.946,2.918C523.207,416.183,499.5,436.65,482.26,413.265z"/>
		</g>
		<g>
			<path style="fill:#996928;" d="M481.232,440.152c0,0-10.233-22.082-30.067-10.979
				C459.068,450.406,481.232,440.152,481.232,440.152z"/>
			<path style="fill:#744921;" d="M451.165,429.173l30.067,10.979C481.232,440.152,459.068,450.406,451.165,429.173z"/>
		</g>
		<g>
			<path style="fill:#996928;" d="M447.254,449.978c0,0-7.676-16.562-22.551-8.232C430.63,457.667,447.254,449.978,447.254,449.978z
				"/>
			<path style="fill:#744921;" d="M424.704,441.746l22.551,8.232C447.254,449.978,430.63,457.667,424.704,441.746z"/>
		</g>
		<g>
			<path style="fill:#996928;" d="M544.97,131.991c0,0,44.252-5.25,45.973,36.192C550.254,176.239,544.97,131.991,544.97,131.991z"
				/>
			<path style="fill:#CC9548;" d="M590.943,168.183l-45.973-36.192C544.97,131.991,589.222,126.74,590.943,168.183z"/>
		</g>
		<g>
			<path style="fill:#996928;" d="M547.504,173.84c0,0,44.378-4.048,44.974,37.426C551.587,218.215,547.504,173.84,547.504,173.84z"
				/>
			<path style="fill:#CC9548;" d="M592.355,208.384c-0.311,1.662-0.604,2.659-0.604,2.659l-44.247-37.203
				C547.504,173.84,589.785,169.991,592.355,208.384z"/>
		</g>
		<g>
			<path style="fill:#996928;" d="M545.072,210.022c0,0,44.562-0.046,41.431,41.312
				C545.152,254.585,545.072,210.022,545.072,210.022z"/>
			<path style="fill:#CC9548;" d="M586.502,251.334l-41.431-41.312C545.072,210.022,589.634,209.977,586.502,251.334z"/>
		</g>
		<g>
			<path style="fill:#996928;" d="M547.526,248.776c0,0,37.28,8.734,26.423,42.778C538.718,286.136,547.526,248.776,547.526,248.776
				z"/>
			<path style="fill:#CC9548;" d="M573.949,291.554l-26.423-42.778C547.526,248.776,584.806,257.51,573.949,291.554z"/>
		</g>
		<g>
			<path style="fill:#996928;" d="M530.333,287.308c0,0,37.506,7.711,27.584,42.039
				C522.552,324.896,530.333,287.308,530.333,287.308z"/>
			<path style="fill:#CC9548;" d="M557.917,329.347l-27.584-42.039C530.333,287.308,567.839,295.019,557.917,329.347z"/>
		</g>
		<g>
			<path style="fill:#996928;" d="M514.695,315.572c0,0,35.717,13.803,20.258,46.02C500.81,351.355,514.695,315.572,514.695,315.572
				z"/>
			<path style="fill:#CC9548;" d="M534.953,361.591l-20.258-46.02C514.695,315.572,550.412,329.375,534.953,361.591z"/>
		</g>
		<g>
			<path style="fill:#996928;" d="M499.629,348.865c0,0,26.479,16.553,9.139,39.975C483,375.386,499.629,348.865,499.629,348.865z"
				/>
			<path style="fill:#CC9548;" d="M508.768,388.839l-9.139-39.975C499.629,348.865,526.109,365.417,508.768,388.839z"/>
		</g>
		<g>
			<path style="fill:#996928;" d="M476.383,370.701c0,0,24.622,19.207,4.948,40.707
				C457.095,395.357,476.383,370.701,476.383,370.701z"/>
			<path style="fill:#CC9548;" d="M481.332,411.408l-4.948-40.707C476.383,370.701,501.005,389.908,481.332,411.408z"/>
		</g>
		<g>
			<path style="fill:#996928;" d="M455.898,396.003c0,0,14.334,19.686-5.03,31.58C436.145,410.347,455.898,396.003,455.898,396.003z
				"/>
			<path style="fill:#CC9548;" d="M450.868,427.583l5.03-31.58C455.898,396.003,470.232,415.689,450.868,427.583z"/>
		</g>
		<g>
			<path style="fill:#996928;" d="M428.253,416.867c0,0,10.75,14.764-3.772,23.684C413.44,427.625,428.253,416.867,428.253,416.867z
				"/>
			<path style="fill:#CC9548;" d="M424.481,440.55l3.772-23.684C428.253,416.867,439.003,431.63,424.481,440.55z"/>
		</g>
		<path style="fill:none;stroke:#CC9548;stroke-width:5;stroke-miterlimit:10;" d="M584.519,128.39
			c9.809,35.883,12.033,74.449,5.145,113.514c-18.087,102.576-94.027,180.42-188.349,205.893"/>
		<g>
			<path style="fill:#744921;" d="M587.015,131.395l-20.546-54.783C566.469,76.611,607.031,95.066,587.015,131.395z"/>
			<path style="fill:#CC9548;" d="M587.018,131.388c-0.007,0-0.01-0.001-0.028-0.003c-38.936-14.215-20.521-54.774-20.521-54.774
				l20.558,54.761C587.023,131.378,587.021,131.383,587.018,131.388z"/>
		</g>
	</g>
</g>
<g id="Layer_2" style="display:none;">
	<rect x="539.054" y="-295.982" style="display:inline;fill:#15110E;" width="300" height="300"/>
	<rect x="538.833" y="-295.982" style="display:inline;fill:#641313;" width="150" height="75"/>
	<rect x="538.833" y="-220.761" style="display:inline;fill:#996928;" width="75" height="75"/>
	<rect x="613.833" y="-220.761" style="display:inline;fill:#744921;" width="75" height="75"/>
	<rect x="538.833" y="-145.982" style="display:inline;fill:#8C5B29;" width="75" height="75"/>
	<rect x="538.833" y="-70.872" style="display:inline;fill:#D57A16;" width="50" height="75"/>
	<rect x="588.833" y="-70.872" style="display:inline;fill:#EB9D1B;" width="50" height="75"/>
	<rect x="638.833" y="-70.872" style="display:inline;fill:#EBD6B9;" width="50" height="75"/>
	<rect x="613.833" y="-145.761" style="display:inline;fill:#CC9548;" width="75" height="75"/>
</g>
</svg>
