<?xml version="1.0" encoding="iso-8859-1"?>
<!-- Generator: Adobe Illustrator 16.0.0, SVG Export Plug-In . SVG Version: 6.00 Build 0)  -->
<!DOCTYPE svg PUBLIC "-//W3C//DTD SVG 1.1//EN" "http://www.w3.org/Graphics/SVG/1.1/DTD/svg11.dtd">
<svg version="1.1" id="Layer_1" xmlns="http://www.w3.org/2000/svg" xmlns:xlink="http://www.w3.org/1999/xlink" x="0px" y="0px"
	 width="281.943px" height="190.688px" viewBox="0 0 281.943 190.688" style="enable-background:new 0 0 281.943 190.688;"
	 xml:space="preserve">
<g id="columns_1_">
	<rect x="100.418" y="65.144" style="fill:#55483E;" width="20.867" height="79.57"/>
	<rect x="136.42" y="65.144" style="fill:#55483E;" width="20.867" height="79.57"/>
	<rect x="172.422" y="65.144" style="fill:#55483E;" width="20.865" height="79.57"/>
	<rect x="208.422" y="65.144" style="fill:#55483E;" width="20.867" height="79.57"/>
	<polygon style="fill:#4C4037;" points="113.756,77.984 113.756,142.535 107.947,142.535 107.947,77.984 105.043,77.984 
		105.043,142.535 105.043,144.714 107.947,144.714 113.756,144.714 116.662,144.714 116.662,142.535 116.662,77.984 	"/>
	<polygon style="fill:#4C4037;" points="149.758,77.984 149.758,142.535 143.947,142.535 143.947,77.984 141.043,77.984 
		141.043,142.535 141.043,144.714 143.947,144.714 149.758,144.714 152.662,144.714 152.662,142.535 152.662,77.984 	"/>
	<polygon style="fill:#4C4037;" points="185.76,77.984 185.76,142.535 179.951,142.535 179.951,77.984 177.045,77.984 
		177.045,142.535 177.045,144.714 179.951,144.714 185.76,144.714 188.664,144.714 188.664,142.535 188.664,77.984 	"/>
	<polygon style="fill:#4C4037;" points="221.76,77.984 221.76,142.535 215.951,142.535 215.951,77.984 213.047,77.984 
		213.047,142.535 213.047,144.714 215.951,144.714 221.76,144.714 224.664,144.714 224.664,142.535 224.664,77.984 	"/>
</g>
<g>
	<polygon style="fill:#4C4037;" points="229.449,55.971 183.971,55.971 183.971,74.316 229.449,74.316 229.449,144.714 
		234.648,144.714 234.648,74.316 234.648,55.971 	"/>
	<polygon style="fill:#65564A;" points="171.779,27.996 112.33,27.996 175.199,50.01 183.971,50.01 183.971,55.971 234.648,55.971 
		234.648,50.01 	"/>
</g>
<polygon style="fill:#8D7868;" points="119.879,27.996 112.33,27.996 116.084,29.285 55.1,50.01 55.1,74.316 163.104,74.316 
	163.104,144.714 183.971,144.714 183.971,74.316 183.971,65.144 183.971,50.01 "/>
<g id="columns">
	<rect x="47.531" y="65.144" style="fill:#9F8875;" width="20.867" height="79.57"/>
	<rect x="83.533" y="65.144" style="fill:#9F8875;" width="20.867" height="79.57"/>
	<rect x="119.535" y="65.144" style="fill:#9F8875;" width="20.867" height="79.57"/>
	<rect x="155.537" y="65.144" style="fill:#9F8875;" width="20.867" height="79.57"/>
	<polygon style="fill:#79604C;" points="60.869,77.984 60.869,142.535 55.061,142.535 55.061,77.984 52.156,77.984 52.156,142.535 
		52.156,144.714 55.061,144.714 60.869,144.714 63.775,144.714 63.775,142.535 63.775,77.984 	"/>
	<polygon style="fill:#79604C;" points="96.871,77.984 96.871,142.535 91.062,142.535 91.062,77.984 88.156,77.984 88.156,142.535 
		88.156,144.714 91.062,144.714 96.871,144.714 99.775,144.714 99.775,142.535 99.775,77.984 	"/>
	<polygon style="fill:#79604C;" points="132.873,77.984 132.873,142.535 127.064,142.535 127.064,77.984 124.16,77.984 
		124.16,142.535 124.16,144.714 127.064,144.714 132.873,144.714 135.777,144.714 135.777,142.535 135.777,77.984 	"/>
	<polygon style="fill:#79604C;" points="168.873,77.984 168.873,142.535 163.064,142.535 163.064,77.984 160.16,77.984 
		160.16,142.535 160.16,144.714 163.064,144.714 168.873,144.714 171.779,144.714 171.779,142.535 171.779,77.984 	"/>
</g>
<polygon style="fill:#9F8875;" points="112.33,27.996 47.551,50.01 47.551,74.316 176.422,74.316 176.422,50.01 "/>
<g>
	<g>
		<rect x="57.164" y="60.404" style="fill:#7C624E;" width="4.738" height="9.938"/>
		<rect x="68.398" y="60.404" style="fill:#7C624E;" width="4.738" height="9.938"/>
		<rect x="79.635" y="60.404" style="fill:#7C624E;" width="4.738" height="9.938"/>
		<rect x="90.869" y="60.404" style="fill:#7C624E;" width="4.738" height="9.938"/>
		<rect x="102.105" y="60.404" style="fill:#7C624E;" width="4.738" height="9.938"/>
		<rect x="113.34" y="60.404" style="fill:#7C624E;" width="4.738" height="9.938"/>
		<rect x="124.574" y="60.404" style="fill:#7C624E;" width="4.74" height="9.938"/>
		<rect x="135.811" y="60.404" style="fill:#7C624E;" width="4.738" height="9.938"/>
		<rect x="147.045" y="60.404" style="fill:#7C624E;" width="4.738" height="9.938"/>
		<rect x="158.281" y="60.404" style="fill:#7C624E;" width="4.738" height="9.938"/>
	</g>
	<polygon style="fill:#7C624E;" points="112.025,33.831 112.025,33.805 111.986,33.818 111.949,33.805 111.949,33.831 
		57.145,52.455 57.145,55.971 60.967,55.971 111.986,38.863 163.008,55.971 166.828,55.971 166.828,52.455 	"/>
</g>
<g id="shadow" style="opacity:0.7;">
	<polygon style="fill:#9F8875;" points="55.061,144.714 60.869,144.714 63.775,144.714 68.398,144.714 68.398,74.316 83.533,74.316 
		83.533,144.714 88.156,144.714 91.062,144.714 96.871,144.714 99.775,144.714 104.4,144.714 104.4,95.793 71.816,41.764 
		47.551,50.01 47.551,65.144 47.531,65.144 47.531,144.714 52.156,144.714 	"/>
	<polygon style="fill:#9F8875;" points="119.535,120.889 119.535,144.714 124.16,144.714 127.064,144.714 132.873,144.714 
		133.902,144.714 	"/>
</g>
</svg>
