<?xml version="1.0" encoding="utf-8"?>
<!-- Generator: Adobe Illustrator 18.1.1, SVG Export Plug-In . SVG Version: 6.00 Build 0)  -->
<svg version="1.1" id="Layer_1" xmlns="http://www.w3.org/2000/svg" xmlns:xlink="http://www.w3.org/1999/xlink" x="0px" y="0px"
	 viewBox="-6.8 848.4 612 58.8" enable-background="new -6.8 848.4 612 58.8" xml:space="preserve">
<g id="Layer_1_1_" display="none">
	<g display="inline">
		<path fill="#CC9548" d="M695.6,1145.4c0,0,10.9,59.4-208.4,59.4h-34c-219.3,0-208.4-59.4-208.4-59.4
			c-24.1,32.4,7.4,73.5,13.4,89.6s195,4.7,195,4.7v-0.2h34v0.2c0,0,188.9,11.4,195-4.7S719.8,1177.7,695.6,1145.4z"/>
		<path fill="#EBD6B9" d="M244.8,1172.9c0,0-10.9,45.3,208.4,45.3h34c219.3,0,208.4-45.3,208.4-45.3v-6.1c0,0,10.9,45.3-208.4,45.3
			h-34c-219.3,0-208.4-45.3-208.4-45.3L244.8,1172.9L244.8,1172.9z"/>
		<path fill="#EBD6B9" d="M244.4,1185.4c0,0-10.9,45.3,208.4,45.3h34c219.3,0,208.4-45.3,208.4-45.3v-6.1c0,0,10.9,45.3-208.4,45.3
			h-34c-219.3,0-208.4-45.3-208.4-45.3L244.4,1185.4L244.4,1185.4z"/>
	</g>
	<path display="inline" fill="#996928" d="M706,1113.7l-13.5,6c0.1,0.7,14.2,62-19.4,99.9c-9.9,11.1-22.6,16.7-39.2,16.7H521.6
		H418.2H305.8c-16.5,0-29.4-5.4-39.2-16.7c-29-33.2-20.1-104.4-20-105.1l-6.4-0.9l-6.6-0.9c-0.4,3.1-10.1,77.9,23,115.6
		c12.3,14.1,28.9,21.2,49.3,21.2h112.4h103.4h112.4c20.4,0,37-7.2,49.3-21.2C716.3,1190.7,706.5,1117,706,1113.7z"/>
	<g display="inline">
		<rect x="297.8" y="949.4" fill="#15110E" width="201" height="201"/>
		<rect x="297.6" y="949.4" fill="#641313" width="100.5" height="50.3"/>
		<rect x="297.6" y="999.8" fill="#996928" width="50.3" height="50.3"/>
		<rect x="347.9" y="999.8" fill="#744921" width="50.3" height="50.3"/>
		<rect x="297.6" y="1049.9" fill="#8C5B29" width="50.3" height="50.3"/>
		<rect x="297.6" y="1100.2" fill="#D57A16" width="33.5" height="50.3"/>
		<rect x="331.1" y="1100.2" fill="#EB9D1B" width="33.5" height="50.3"/>
		<rect x="364.6" y="1100.2" fill="#EBD6B9" width="33.5" height="50.3"/>
		<rect x="347.9" y="1050" fill="#CC9548" width="50.3" height="50.3"/>
	</g>
</g>
<g id="Layer_3" display="none">
	<path display="inline" fill="#996928" d="M767.8,1104.1c-0.2-5-3.6-2-3.6-2c-12-3.1-13.5-16.5-13.7-18c8.8-1.2,7.8-3,4.2-5.6
		c-2.2-1.5-9.2-4-15.3-5.9c-0.8-0.3-1.7-0.7-2.6-1c1.1-12-14.2-18-14.2-18c0.1,8-0.2,10.3-1.7,14.7c-7.3-0.2-14.7,1.9-20.1,8.8
		c-15.7,20-8,42.1-6,54.7l12.3-9c0,0-2-11.9-1.5-17.9c0.2-1.1,0.3-2.2,0.6-3.1c0.7-2.3,2.8-7,9-7c16.5,0.1,10.9,20.8,23,26
		c4.4,1.9,7.6,0.3,7.6,0.3c-9.2-9.7-9-24.9-9-24.9c6,6.7,20.6,16.3,24.5,16.5C765.2,1112.7,768,1109.1,767.8,1104.1z"/>
	<path display="inline" fill="#996928" d="M721,1068.1c0,0-17.6-3.8-23.9,2.7l9.4,2.7C706.5,1073.5,724.6,1074.9,721,1068.1z"/>
	<path display="inline" fill="#996928" d="M710.2,1074c0,0-12.5-4.1-18.8,2.3l9.4,2.7C700.8,1079,713.8,1080.8,710.2,1074z"/>
	<path display="inline" fill="#996928" d="M706.2,1079.8c0,0-12.5-4.1-18.8,2.3l9.4,2.7C696.8,1084.9,709.8,1086.6,706.2,1079.8z"/>
	<path display="inline" fill="#996928" d="M703.9,1085.5c0,0-12.5-4.1-18.8,2.3l9.4,2.7C694.6,1090.6,707.6,1092.4,703.9,1085.5z"/>
	<path display="inline" fill="#996928" d="M702.4,1091.2c0,0-12.5-4.1-18.8,2.3l9.4,2.7C693,1096.2,706,1097.9,702.4,1091.2z"/>
	<path display="inline" fill="#996928" d="M743.3,1226.8c3.8-6.6,6-14.3,6-22.4c0-13.1-5.6-24.9-14.4-33.2c0,0-1.7-1.6-2.6-2.3
		c-23.9-21.4-24.9-46.2-24.9-46.2H701c0,0,0.3,15.9-2.2,36.5c0,0,0,0-0.1,0c-1.2,9.1-0.2,39.7-18.6,61.4c-15.7,18.4-51.2,29-51.2,29
		h75c14.5,0,27.5-6.8,35.8-17.4C741.1,1230.6,742.4,1228.8,743.3,1226.8C743.2,1226.8,743.2,1226.8,743.3,1226.8z"/>
	<path display="inline" fill="#996928" d="M195.2,1226.8c-3.8-6.6-6-14.3-6-22.4c0-13.1,5.6-24.9,14.4-33.2c0,0,1.7-1.6,2.6-2.3
		c23.9-21.4,24.9-46.2,24.9-46.2h6.4c0,0-0.3,15.9,2.2,36.5c0,0,0,0,0.1,0c1.2,9.1,0.2,39.7,18.6,61.4c15.6,18.4,51.1,29,51.1,29
		h-75c-14.5,0-27.5-6.8-35.8-17.4C197.3,1230.6,196,1228.8,195.2,1226.8L195.2,1226.8z"/>
	<path display="inline" fill="#8C5B29" d="M767.8,1104.1c-0.2-5-3.6-2-3.6-2c-12-3.1-13.5-16.5-13.7-18c2.8-0.4,5.6-1.3,5.6-1.3
		s-17.1-5.2-24.5-5.9c-36.1-3.4-35.4,16.6-34.5,38.6c0.6,14.3,32.1,126.6,32.1,126.6c4-2.7,7.4-6,10.4-9.6c1.5-1.7,2.8-3.5,3.7-5.4
		c0,0,0-0.1,0.1-0.1c3.8-6.6,6-14.3,6-22.4c0-13.1-5.6-24.9-14.4-33.2c0,0-1.7-1.6-2.6-2.3c-23.9-21.4-24.9-46.2-24.9-46.2
		s-2-11.9-1.5-17.9c0.2-1.1,0.3-2.2,0.6-3.1c0.7-2.3,2.8-7,9-7c16.5,0.1,10.9,20.8,23,26c4.4,1.9,7.6,0.3,7.6,0.3
		c-9.2-9.7-9-24.9-9-24.9c6,6.7,20.6,16.3,24.5,16.5C765.2,1112.7,768,1109.1,767.8,1104.1z"/>
	<g display="inline">
		<circle fill="#996928" cx="223" cy="1114.1" r="23.6"/>
		<circle fill="#CC9548" cx="223" cy="1114.1" r="16.8"/>
		<circle fill="#996928" cx="223" cy="1114.1" r="13.4"/>
		<circle fill="#CC9548" cx="223" cy="1114.1" r="10.1"/>
		<circle fill="#996928" cx="223" cy="1114.1" r="3.4"/>
	</g>
</g>
<g id="Layer_4" display="none">
	<circle display="inline" fill="#8C5B29" cx="236.2" cy="1204.5" r="35.9"/>
	<circle display="inline" fill="#996928" cx="236.2" cy="1204.5" r="26.8"/>
	<circle display="inline" fill="#CC9548" cx="236.2" cy="1204.5" r="22.3"/>
	<circle display="inline" fill="#996928" cx="236.2" cy="1204.5" r="19"/>
	<circle display="inline" fill="#8C5B29" cx="701.8" cy="1204.5" r="35.9"/>
	<circle display="inline" fill="#996928" cx="701.8" cy="1204.5" r="26.8"/>
	<circle display="inline" fill="#CC9548" cx="701.8" cy="1204.5" r="22.3"/>
	<circle display="inline" fill="#996928" cx="701.8" cy="1204.5" r="19"/>
</g>
<path fill="#744921" d="M78.8,865.8c-12.9,0-24.1-7-30.2-17.4c-2.9,5.1-4.6,11.1-4.6,17.4c0,19.2,15.5,34.8,34.8,34.8
	s34.8-15.5,34.8-34.8c0-6.3-1.7-12.3-4.6-17.4C103,858.8,91.7,865.8,78.8,865.8z"/>
<path fill="#433830" d="M561,865.8c-12.9,0-24.1-7-30.2-17.4c-2.9,5.1-4.6,11.1-4.6,17.4c0,19.2,15.5,34.8,34.8,34.8
	s34.8-15.5,34.8-34.8c0-6.3-1.7-12.3-4.6-17.4C585.1,858.8,573.9,865.8,561,865.8z"/>
<path fill="#744921" d="M139,865.8c-12.9,0-24.1-7-30.2-17.4c-2.9,5.1-4.6,11.1-4.6,17.4c0,19.2,15.5,34.8,34.8,34.8
	c19.2,0,34.8-15.5,34.8-34.8c0-6.3-1.7-12.3-4.6-17.4C163.2,858.8,152,865.8,139,865.8z"/>
<path fill="#744921" d="M199.4,865.8c-12.9,0-24.1-7-30.2-17.4c-2.9,5.1-4.6,11.1-4.6,17.4c0,19.2,15.5,34.8,34.8,34.8
	s34.8-15.5,34.8-34.8c0-6.3-1.7-12.3-4.6-17.4C223.5,858.8,212.2,865.8,199.4,865.8z"/>
<path fill="#744921" d="M259.6,865.8c-12.9,0-24.1-7-30.2-17.4c-2.9,5.1-4.6,11.1-4.6,17.4c0,19.2,15.5,34.8,34.8,34.8
	s34.8-15.5,34.8-34.8c0-6.3-1.7-12.3-4.6-17.4C283.7,858.8,272.4,865.8,259.6,865.8z"/>
<path fill="#744921" d="M319.8,865.8c-12.9,0-24.1-7-30.2-17.4c-2.9,5.1-4.6,11.1-4.6,17.4c0,19.2,15.5,34.8,34.8,34.8
	s34.8-15.5,34.8-34.8c0-6.3-1.7-12.3-4.6-17.4C343.9,858.8,332.7,865.8,319.8,865.8z"/>
<path fill="#744921" d="M380.2,865.8c-12.9,0-24.1-7-30.2-17.4c-2.9,5.1-4.6,11.1-4.6,17.4c0,19.2,15.5,34.8,34.8,34.8
	c19.2,0,34.8-15.5,34.8-34.8c0-6.3-1.7-12.3-4.6-17.4C404.3,858.8,393.1,865.8,380.2,865.8z"/>
<path fill="#744921" d="M440.4,865.8c-12.9,0-24.1-7-30.2-17.4c-2.9,5.1-4.6,11.1-4.6,17.4c0,19.2,15.5,34.8,34.8,34.8
	s34.8-15.5,34.8-34.8c0-6.3-1.7-12.3-4.6-17.4C464.5,858.8,453.3,865.8,440.4,865.8z"/>
<path fill="#744921" d="M500.8,865.8c-12.9,0-24.1-7-30.2-17.4c-2.9,5.1-4.6,11.1-4.6,17.4c0,19.2,15.5,34.8,34.8,34.8
	c19.3,0,34.8-15.5,34.8-34.8c0-6.3-1.7-12.3-4.6-17.4C524.9,858.8,513.7,865.8,500.8,865.8z"/>
<rect x="-3.4" y="865.7" fill="#2980B9" width="599.2" height="34.8"/>
<path fill="#744921" d="M48.7,848.4c-6,10.4-17.3,17.4-30.2,17.4c-8.3,0-16-2.9-22-7.8v34.7c6,4.9,13.7,7.8,22,7.8
	c19.2,0,34.8-15.5,34.8-34.8C53.4,859.4,51.7,853.5,48.7,848.4z"/>
<g>
	<g>
		<path fill="#433830" d="M28,865.8c-12.9,0-24.1-7-30.2-17.4c-2.9,5.1-4.6,11.1-4.6,17.4c0,19.2,15.5,34.8,34.8,34.8
			s34.8-15.5,34.8-34.8c0-6.3-1.7-12.3-4.6-17.4C52.1,858.8,40.8,865.8,28,865.8z"/>
		<path fill="#433830" d="M88.2,865.8c-12.9,0-24.1-7-30.2-17.4c-2.9,5.1-4.6,11.1-4.6,17.4c0,19.2,15.5,34.8,34.8,34.8
			c19.2,0,34.8-15.5,34.8-34.8c0-6.3-1.7-12.3-4.6-17.4C112.4,858.8,101.1,865.8,88.2,865.8z"/>
		<path fill="#433830" d="M148.4,865.8c-12.9,0-24.1-7-30.2-17.4c-2.9,5.1-4.6,11.1-4.6,17.4c0,19.2,15.5,34.8,34.8,34.8
			s34.8-15.5,34.8-34.8c0-6.3-1.7-12.3-4.6-17.4C172.5,858.8,161.4,865.8,148.4,865.8z"/>
		<path fill="#433830" d="M208.7,865.8c-12.9,0-24.1-7-30.2-17.4c-2.9,5.1-4.6,11.1-4.6,17.4c0,19.2,15.5,34.8,34.8,34.8
			s34.8-15.5,34.8-34.8c0-6.3-1.7-12.3-4.6-17.4C232.9,858.8,221.6,865.8,208.7,865.8z"/>
		<path fill="#433830" d="M269,865.8c-12.9,0-24.1-7-30.2-17.4c-2.9,5.1-4.6,11.1-4.6,17.4c0,19.2,15.5,34.8,34.8,34.8
			c19.2,0,34.8-15.5,34.8-34.8c0-6.3-1.7-12.3-4.6-17.4C293.1,858.8,281.8,865.8,269,865.8z"/>
		<path fill="#433830" d="M329.2,865.8c-12.9,0-24.1-7-30.2-17.4c-2.9,5.1-4.6,11.1-4.6,17.4c0,19.2,15.5,34.8,34.8,34.8
			s34.8-15.5,34.8-34.8c0-6.3-1.7-12.3-4.6-17.4C353.3,858.8,342.1,865.8,329.2,865.8z"/>
		<path fill="#433830" d="M389.6,865.8c-12.9,0-24.1-7-30.2-17.4c-2.9,5.1-4.6,11.1-4.6,17.4c0,19.2,15.5,34.8,34.8,34.8
			c19.2,0,34.8-15.5,34.8-34.8c0-6.3-1.7-12.3-4.6-17.4C413.7,858.8,402.4,865.8,389.6,865.8z"/>
		<path fill="#433830" d="M449.8,865.8c-12.9,0-24.1-7-30.2-17.4c-2.9,5.1-4.6,11.1-4.6,17.4c0,19.2,15.5,34.8,34.8,34.8
			s34.8-15.5,34.8-34.8c0-6.3-1.7-12.3-4.6-17.4C473.9,858.8,462.7,865.8,449.8,865.8z"/>
		<path fill="#433830" d="M510.2,865.8c-12.9,0-24.1-7-30.2-17.4c-2.9,5.1-4.6,11.1-4.6,17.4c0,19.2,15.5,34.8,34.8,34.8
			c19.2,0,34.8-15.5,34.8-34.8c0-6.3-1.7-12.3-4.6-17.4C534.3,858.8,523,865.8,510.2,865.8z"/>
		<path fill="#433830" d="M570.4,865.8c-12.9,0-24.1-7-30.2-17.4c-2.9,5.1-4.6,11.1-4.6,17.4c0,19.2,15.5,34.8,34.8,34.8
			c19.2,0,34.8-15.5,34.8-34.8c0-6.3-1.7-12.3-4.6-17.4C594.5,858.8,583.3,865.8,570.4,865.8z"/>
	</g>
	<rect x="-6.8" y="865.7" fill="#433830" width="612" height="41.5"/>
</g>
</svg>
