<?xml version="1.0" encoding="iso-8859-1"?>
<!-- Generator: Adobe Illustrator 16.0.0, SVG Export Plug-In . SVG Version: 6.00 Build 0)  -->
<!DOCTYPE svg PUBLIC "-//W3C//DTD SVG 1.1//EN" "http://www.w3.org/Graphics/SVG/1.1/DTD/svg11.dtd">
<svg version="1.1" xmlns="http://www.w3.org/2000/svg" xmlns:xlink="http://www.w3.org/1999/xlink" x="0px" y="0px" width="931px"
	 height="400px" viewBox="0 0 931 400" style="enable-background:new 0 0 931 400;" xml:space="preserve">
<g id="Layer_1" style="display:none;">
	<g>
		<path style="display:inline;fill:#CC9548;" d="M794.755,173.284c0,0,16.331,88.716-311.002,88.716H433
			c-327.333,0-311.001-88.716-311.001-88.716C85.997,221.567,133,283,142,307s291,7,291,7v-0.332h50.753V314c0,0,282,17,291-7
			S830.756,221.567,794.755,173.284z"/>
		<path style="display:inline;fill:#EBD6B9;" d="M121.999,214.424c0,0-16.332,67.576,311.001,67.576h50.753
			c327.333,0,311.002-67.576,311.002-67.576v-9.141c0,0,16.331,67.576-311.002,67.576H433c-327.333,0-311.001-67.576-311.001-67.576
			V214.424z"/>
		<path style="display:inline;fill:#EBD6B9;" d="M121.386,232.973c0,0-16.332,67.576,311.001,67.576h50.753
			c327.333,0,311.002-67.576,311.002-67.576v-9.141c0,0,16.331,67.576-311.002,67.576h-50.753
			c-327.333,0-311.001-67.576-311.001-67.576V232.973z"/>
	</g>
	<path style="fill:#996928;" d="M810.339,126.133l-20.101,8.869c0.143,1.066,21.239,92.564-28.979,149.113
		C746.483,300.753,727.464,309,702.74,309H535H380.74H213c-24.724,0-43.865-8.14-58.519-24.885
		c-43.346-49.535-30-155.752-29.856-156.819L115,126l-9.911-1.335c-0.635,4.718-14.998,116.188,34.313,172.588
		C157.82,318.318,182.582,329,213,329h167.74H535h167.74c30.418,0,55.18-10.682,73.598-31.747
		C825.648,240.854,810.975,130.851,810.339,126.133z"/>
	<g>
		<rect x="200.971" y="-119.235" style="display:inline;fill:#15110E;" width="300" height="300"/>
		<rect x="200.75" y="-119.235" style="display:inline;fill:#641313;" width="150" height="75"/>
		<rect x="200.75" y="-44.015" style="display:inline;fill:#996928;" width="75" height="75"/>
		<rect x="275.75" y="-44.015" style="display:inline;fill:#744921;" width="75" height="75"/>
		<rect x="200.75" y="30.765" style="display:inline;fill:#8C5B29;" width="75" height="75"/>
		<rect x="200.75" y="105.875" style="display:inline;fill:#D57A16;" width="50" height="75"/>
		<rect x="250.75" y="105.875" style="display:inline;fill:#EB9D1B;" width="50" height="75"/>
		<rect x="300.75" y="105.875" style="display:inline;fill:#EBD6B9;" width="50" height="75"/>
		<rect x="275.75" y="30.985" style="display:inline;fill:#CC9548;" width="75" height="75"/>
	</g>
</g>
<g id="Layer_3" style="display:none;">
	<path style="display:inline;fill:#996928;" d="M902.49,111.679c-0.3-7.52-5.416-3.009-5.416-3.009
		c-17.917-4.552-20.188-24.703-20.382-26.893c13.102-1.829,11.586-4.548,6.24-8.308c-3.251-2.287-13.715-5.934-22.782-8.844
		c-1.235-0.52-2.536-1.035-3.89-1.541c1.608-17.935-21.165-26.92-21.165-26.92c0.194,11.945-0.32,15.397-2.454,21.884
		c-10.901-0.27-21.905,2.897-30.039,13.247c-23.468,29.854-11.944,62.752-8.936,81.707l18.428-13.507c0,0-3.001-17.801-2.184-26.742
		c0.251-1.746,0.546-3.334,0.91-4.702c1.093-3.353,4.179-10.549,13.443-10.511c24.594,0.1,16.244,30.989,34.299,38.811
		c6.646,2.881,11.278,0.527,11.278,0.527c-13.841-14.542-13.461-37.116-13.461-37.116c9,10,30.766,24.254,36.481,24.556
		C898.576,124.617,902.79,119.199,902.49,111.679z"/>
	<path style="display:inline;fill:#996928;" d="M832.642,58.047c0,0-26.309-5.714-35.642,3.953l14.01,4
		C811.01,66,837.994,68.191,832.642,58.047z"/>
	<path style="display:inline;fill:#996928;" d="M816.552,66.811c0,0-18.687-6.145-28.02,3.522l14.01,4
		C802.542,74.333,821.904,76.955,816.552,66.811z"/>
	<path style="display:inline;fill:#996928;" d="M810.542,75.478c0,0-18.687-6.145-28.02,3.522l14.01,4
		C796.532,83,815.895,85.622,810.542,75.478z"/>
	<path style="display:inline;fill:#996928;" d="M807.209,84.021c0,0-18.687-6.145-28.02,3.522l14.01,4
		C793.199,91.544,812.562,94.166,807.209,84.021z"/>
	<path style="display:inline;fill:#996928;" d="M804.876,92.355c0,0-18.687-6.145-28.02,3.522l14.01,4
		C790.866,99.877,810.229,102.499,804.876,92.355z"/>
	<path style="display:inline;fill:#996928;" d="M865.867,294.771c5.643-9.888,8.883-21.322,8.883-33.521
		c0-19.526-8.272-37.112-21.49-49.476c-0.003-0.01-2.643-2.373-3.946-3.417c-35.591-31.881-37.219-68.864-37.219-68.864H802.5
		c0,0,0.405,23.812-3.283,54.467c-0.021,0.003-0.043,0.004-0.064,0.007c-1.783,13.562-0.333,59.285-27.819,91.7
		C748.04,313.138,695,329,695,329h112c21.678,0,40.963-10.193,53.364-26.035c2.327-2.511,4.206-5.199,5.452-8.067
		C865.834,294.856,865.85,294.812,865.867,294.771z"/>
	<path style="display:inline;fill:#996928;" d="M47.883,294.771C42.24,284.883,39,273.448,39,261.25
		c0-19.526,8.272-37.112,21.49-49.476c0.003-0.01,2.643-2.373,3.946-3.417c35.591-31.881,37.219-68.864,37.219-68.864h9.595
		c0,0-0.405,23.812,3.283,54.467c0.021,0.003,0.043,0.004,0.064,0.007c1.783,13.562,0.333,59.285,27.819,91.7
		C165.71,313.138,218.75,329,218.75,329h-112c-21.678,0-40.963-10.193-53.364-26.035c-2.327-2.511-4.206-5.199-5.452-8.067
		C47.916,294.856,47.9,294.812,47.883,294.771z"/>
	<path style="display:inline;fill:#8C5B29;" d="M902.49,111.679c-0.3-7.52-5.416-3.009-5.416-3.009
		c-17.917-4.552-20.188-24.703-20.382-26.893c4.198-0.586,8.44-2.038,8.44-2.038s-25.532-7.792-36.627-8.849
		C794.607,65.756,795.662,95.678,797,128.5c0.873,21.417,47.89,188.9,47.89,188.9c5.881-3.98,11.106-8.855,15.475-14.436
		c2.327-2.511,4.206-5.199,5.452-8.067c0.018-0.041,0.033-0.086,0.051-0.127c5.643-9.888,8.883-21.322,8.883-33.521
		c0-19.526-8.272-37.112-21.49-49.476c-0.003-0.01-2.643-2.373-3.946-3.417c-35.591-31.881-37.219-68.864-37.219-68.864
		s-3.001-17.801-2.184-26.742c0.251-1.746,0.546-3.334,0.91-4.702c1.093-3.353,4.179-10.549,13.443-10.511
		c24.594,0.1,16.244,30.989,34.299,38.811c6.646,2.881,11.278,0.527,11.278,0.527c-13.841-14.542-13.461-37.116-13.461-37.116
		c9,10,30.766,24.254,36.481,24.556C898.576,124.617,902.79,119.199,902.49,111.679z"/>
	<g style="display:inline;">
		<circle style="fill:#996928;" cx="89.438" cy="126.688" r="35.188"/>
		<circle style="fill:#CC9548;" cx="89.438" cy="126.688" r="25"/>
		<circle style="fill:#996928;" cx="89.438" cy="126.688" r="20"/>
		<circle style="fill:#CC9548;" cx="89.438" cy="126.688" r="15"/>
		<circle style="fill:#996928;" cx="89.438" cy="126.688" r="5"/>
	</g>
</g>
<g id="Layer_4" style="display:none;">
	<circle style="display:inline;fill:#8C5B29;" cx="109.085" cy="261.647" r="53.647"/>
	<circle style="display:inline;fill:#996928;" cx="109.085" cy="261.647" r="40"/>
	<circle style="display:inline;fill:#CC9548;" cx="109.085" cy="261.647" r="33.283"/>
	<circle style="display:inline;fill:#996928;" cx="109.085" cy="261.648" r="28.395"/>
	<circle style="display:inline;fill:#8C5B29;" cx="804.001" cy="261.647" r="53.647"/>
	<circle style="display:inline;fill:#996928;" cx="804" cy="261.647" r="40"/>
	<circle style="display:inline;fill:#CC9548;" cx="804" cy="261.647" r="33.283"/>
	<circle style="display:inline;fill:#996928;" cx="804" cy="261.648" r="28.395"/>
</g>
<g id="Layer_5">
	<g>
		<path style="fill:#744921;" d="M137.236,326.196c-19.239,0-36.021-10.472-44.991-26.019c-4.4,7.626-6.93,16.466-6.93,25.901
			c0,28.675,23.246,51.921,51.921,51.921c28.674,0,51.92-23.246,51.92-51.921c0-9.436-2.531-18.275-6.931-25.901
			C173.256,315.725,156.474,326.196,137.236,326.196z"/>
		<path style="fill:#744921;" d="M227.125,326.196c-19.238,0-36.02-10.472-44.99-26.019c-4.399,7.626-6.931,16.466-6.931,25.901
			c0,28.675,23.246,51.921,51.921,51.921c28.675,0,51.921-23.246,51.921-51.921c0-9.436-2.529-18.275-6.929-25.901
			C263.146,315.725,246.364,326.196,227.125,326.196z"/>
		<path style="fill:#744921;" d="M317.065,326.196c-19.238,0-36.02-10.472-44.99-26.019c-4.4,7.626-6.931,16.466-6.931,25.901
			c0,28.675,23.246,51.921,51.92,51.921c28.675,0,51.921-23.246,51.921-51.921c0-9.436-2.531-18.275-6.93-25.901
			C353.085,315.725,336.303,326.196,317.065,326.196z"/>
		<path style="fill:#744921;" d="M406.955,326.196c-19.238,0-36.02-10.472-44.991-26.019c-4.399,7.626-6.93,16.466-6.93,25.901
			c0,28.675,23.246,51.921,51.921,51.921c28.675,0,51.92-23.246,51.92-51.921c0-9.436-2.529-18.275-6.929-25.901
			C442.976,315.725,426.193,326.196,406.955,326.196z"/>
		<path style="fill:#744921;" d="M496.896,326.196c-19.237,0-36.02-10.472-44.99-26.019c-4.399,7.626-6.931,16.466-6.931,25.901
			c0,28.675,23.246,51.921,51.921,51.921s51.921-23.246,51.921-51.921c0-9.436-2.531-18.275-6.931-25.901
			C532.916,315.725,516.134,326.196,496.896,326.196z"/>
		<path style="fill:#744921;" d="M586.955,326.196c-19.238,0-36.021-10.472-44.991-26.019c-4.399,7.626-6.931,16.466-6.931,25.901
			c0,28.675,23.246,51.921,51.922,51.921c28.674,0,51.92-23.246,51.92-51.921c0-9.436-2.529-18.275-6.929-25.901
			C622.976,315.725,606.193,326.196,586.955,326.196z"/>
		<path style="fill:#744921;" d="M676.896,326.196c-19.237,0-36.02-10.472-44.99-26.019c-4.399,7.626-6.931,16.466-6.931,25.901
			c0,28.675,23.246,51.921,51.921,51.921s51.921-23.246,51.921-51.921c0-9.436-2.531-18.275-6.931-25.901
			C712.916,315.725,696.134,326.196,676.896,326.196z"/>
		<path style="fill:#744921;" d="M766.955,326.196c-19.238,0-36.021-10.472-44.991-26.019c-4.399,7.626-6.931,16.466-6.931,25.901
			c0,28.675,23.246,51.921,51.922,51.921c28.674,0,51.92-23.246,51.92-51.921c0-9.436-2.529-18.275-6.929-25.901
			C802.976,315.725,786.193,326.196,766.955,326.196z"/>
		<path style="fill:#744921;" d="M856.896,326.196c-19.237,0-36.02-10.472-44.99-26.019c-4.399,7.626-6.931,16.466-6.931,25.901
			c0,28.675,23.246,51.921,51.921,51.921s51.921-23.246,51.921-51.921c0-9.436-2.531-18.275-6.931-25.901
			C892.916,315.725,876.134,326.196,856.896,326.196z"/>
		<rect x="14.5" y="326.079" style="fill:#744921;" width="894.316" height="51.921"/>
		<path style="fill:#744921;" d="M92.286,300.178c-8.971,15.547-25.753,26.019-44.991,26.019c-12.443,0-23.855-4.385-32.795-11.687
			v51.815C23.441,373.62,34.855,378,47.295,378c28.675,0,51.921-23.246,51.921-51.921C99.216,316.644,96.686,307.804,92.286,300.178
			z"/>
	</g>
	<g>
		<g>
			<path style="fill:#3F332B;" d="M61.295,326.196c-19.238,0-36.021-10.472-44.991-26.019c-4.399,7.626-6.93,16.466-6.93,25.901
				C9.374,354.754,32.62,378,61.295,378s51.921-23.246,51.921-51.921c0-9.436-2.53-18.275-6.93-25.901
				C97.315,315.725,80.533,326.196,61.295,326.196z"/>
			<path style="fill:#3F332B;" d="M151.236,326.196c-19.239,0-36.021-10.472-44.991-26.019c-4.4,7.626-6.93,16.466-6.93,25.901
				c0,28.675,23.246,51.921,51.921,51.921c28.674,0,51.92-23.246,51.92-51.921c0-9.436-2.531-18.275-6.931-25.901
				C187.256,315.725,170.474,326.196,151.236,326.196z"/>
			<path style="fill:#3F332B;" d="M241.125,326.196c-19.238,0-36.02-10.472-44.99-26.019c-4.399,7.626-6.931,16.466-6.931,25.901
				c0,28.675,23.246,51.921,51.921,51.921c28.675,0,51.921-23.246,51.921-51.921c0-9.436-2.529-18.275-6.929-25.901
				C277.146,315.725,260.364,326.196,241.125,326.196z"/>
			<path style="fill:#3F332B;" d="M331.065,326.196c-19.238,0-36.02-10.472-44.99-26.019c-4.4,7.626-6.931,16.466-6.931,25.901
				c0,28.675,23.246,51.921,51.92,51.921c28.675,0,51.921-23.246,51.921-51.921c0-9.436-2.531-18.275-6.93-25.901
				C367.085,315.725,350.303,326.196,331.065,326.196z"/>
			<path style="fill:#3F332B;" d="M420.955,326.196c-19.238,0-36.02-10.472-44.991-26.019c-4.399,7.626-6.93,16.466-6.93,25.901
				c0,28.675,23.246,51.921,51.921,51.921c28.675,0,51.92-23.246,51.92-51.921c0-9.436-2.529-18.275-6.929-25.901
				C456.976,315.725,440.193,326.196,420.955,326.196z"/>
			<path style="fill:#3F332B;" d="M510.896,326.196c-19.237,0-36.02-10.472-44.99-26.019c-4.399,7.626-6.931,16.466-6.931,25.901
				c0,28.675,23.246,51.921,51.921,51.921s51.921-23.246,51.921-51.921c0-9.436-2.531-18.275-6.931-25.901
				C546.916,315.725,530.134,326.196,510.896,326.196z"/>
			<path style="fill:#3F332B;" d="M600.955,326.196c-19.238,0-36.021-10.472-44.991-26.019c-4.399,7.626-6.931,16.466-6.931,25.901
				c0,28.675,23.246,51.921,51.922,51.921c28.674,0,51.92-23.246,51.92-51.921c0-9.436-2.529-18.275-6.929-25.901
				C636.976,315.725,620.193,326.196,600.955,326.196z"/>
			<path style="fill:#3F332B;" d="M690.896,326.196c-19.237,0-36.02-10.472-44.99-26.019c-4.399,7.626-6.931,16.466-6.931,25.901
				c0,28.675,23.246,51.921,51.921,51.921s51.921-23.246,51.921-51.921c0-9.436-2.531-18.275-6.931-25.901
				C726.916,315.725,710.134,326.196,690.896,326.196z"/>
			<path style="fill:#3F332B;" d="M780.955,326.196c-19.238,0-36.021-10.472-44.991-26.019c-4.399,7.626-6.931,16.466-6.931,25.901
				c0,28.675,23.246,51.921,51.922,51.921c28.674,0,51.92-23.246,51.92-51.921c0-9.436-2.529-18.275-6.929-25.901
				C816.976,315.725,800.193,326.196,780.955,326.196z"/>
			<path style="fill:#3F332B;" d="M870.896,326.196c-19.237,0-36.02-10.472-44.99-26.019c-4.399,7.626-6.931,16.466-6.931,25.901
				c0,28.675,23.246,51.921,51.921,51.921s51.921-23.246,51.921-51.921c0-9.436-2.531-18.275-6.931-25.901
				C906.916,315.725,890.134,326.196,870.896,326.196z"/>
		</g>
		<rect x="9.374" y="326.079" style="fill:#3F332B;" width="913.442" height="51.921"/>
	</g>
</g>
</svg>
