<?xml version="1.0" encoding="utf-8"?>
<!-- Generator: Adobe Illustrator 18.1.1, SVG Export Plug-In . SVG Version: 6.00 Build 0)  -->
<svg version="1.1" id="Layer_1" xmlns="http://www.w3.org/2000/svg" xmlns:xlink="http://www.w3.org/1999/xlink" x="0px" y="0px"
	 viewBox="169.4 497.2 913.4 87.8" enable-background="new 169.4 497.2 913.4 87.8" xml:space="preserve">
<g id="Layer_1_1_" display="none">
	<g display="inline">
		<path fill="#CC9548" d="M954.8,370.3c0,0,16.3,88.7-311,88.7H593c-327.3,0-311-88.7-311-88.7C246,418.6,293,480,302,504
			s291,7,291,7v-0.3h50.8v0.3c0,0,282,17,291-7S990.8,418.6,954.8,370.3z"/>
		<path fill="#EBD6B9" d="M282,411.4c0,0-16.3,67.6,311,67.6h50.8c327.3,0,311-67.6,311-67.6v-9.1c0,0,16.3,67.6-311,67.6H593
			c-327.3,0-311-67.6-311-67.6S282,411.4,282,411.4z"/>
		<path fill="#EBD6B9" d="M281.4,430c0,0-16.3,67.6,311,67.6h50.8c327.3,0,311-67.6,311-67.6v-9.1c0,0,16.3,67.6-311,67.6h-50.8
			c-327.3,0-311-67.6-311-67.6L281.4,430L281.4,430z"/>
	</g>
	<path display="inline" fill="#996928" d="M970.3,323.1l-20.1,8.9c0.1,1.1,21.2,92.6-29,149.1c-14.8,16.6-33.8,24.9-58.5,24.9H695
		H540.7H373c-24.7,0-43.9-8.1-58.5-24.9c-43.3-49.5-30-155.8-29.9-156.8L275,323l-9.9-1.3c-0.6,4.7-15,116.2,34.3,172.6
		c18.4,21.1,43.2,31.7,73.6,31.7h167.7H695h167.7c30.4,0,55.2-10.7,73.6-31.7C985.6,437.9,971,327.9,970.3,323.1z"/>
	<g display="inline">
		<rect x="361" y="77.8" fill="#15110E" width="300" height="300"/>
		<rect x="360.8" y="77.8" fill="#641313" width="150" height="75"/>
		<rect x="360.8" y="153" fill="#996928" width="75" height="75"/>
		<rect x="435.8" y="153" fill="#744921" width="75" height="75"/>
		<rect x="360.8" y="227.8" fill="#8C5B29" width="75" height="75"/>
		<rect x="360.8" y="302.9" fill="#D57A16" width="50" height="75"/>
		<rect x="410.8" y="302.9" fill="#EB9D1B" width="50" height="75"/>
		<rect x="460.8" y="302.9" fill="#EBD6B9" width="50" height="75"/>
		<rect x="435.8" y="228" fill="#CC9548" width="75" height="75"/>
	</g>
</g>
<g id="Layer_3" display="none">
	<path display="inline" fill="#996928" d="M1062.5,308.7c-0.3-7.5-5.4-3-5.4-3c-17.9-4.6-20.2-24.7-20.4-26.9
		c13.1-1.8,11.6-4.5,6.2-8.3c-3.3-2.3-13.7-5.9-22.8-8.8c-1.2-0.5-2.5-1-3.9-1.5c1.6-17.9-21.2-26.9-21.2-26.9
		c0.2,11.9-0.3,15.4-2.5,21.9c-10.9-0.3-21.9,2.9-30,13.2c-23.5,29.9-11.9,62.8-8.9,81.7l18.4-13.5c0,0-3-17.8-2.2-26.7
		c0.3-1.7,0.5-3.3,0.9-4.7c1.1-3.4,4.2-10.5,13.4-10.5c24.6,0.1,16.2,31,34.3,38.8c6.6,2.9,11.3,0.5,11.3,0.5
		c-13.8-14.5-13.5-37.1-13.5-37.1c9,10,30.8,24.3,36.5,24.6C1058.6,321.6,1062.8,316.2,1062.5,308.7z"/>
	<path display="inline" fill="#996928" d="M992.6,255c0,0-26.3-5.7-35.6,4l14,4C971,263,998,265.2,992.6,255z"/>
	<path display="inline" fill="#996928" d="M976.6,263.8c0,0-18.7-6.1-28,3.5l14,4C962.5,271.3,981.9,274,976.6,263.8z"/>
	<path display="inline" fill="#996928" d="M970.5,272.5c0,0-18.7-6.1-28,3.5l14,4C956.5,280,975.9,282.6,970.5,272.5z"/>
	<path display="inline" fill="#996928" d="M967.2,281c0,0-18.7-6.1-28,3.5l14,4C953.2,288.5,972.6,291.2,967.2,281z"/>
	<path display="inline" fill="#996928" d="M964.9,289.4c0,0-18.7-6.1-28,3.5l14,4C950.9,296.9,970.2,299.5,964.9,289.4z"/>
	<path display="inline" fill="#996928" d="M1025.9,491.8c5.6-9.9,8.9-21.3,8.9-33.5c0-19.5-8.3-37.1-21.5-49.5c0,0-2.6-2.4-3.9-3.4
		c-35.6-31.9-37.2-68.9-37.2-68.9h-9.6c0,0,0.4,23.8-3.3,54.5c0,0,0,0-0.1,0c-1.8,13.6-0.3,59.3-27.8,91.7
		C908,510.1,855,526,855,526h112c21.7,0,41-10.2,53.4-26c2.3-2.5,4.2-5.2,5.5-8.1C1025.8,491.9,1025.8,491.8,1025.9,491.8z"/>
	<path display="inline" fill="#996928" d="M207.9,491.8c-5.6-9.9-8.9-21.3-8.9-33.5c0-19.5,8.3-37.1,21.5-49.5c0,0,2.6-2.4,3.9-3.4
		c35.6-31.9,37.2-68.9,37.2-68.9h9.6c0,0-0.4,23.8,3.3,54.5c0,0,0,0,0.1,0c1.8,13.6,0.3,59.3,27.8,91.7
		c23.3,27.5,76.3,43.3,76.3,43.3h-112c-21.7,0-41-10.2-53.4-26c-2.3-2.5-4.2-5.2-5.5-8.1C207.9,491.9,207.9,491.8,207.9,491.8z"/>
	<path display="inline" fill="#8C5B29" d="M1062.5,308.7c-0.3-7.5-5.4-3-5.4-3c-17.9-4.6-20.2-24.7-20.4-26.9c4.2-0.6,8.4-2,8.4-2
		s-25.5-7.8-36.6-8.8c-53.9-5.1-52.8,24.8-51.5,57.6c0.9,21.4,47.9,188.9,47.9,188.9c5.9-4,11.1-8.9,15.5-14.4
		c2.3-2.5,4.2-5.2,5.5-8.1c0,0,0-0.1,0.1-0.1c5.6-9.9,8.9-21.3,8.9-33.5c0-19.5-8.3-37.1-21.5-49.5c0,0-2.6-2.4-3.9-3.4
		c-35.6-31.9-37.2-68.9-37.2-68.9s-3-17.8-2.2-26.7c0.3-1.7,0.5-3.3,0.9-4.7c1.1-3.4,4.2-10.5,13.4-10.5c24.6,0.1,16.2,31,34.3,38.8
		c6.6,2.9,11.3,0.5,11.3,0.5c-13.8-14.5-13.5-37.1-13.5-37.1c9,10,30.8,24.3,36.5,24.6C1058.6,321.6,1062.8,316.2,1062.5,308.7z"/>
	<g display="inline">
		<circle fill="#996928" cx="249.4" cy="323.7" r="35.2"/>
		<circle fill="#CC9548" cx="249.4" cy="323.7" r="25"/>
		<circle fill="#996928" cx="249.4" cy="323.7" r="20"/>
		<circle fill="#CC9548" cx="249.4" cy="323.7" r="15"/>
		<circle fill="#996928" cx="249.4" cy="323.7" r="5"/>
	</g>
</g>
<g id="Layer_4" display="none">
	<circle display="inline" fill="#8C5B29" cx="269.1" cy="458.6" r="53.6"/>
	<circle display="inline" fill="#996928" cx="269.1" cy="458.6" r="40"/>
	<circle display="inline" fill="#CC9548" cx="269.1" cy="458.6" r="33.3"/>
	<circle display="inline" fill="#996928" cx="269.1" cy="458.6" r="28.4"/>
	<circle display="inline" fill="#8C5B29" cx="964" cy="458.6" r="53.6"/>
	<circle display="inline" fill="#996928" cx="964" cy="458.6" r="40"/>
	<circle display="inline" fill="#CC9548" cx="964" cy="458.6" r="33.3"/>
	<circle display="inline" fill="#996928" cx="964" cy="458.6" r="28.4"/>
</g>
<g id="Layer_5">
	<g>
		<path fill="#744921" d="M297.2,523.2c-19.2,0-36-10.5-45-26c-4.4,7.6-6.9,16.5-6.9,25.9c0,28.7,23.2,51.9,51.9,51.9
			c28.7,0,51.9-23.2,51.9-51.9c0-9.4-2.5-18.3-6.9-25.9C333.3,512.7,316.5,523.2,297.2,523.2z"/>
		<path fill="#3F332B" d="M1016.9,523.2c-19.2,0-36-10.5-45-26c-4.4,7.6-6.9,16.5-6.9,25.9c0,28.7,23.2,51.9,51.9,51.9
			s51.9-23.2,51.9-51.9c0-9.4-2.5-18.3-6.9-25.9C1052.9,512.7,1036.1,523.2,1016.9,523.2z"/>
		<path fill="#744921" d="M387.1,523.2c-19.2,0-36-10.5-45-26c-4.4,7.6-6.9,16.5-6.9,25.9c0,28.7,23.2,51.9,51.9,51.9
			c28.7,0,51.9-23.2,51.9-51.9c0-9.4-2.5-18.3-6.9-25.9C423.1,512.7,406.4,523.2,387.1,523.2z"/>
		<path fill="#744921" d="M477.1,523.2c-19.2,0-36-10.5-45-26c-4.4,7.6-6.9,16.5-6.9,25.9c0,28.7,23.2,51.9,51.9,51.9
			c28.7,0,51.9-23.2,51.9-51.9c0-9.4-2.5-18.3-6.9-25.9C513.1,512.7,496.3,523.2,477.1,523.2z"/>
		<path fill="#744921" d="M567,523.2c-19.2,0-36-10.5-45-26c-4.4,7.6-6.9,16.5-6.9,25.9c0,28.7,23.2,51.9,51.9,51.9
			s51.9-23.2,51.9-51.9c0-9.4-2.5-18.3-6.9-25.9C603,512.7,586.2,523.2,567,523.2z"/>
		<path fill="#744921" d="M656.9,523.2c-19.2,0-36-10.5-45-26c-4.4,7.6-6.9,16.5-6.9,25.9c0,28.7,23.2,51.9,51.9,51.9
			s51.9-23.2,51.9-51.9c0-9.4-2.5-18.3-6.9-25.9C692.9,512.7,676.1,523.2,656.9,523.2z"/>
		<path fill="#744921" d="M747,523.2c-19.2,0-36-10.5-45-26c-4.4,7.6-6.9,16.5-6.9,25.9c0,28.7,23.2,51.9,51.9,51.9
			c28.7,0,51.9-23.2,51.9-51.9c0-9.4-2.5-18.3-6.9-25.9C783,512.7,766.2,523.2,747,523.2z"/>
		<path fill="#744921" d="M836.9,523.2c-19.2,0-36-10.5-45-26c-4.4,7.6-6.9,16.5-6.9,25.9c0,28.7,23.2,51.9,51.9,51.9
			s51.9-23.2,51.9-51.9c0-9.4-2.5-18.3-6.9-25.9C872.9,512.7,856.1,523.2,836.9,523.2z"/>
		<path fill="#744921" d="M927,523.2c-19.2,0-36-10.5-45-26c-4.4,7.6-6.9,16.5-6.9,25.9c0,28.7,23.2,51.9,51.9,51.9
			c28.7,0,51.9-23.2,51.9-51.9c0-9.4-2.5-18.3-6.9-25.9C963,512.7,946.2,523.2,927,523.2z"/>
		<rect x="174.5" y="523.1" fill="#744921" width="894.3" height="51.9"/>
		<path fill="#744921" d="M252.3,497.2c-9,15.5-25.8,26-45,26c-12.4,0-23.9-4.4-32.8-11.7v51.8c8.9,7.3,20.4,11.7,32.8,11.7
			c28.7,0,51.9-23.2,51.9-51.9C259.2,513.6,256.7,504.8,252.3,497.2z"/>
	</g>
	<g>
		<g>
			<path fill="#3F332B" d="M221.3,523.2c-19.2,0-36-10.5-45-26c-4.4,7.6-6.9,16.5-6.9,25.9c0,28.7,23.2,51.9,51.9,51.9
				s51.9-23.2,51.9-51.9c0-9.4-2.5-18.3-6.9-25.9C257.3,512.7,240.5,523.2,221.3,523.2z"/>
			<path fill="#3F332B" d="M311.2,523.2c-19.2,0-36-10.5-45-26c-4.4,7.6-6.9,16.5-6.9,25.9c0,28.7,23.2,51.9,51.9,51.9
				c28.7,0,51.9-23.2,51.9-51.9c0-9.4-2.5-18.3-6.9-25.9C347.3,512.7,330.5,523.2,311.2,523.2z"/>
			<path fill="#3F332B" d="M401.1,523.2c-19.2,0-36-10.5-45-26c-4.4,7.6-6.9,16.5-6.9,25.9c0,28.7,23.2,51.9,51.9,51.9
				c28.7,0,51.9-23.2,51.9-51.9c0-9.4-2.5-18.3-6.9-25.9C437.1,512.7,420.4,523.2,401.1,523.2z"/>
			<path fill="#3F332B" d="M491.1,523.2c-19.2,0-36-10.5-45-26c-4.4,7.6-6.9,16.5-6.9,25.9c0,28.7,23.2,51.9,51.9,51.9
				c28.7,0,51.9-23.2,51.9-51.9c0-9.4-2.5-18.3-6.9-25.9C527.1,512.7,510.3,523.2,491.1,523.2z"/>
			<path fill="#3F332B" d="M581,523.2c-19.2,0-36-10.5-45-26c-4.4,7.6-6.9,16.5-6.9,25.9c0,28.7,23.2,51.9,51.9,51.9
				s51.9-23.2,51.9-51.9c0-9.4-2.5-18.3-6.9-25.9C617,512.7,600.2,523.2,581,523.2z"/>
			<path fill="#3F332B" d="M670.9,523.2c-19.2,0-36-10.5-45-26c-4.4,7.6-6.9,16.5-6.9,25.9c0,28.7,23.2,51.9,51.9,51.9
				s51.9-23.2,51.9-51.9c0-9.4-2.5-18.3-6.9-25.9C706.9,512.7,690.1,523.2,670.9,523.2z"/>
			<path fill="#3F332B" d="M761,523.2c-19.2,0-36-10.5-45-26c-4.4,7.6-6.9,16.5-6.9,25.9c0,28.7,23.2,51.9,51.9,51.9
				c28.7,0,51.9-23.2,51.9-51.9c0-9.4-2.5-18.3-6.9-25.9C797,512.7,780.2,523.2,761,523.2z"/>
			<path fill="#3F332B" d="M850.9,523.2c-19.2,0-36-10.5-45-26c-4.4,7.6-6.9,16.5-6.9,25.9c0,28.7,23.2,51.9,51.9,51.9
				s51.9-23.2,51.9-51.9c0-9.4-2.5-18.3-6.9-25.9C886.9,512.7,870.1,523.2,850.9,523.2z"/>
			<path fill="#3F332B" d="M941,523.2c-19.2,0-36-10.5-45-26c-4.4,7.6-6.9,16.5-6.9,25.9c0,28.7,23.2,51.9,51.9,51.9
				c28.7,0,51.9-23.2,51.9-51.9c0-9.4-2.5-18.3-6.9-25.9C977,512.7,960.2,523.2,941,523.2z"/>
			<path fill="#3F332B" d="M1030.9,523.2c-19.2,0-36-10.5-45-26c-4.4,7.6-6.9,16.5-6.9,25.9c0,28.7,23.2,51.9,51.9,51.9
				s51.9-23.2,51.9-51.9c0-9.4-2.5-18.3-6.9-25.9C1066.9,512.7,1050.1,523.2,1030.9,523.2z"/>
		</g>
		<rect x="169.4" y="523.1" fill="#3F332B" width="913.4" height="61.9"/>
	</g>
</g>
</svg>
